<svg width="6" height="8" viewBox="0 0 6 8" fill="none" xmlns="http://www.w3.org/2000/svg">
<path d="M5.99991 3.76067C6.00182 3.90964 5.97155 4.05721 5.91125 4.19281C5.84791 4.33628 5.7508 4.46074 5.62835 4.55581L1.55382 7.80121C1.41038 7.91314 1.23932 7.98198 1.05981 8H0.962699C0.815926 8.00005 0.671229 7.96451 0.540468 7.89629C0.381798 7.81655 0.247522 7.69382 0.152236 7.54144C0.0569503 7.38906 0.00430101 7.21286 1.16863e-05 7.032V0.981984C-0.00086342 0.803399 0.0474257 0.628172 0.139348 0.476375C0.228303 0.32459 0.355726 0.200265 0.508111 0.116578C0.660496 0.0328909 0.832164 -0.00704017 1.00492 0.00101714C1.17888 0.00966002 1.34777 0.0649744 1.49471 0.16091L5.57346 2.94392C5.6976 3.03207 5.80147 3.14702 5.87747 3.28099C5.95769 3.42792 5.99991 3.59256 5.99991 3.76067Z" fill="white"/>
</svg>
