<svg width="150" height="150" viewBox="0 0 150 150" fill="none" xmlns="http://www.w3.org/2000/svg">
<path d="M74.3926 79.7444C73.7666 80.5159 72.9256 81.07 71.9839 81.3313C71.0421 81.5926 70.0451 81.5486 69.1285 81.2051C68.2118 80.8617 67.4198 80.2355 66.8601 79.4116C66.3004 78.5877 66.0001 77.6061 66 76.6C66 74.3572 67.5471 72.9138 69.61 70.9888C71.4096 69.3088 73.6027 67.262 75.5 64C77.3973 67.262 79.5904 69.3088 81.39 70.9888C83.4529 72.9138 85 74.3572 85 76.6C84.9999 77.6061 84.6996 78.5877 84.1399 79.4116C83.5802 80.2355 82.7882 80.8617 81.8715 81.2051C80.9549 81.5486 79.9579 81.5926 79.0161 81.3313C78.0744 81.07 77.2334 80.5159 76.6074 79.7444C77.2129 81.1599 77.931 82.5211 78.7544 83.8142C79.0679 84.3042 78.7273 85 78.16 85H72.84C72.2714 85 71.9307 84.3042 72.2456 83.8142C73.069 82.5211 73.7871 81.1599 74.3926 79.7444Z" fill="white" fill-opacity="0.2"/>
</svg>
