<svg width="123" height="124" viewBox="0 0 123 124" fill="none" xmlns="http://www.w3.org/2000/svg">
<g clip-path="url(#clip0_1428_140)">
<path fill-rule="evenodd" clip-rule="evenodd" d="M22.9424 -0.121094C56.255 -0.121094 89.5673 -0.121094 122.88 -0.121094C122.88 2.46225 122.88 5.04556 122.88 7.62891C89.5673 7.62891 56.255 7.62891 22.9424 7.62891C22.9424 5.04556 22.9424 2.46225 22.9424 -0.121094Z" fill="#1F1F1F"/>
<path fill-rule="evenodd" clip-rule="evenodd" d="M-0.120117 19.2539C40.88 19.2539 81.8798 19.2539 122.88 19.2539C122.88 21.8372 122.88 24.4205 122.88 27.0039C81.8798 27.0039 40.88 27.0039 -0.120117 27.0039C-0.120117 24.4205 -0.120117 21.8372 -0.120117 19.2539Z" fill="#1F1F1F"/>
<path fill-rule="evenodd" clip-rule="evenodd" d="M-0.120117 38.6289C40.88 38.6289 81.8798 38.6289 122.88 38.6289C122.88 41.2123 122.88 43.7955 122.88 46.3789C81.8798 46.3789 40.88 46.3789 -0.120117 46.3789C-0.120117 43.7955 -0.120117 41.2123 -0.120117 38.6289Z" fill="#1F1F1F"/>
<path fill-rule="evenodd" clip-rule="evenodd" d="M-0.120117 58.0039C40.88 58.0039 81.8798 58.0039 122.88 58.0039C122.88 60.5873 122.88 63.1705 122.88 65.7539C81.8798 65.7539 40.88 65.7539 -0.120117 65.7539C-0.120117 63.1705 -0.120117 60.5873 -0.120117 58.0039Z" fill="#1F1F1F"/>
<path fill-rule="evenodd" clip-rule="evenodd" d="M-0.120117 77.3789C40.88 77.3789 81.8798 77.3789 122.88 77.3789C122.88 79.9623 122.88 82.5455 122.88 85.1289C81.8798 85.1289 40.88 85.1289 -0.120117 85.1289C-0.120117 82.5455 -0.120117 79.9623 -0.120117 77.3789Z" fill="#1F1F1F"/>
<path fill-rule="evenodd" clip-rule="evenodd" d="M-0.120117 96.7539C40.88 96.7539 81.8798 96.7539 122.88 96.7539C122.88 99.3373 122.88 101.92 122.88 104.504C81.8798 104.504 40.88 104.504 -0.120117 104.504C-0.120117 101.92 -0.120117 99.3373 -0.120117 96.7539Z" fill="#1F1F1F"/>
<path fill-rule="evenodd" clip-rule="evenodd" d="M-0.120117 116.129C40.88 116.129 81.8798 116.129 122.88 116.129C122.88 118.712 122.88 121.295 122.88 123.879C81.8798 123.879 40.88 123.879 -0.120117 123.879C-0.120117 121.295 -0.120117 118.712 -0.120117 116.129Z" fill="#1F1F1F"/>
</g>
<defs>
<clipPath id="clip0_1428_140">
<rect width="123" height="124" fill="white"/>
</clipPath>
</defs>
</svg>
