<svg width="22" height="22" viewBox="0 0 22 22" fill="none" xmlns="http://www.w3.org/2000/svg">
<path d="M11.5 5.5C12.7426 5.5 13.75 4.49264 13.75 3.25C13.75 2.00736 12.7426 1 11.5 1C10.2574 1 9.25 2.00736 9.25 3.25C9.25 4.49264 10.2574 5.5 11.5 5.5Z" fill="white"/>
<path d="M13.4286 6.14285H9.57143C8.89006 6.14487 8.23718 6.41643 7.75538 6.89823C7.27358 7.38003 7.00201 8.03292 7 8.71428V13.0343C7 13.4702 7.33871 13.8411 7.77424 13.8567C7.88218 13.8607 7.9898 13.8428 8.09068 13.8042C8.19155 13.7656 8.28362 13.7071 8.36136 13.6321C8.43911 13.5572 8.50095 13.4673 8.54318 13.3679C8.58541 13.2685 8.60716 13.1616 8.60714 13.0536V9.04656C8.60612 8.96363 8.63649 8.88339 8.69215 8.82191C8.74781 8.76044 8.82466 8.72228 8.90728 8.71508C8.95124 8.71217 8.99534 8.71832 9.03683 8.73316C9.07832 8.748 9.11632 8.77121 9.14846 8.80136C9.1806 8.8315 9.2062 8.86793 9.22366 8.90838C9.24113 8.94884 9.2501 8.99245 9.25 9.03651V20.6473C9.25 20.8924 9.34736 21.1275 9.52066 21.3008C9.69397 21.4741 9.92902 21.5714 10.1741 21.5714C10.4192 21.5714 10.6542 21.4741 10.8275 21.3008C11.0009 21.1275 11.0982 20.8924 11.0982 20.6473V14.9154C11.0968 14.8117 11.1346 14.7112 11.2041 14.6342C11.2737 14.5571 11.3697 14.5092 11.4731 14.5C11.5281 14.4963 11.5832 14.504 11.6351 14.5225C11.687 14.541 11.7345 14.57 11.7748 14.6077C11.815 14.6454 11.847 14.691 11.8688 14.7415C11.8907 14.7921 11.9019 14.8467 11.9018 14.9018V20.6473C11.9018 20.8924 11.9991 21.1275 12.1724 21.3008C12.3458 21.4741 12.5808 21.5714 12.8259 21.5714C13.071 21.5714 13.306 21.4741 13.4793 21.3008C13.6526 21.1275 13.75 20.8924 13.75 20.6473V9.04656C13.749 8.96363 13.7793 8.88339 13.835 8.82191C13.8907 8.76044 13.9675 8.72228 14.0501 8.71508C14.0941 8.71217 14.1382 8.71832 14.1797 8.73316C14.2212 8.748 14.2592 8.77121 14.2913 8.80136C14.3235 8.8315 14.3491 8.86793 14.3665 8.90838C14.384 8.94884 14.393 8.99245 14.3929 9.03651V13.0351C14.3929 13.471 14.7316 13.8419 15.1671 13.8575C15.2751 13.8615 15.3828 13.8436 15.4837 13.805C15.5847 13.7663 15.6768 13.7077 15.7545 13.6327C15.8323 13.5576 15.8941 13.4676 15.9363 13.3681C15.9784 13.2686 16.0001 13.1616 16 13.0536V8.71428C15.998 8.03292 15.7264 7.38003 15.2446 6.89823C14.7628 6.41643 14.1099 6.14487 13.4286 6.14285Z" fill="white"/>
</svg>
