<svg width="22" height="22" viewBox="0 0 22 22" fill="none" xmlns="http://www.w3.org/2000/svg">
<path d="M21 6.86645L20.9502 13.0228C20.951 13.6298 20.8292 14.231 20.5918 14.7915C20.3567 15.3505 20.0113 15.8583 19.5757 16.286C19.1401 16.7136 18.6227 17.0525 18.0533 17.2834C17.4822 17.5164 16.8698 17.6359 16.2514 17.6352H13.9318L11.9408 19.5896C11.8169 19.7159 11.6678 19.8157 11.5027 19.8827C11.3311 19.9606 11.1443 20.0006 10.9552 20C10.7672 20.0008 10.5809 19.9642 10.4077 19.8925C10.2342 19.8167 10.0784 19.707 9.94973 19.57L8.00847 17.6743H5.68891C5.07232 17.6743 4.46178 17.5549 3.89225 17.323C3.32271 17.0911 2.80537 16.7512 2.36984 16.3227C1.9343 15.8943 1.58913 15.3858 1.35408 14.8262C1.11903 14.2667 0.998709 13.6671 1.00002 13.0619V6.61238C0.998287 6.00628 1.11879 5.40584 1.35457 4.84567C1.59036 4.2855 1.93677 3.77668 2.37383 3.34854C3.25723 2.4916 4.44695 2.00764 5.68891 2.00001H16.3011C16.9186 1.99872 17.5302 2.11715 18.1009 2.34848C18.6715 2.57982 19.1901 2.91952 19.6267 3.34807C20.0632 3.77663 20.4093 4.2856 20.645 4.84578C20.8807 5.40596 21.0013 6.00632 21 6.61238V6.86645Z" fill="white"/>
</svg>
