<svg width="22" height="22" viewBox="0 0 22 22" fill="none" xmlns="http://www.w3.org/2000/svg">
<path d="M7.82883 4.88889C7.82883 4.37819 7.92384 3.8725 8.10844 3.40068C8.29304 2.92885 8.56361 2.50015 8.90471 2.13903C9.2458 1.77791 9.65074 1.49146 10.0964 1.29602C10.5421 1.10059 11.0197 1 11.5021 1C11.9845 1 12.4621 1.10059 12.9078 1.29602C13.3535 1.49146 13.7584 1.77791 14.0995 2.13903C14.4406 2.50015 14.7112 2.92885 14.8958 3.40068C15.0804 3.8725 15.1754 4.37819 15.1754 4.88889C15.1754 5.92029 14.7884 6.90944 14.0995 7.63875C13.4106 8.36806 12.4763 8.77778 11.5021 8.77778C10.5279 8.77778 9.59358 8.36806 8.90471 7.63875C8.21583 6.90944 7.82883 5.92029 7.82883 4.88889ZM3.63081 9.88889C4.32667 9.88889 4.99404 9.59623 5.48609 9.0753C5.97814 8.55436 6.25457 7.84782 6.25457 7.11111C6.25457 6.3744 5.97814 5.66786 5.48609 5.14693C4.99404 4.62599 4.32667 4.33333 3.63081 4.33333C2.93494 4.33333 2.26758 4.62599 1.77553 5.14693C1.28347 5.66786 1.00704 6.3744 1.00704 7.11111C1.00704 7.84782 1.28347 8.55436 1.77553 9.0753C2.26758 9.59623 2.93494 9.88889 3.63081 9.88889ZM21.9972 7.11111C21.9972 7.84782 21.7207 8.55436 21.2287 9.0753C20.7366 9.59623 20.0693 9.88889 19.3734 9.88889C18.6775 9.88889 18.0102 9.59623 17.5181 9.0753C17.0261 8.55436 16.7496 7.84782 16.7496 7.11111C16.7496 6.3744 17.0261 5.66786 17.5181 5.14693C18.0102 4.62599 18.6775 4.33333 19.3734 4.33333C20.0693 4.33333 20.7366 4.62599 21.2287 5.14693C21.7207 5.66786 21.9972 6.3744 21.9972 7.11111ZM9.92784 11C8.47952 11 7.30408 12.2444 7.30408 13.7778V16.5556C7.30408 17.7343 7.74637 18.8648 8.53365 19.6983C9.32093 20.5317 10.3887 21 11.5021 21C12.6155 21 13.6833 20.5317 14.4705 19.6983C15.2578 18.8648 15.7001 17.7343 15.7001 16.5556V13.7778C15.7001 12.2444 14.5247 11 13.0764 11H9.92784ZM5.20507 13.7778C5.20507 13.1356 5.31841 12.5222 5.52831 11.96L2.94443 12.6933C2.27267 12.884 1.69988 13.3492 1.35195 13.9867C1.00401 14.6243 0.909401 15.382 1.08891 16.0933L1.49611 17.7044C1.63884 18.2683 1.88508 18.7968 2.22078 19.2599C2.55648 19.723 2.97506 20.1115 3.45261 20.4033C3.93015 20.6951 4.45732 20.8845 5.00399 20.9605C5.55067 21.0366 6.10614 20.9979 6.63869 20.8467L6.67437 20.8356C5.72527 19.6357 5.20513 18.1206 5.20507 16.5556V13.7778ZM17.7991 16.5556C17.7991 18.1844 17.2471 19.6778 16.3298 20.8378L16.3634 20.8467C17.4387 21.1514 18.5842 20.9916 19.5482 20.4024C20.5122 19.8131 21.2156 18.8427 21.5039 17.7044L21.9111 16.0933C22.0906 15.382 21.996 14.6243 21.6481 13.9867C21.3001 13.3492 20.7273 12.884 20.0556 12.6933L17.478 11.96C17.6858 12.5244 17.7991 13.1378 17.7991 13.7778V16.5556Z" fill="white"/>
</svg>
