<svg width="22" height="22" viewBox="0 0 22 22" fill="none" xmlns="http://www.w3.org/2000/svg">
<path d="M5.6001 10.397C5.6001 7.67099 5.6001 6.308 6.44309 5.46101C7.28708 4.61401 8.64407 4.61401 11.36 4.61401H14.24C16.955 4.61401 18.313 4.61401 19.156 5.46101C20 6.308 20 7.67099 20 10.397V15.2169C20 17.9429 20 19.3059 19.156 20.1529C18.313 20.9999 16.955 20.9999 14.24 20.9999H11.36C8.64407 20.9999 7.28708 20.9999 6.44309 20.1529C5.5991 19.3059 5.6001 17.9429 5.6001 15.2169V10.397Z" fill="white"/>
<path opacity="0.5" d="M3.17199 2.17199C2 3.34298 2 5.22896 2 8.99993V10.9999C2 14.7709 2 16.6569 3.17199 17.8279C3.78898 18.4458 4.60498 18.7378 5.79197 18.8758C5.59997 18.0359 5.59997 16.8799 5.59997 15.2159V10.3969C5.59997 7.67094 5.59997 6.30795 6.44296 5.46096C7.28695 4.61397 8.64394 4.61397 11.3599 4.61397H14.2399C15.8919 4.61397 17.0399 4.61397 17.8779 4.80397C17.7399 3.61098 17.4479 2.79198 16.8279 2.17199C15.6569 1 13.7709 1 9.99993 1C6.22896 1 4.34298 1 3.17199 2.17199Z" fill="white"/>
</svg>
