<svg width="22" height="22" viewBox="0 0 22 22" fill="none" xmlns="http://www.w3.org/2000/svg">
<path d="M20.2385 20.3135C19.7604 20.7457 19.112 20.9885 18.4359 20.9885C17.7598 20.9885 17.1113 20.7457 16.6332 20.3135L11.0011 14.4938L5.36892 20.3116C5.13289 20.5285 4.8517 20.701 4.54157 20.8191C4.23143 20.9373 3.89849 20.9987 3.56195 21C3.22541 21.0012 2.89192 20.9422 2.58074 20.8263C2.26955 20.7105 1.98681 20.5401 1.74884 20.3249C1.51087 20.1098 1.32236 19.8542 1.19421 19.5728C1.06605 19.2915 1.00078 18.99 1.00215 18.6858C1.00352 18.3815 1.07151 18.0805 1.20219 17.8001C1.33288 17.5198 1.52368 17.2655 1.76358 17.0522L7.62305 11.0019L1.76146 4.94785C1.52155 4.73446 1.33075 4.48025 1.20007 4.19987C1.06938 3.91949 1.00139 3.61849 1.00002 3.31424C0.998651 3.00998 1.06393 2.70849 1.19208 2.42716C1.32024 2.14583 1.50874 1.89022 1.74671 1.67508C1.98469 1.45993 2.26742 1.28952 2.57861 1.17366C2.8898 1.05779 3.22328 0.99878 3.55982 1.00002C3.89637 1.00126 4.22931 1.06272 4.53944 1.18087C4.84958 1.29902 5.13077 1.47152 5.36679 1.6884L11.0011 7.51007L16.6332 1.6884C16.8692 1.47152 17.1504 1.29902 17.4606 1.18087C17.7707 1.06272 18.1036 1.00126 18.4402 1.00002C18.7767 0.99878 19.1102 1.05779 19.4214 1.17366C19.7326 1.28952 20.0153 1.45993 20.2533 1.67508C20.4913 1.89022 20.6798 2.14583 20.8079 2.42716C20.9361 2.70849 21.0013 3.00998 21 3.31424C20.9986 3.61849 20.9306 3.91949 20.7999 4.19987C20.6692 4.48025 20.4784 4.73446 20.2385 4.94785L14.3791 11.0019L20.2385 17.0522C20.4756 17.2662 20.6636 17.5204 20.7919 17.8002C20.9202 18.08 20.9863 18.3799 20.9863 18.6828C20.9863 18.9857 20.9202 19.2857 20.7919 19.5655C20.6636 19.8453 20.4756 20.0995 20.2385 20.3135Z" fill="white"/>
</svg>
