<svg width="24" height="22" viewBox="0 0 24 22" fill="none" xmlns="http://www.w3.org/2000/svg">
<path opacity="0.946" fill-rule="evenodd" clip-rule="evenodd" d="M9.93945 1.00531C10.1057 0.986232 10.2593 1.01856 10.4001 1.10228C10.4886 1.28563 10.5371 1.47957 10.5455 1.6841C10.7113 2.99392 10.881 4.30301 11.0546 5.61138C10.9578 5.95073 10.7477 6.05574 10.4243 5.92653C10.328 5.86258 10.2714 5.77371 10.2546 5.65986C10.0767 4.23639 9.89082 2.81416 9.69702 1.39319C9.7072 1.21403 9.78803 1.08473 9.93945 1.00531Z" fill="white"/>
<path opacity="0.94" fill-rule="evenodd" clip-rule="evenodd" d="M14.7394 1.39319C15.1511 1.40727 15.3046 1.61737 15.2 2.02349C14.7636 3.13865 14.3272 4.2538 13.8909 5.36895C13.7307 5.734 13.4883 5.79863 13.1636 5.56289C13.0947 5.44023 13.0785 5.31092 13.1151 5.17501C13.5515 4.04371 13.9878 2.91238 14.4242 1.78107C14.4875 1.61324 14.5925 1.48395 14.7394 1.39319Z" fill="white"/>
<path opacity="0.94" fill-rule="evenodd" clip-rule="evenodd" d="M5.96364 3.13864C6.14837 3.13277 6.30192 3.19742 6.42425 3.33258C6.9091 4.01137 7.39395 4.69016 7.8788 5.36895C7.97722 5.50112 8.04995 5.64657 8.09698 5.80531C8.05131 6.04478 7.90585 6.15794 7.66061 6.14471C7.54299 6.14936 7.43792 6.11707 7.34546 6.04774C6.79598 5.27198 6.24645 4.49622 5.69697 3.72046C5.60175 3.43112 5.69062 3.23718 5.96364 3.13864Z" fill="white"/>
<path opacity="0.937" fill-rule="evenodd" clip-rule="evenodd" d="M18.6182 3.96289C18.876 3.9945 19.0215 4.13996 19.0545 4.39925C19.0384 4.52095 18.9899 4.62602 18.9091 4.71441C18.004 5.32857 17.099 5.94268 16.1939 6.55683C15.7653 6.66171 15.5794 6.49201 15.6364 6.04774C15.6744 5.96115 15.7309 5.88842 15.806 5.82956C16.7399 5.19358 17.6773 4.57138 18.6182 3.96289Z" fill="white"/>
<path opacity="0.985" fill-rule="evenodd" clip-rule="evenodd" d="M0 6.82352C1.88318 7.24058 3.76601 7.66075 5.64849 8.08412C6.61247 7.8784 7.57412 7.66022 8.53335 7.42958C8.77577 7.39724 9.0182 7.39724 9.26062 7.42958C10.6084 7.81421 11.9498 8.21823 13.2849 8.6417C13.3445 8.71583 13.4172 8.77242 13.5031 8.8114C14.1309 9.6817 14.7773 10.5383 15.4424 11.3811C15.6386 11.7318 15.582 12.0308 15.2728 12.2781C15.1012 12.351 14.9234 12.3671 14.7394 12.3266C13.9741 11.7714 13.2226 11.1977 12.4849 10.6053C11.882 10.966 11.292 11.3458 10.7152 11.7447C10.3354 11.8175 10.1818 11.6639 10.2546 11.2841C10.469 11.1162 10.7033 10.9788 10.9576 10.872C11.0156 10.8403 11.0156 10.8161 10.9576 10.7993C9.57577 11.072 8.2101 11.0074 6.86062 10.6053C6.55763 10.7554 6.53339 10.9251 6.78789 11.1144C7.51846 11.3158 8.26193 11.4451 9.0182 11.5023C8.49451 12.3325 7.95308 13.1487 7.39395 13.9508C6.58479 13.497 5.80093 13.004 5.04243 12.472C4.88854 12.3884 4.72694 12.3237 4.55758 12.2781C3.04093 12.0683 1.52173 11.8824 0 11.7205C0 10.0882 0 8.45586 0 6.82352Z" fill="white"/>
<path opacity="0.956" fill-rule="evenodd" clip-rule="evenodd" d="M23.2728 6.82351C23.6632 6.71505 23.9057 6.85246 24.0001 7.23564C23.9992 7.4464 23.9022 7.59185 23.7091 7.672C22.5197 7.86754 21.3399 8.10996 20.1697 8.39927C19.5089 8.62463 18.8786 8.91554 18.2788 9.272C17.947 9.36117 17.7289 9.23995 17.6243 8.90837C17.4464 8.58807 17.4302 8.26487 17.5758 7.93867C17.6446 7.89212 17.7173 7.85173 17.794 7.81745C19.6287 7.49561 21.455 7.16427 23.2728 6.82351Z" fill="white"/>
<path opacity="0.938" fill-rule="evenodd" clip-rule="evenodd" d="M15.1757 8.1326C15.3923 8.11481 15.6024 8.13905 15.806 8.20533C16 8.36693 16 8.52858 15.806 8.69018C15.3858 8.90026 14.9657 9.1104 14.5454 9.32048C14.4808 9.35282 14.4161 9.35282 14.3515 9.32048C14.1145 9.10783 13.9044 8.87345 13.7212 8.61745C13.7474 8.55694 13.7797 8.50036 13.8182 8.44775C14.2801 8.35718 14.7326 8.25212 15.1757 8.1326Z" fill="white"/>
<path opacity="0.924" fill-rule="evenodd" clip-rule="evenodd" d="M16.2909 8.13258C16.546 8.1178 16.7965 8.13399 17.0424 8.18107C17.117 8.50175 17.2301 8.8088 17.3818 9.10228C17.4252 9.22471 17.401 9.32977 17.3091 9.41743C17.1472 9.51053 16.9775 9.58325 16.8 9.63562C16.717 9.63857 16.6524 9.60623 16.606 9.53865C16.4606 9.19925 16.3151 8.85986 16.1697 8.52046C16.1133 8.35217 16.1537 8.22286 16.2909 8.13258Z" fill="white"/>
<path opacity="0.945" fill-rule="evenodd" clip-rule="evenodd" d="M23.3697 8.56895C23.8596 8.50126 24.0617 8.7114 23.9758 9.19925C23.9354 9.30432 23.8627 9.37705 23.7576 9.41743C22.0303 9.84522 20.301 10.2654 18.5697 10.678C18.4243 10.7104 18.2788 10.7104 18.1334 10.678C18.0283 10.6377 17.9556 10.5649 17.9152 10.4599C17.7875 10.1475 17.8279 9.86466 18.0364 9.61137C18.3345 9.60958 18.6335 9.61763 18.9334 9.63562C19.2184 9.63518 19.5013 9.61094 19.7818 9.56289C20.9928 9.26398 22.1888 8.93268 23.3697 8.56895Z" fill="white"/>
<path opacity="0.895" fill-rule="evenodd" clip-rule="evenodd" d="M15.9515 8.90836C16.178 8.90778 16.267 9.02094 16.2182 9.24775C15.9354 9.53057 15.6525 9.81343 15.3697 10.0962C15.2948 10.1538 15.214 10.1699 15.1273 10.1447C14.9494 9.95932 14.8767 9.74114 14.9091 9.49018C15.2557 9.28877 15.6032 9.09483 15.9515 8.90836Z" fill="white"/>
<path opacity="0.93" fill-rule="evenodd" clip-rule="evenodd" d="M16.2425 9.63562C16.3434 9.64163 16.4162 9.69012 16.4607 9.78107C16.5468 10.0385 16.6115 10.2971 16.6546 10.5568C16.5781 10.6315 16.4891 10.6881 16.3879 10.7265C16.1209 10.848 15.8462 10.9288 15.5637 10.969C15.3923 10.8377 15.3357 10.668 15.394 10.4599C15.6718 10.1739 15.9546 9.89918 16.2425 9.63562Z" fill="white"/>
<path opacity="0.911" fill-rule="evenodd" clip-rule="evenodd" d="M17.3576 9.6841C17.4373 9.67372 17.51 9.68992 17.5758 9.73259C17.5673 10.0777 17.6238 10.409 17.7455 10.7265C17.7484 10.8095 17.7161 10.8741 17.6485 10.9205C17.4976 10.9838 17.3441 11.0403 17.1879 11.0902C17.1505 11.0831 17.1181 11.067 17.0909 11.0417C16.9715 10.7101 16.9069 10.3707 16.897 10.0235C17.0495 9.90345 17.203 9.79028 17.3576 9.6841Z" fill="white"/>
<path opacity="0.915" fill-rule="evenodd" clip-rule="evenodd" d="M12.5575 10.9447C12.9127 10.9201 13.0501 11.0817 12.9697 11.4296C12.3966 11.7607 11.8714 12.1566 11.3939 12.6174C10.9486 12.7056 10.795 12.5359 10.9333 12.1083C11.5105 11.7647 12.0519 11.3768 12.5575 10.9447Z" fill="white"/>
<path opacity="0.929" fill-rule="evenodd" clip-rule="evenodd" d="M16.5333 10.9447C16.7997 10.9281 16.9371 11.0574 16.9454 11.3326C17.0434 11.897 16.809 12.1798 16.2424 12.1811C16.198 12.163 16.1576 12.1387 16.1212 12.1084C16.0242 11.9144 15.9273 11.7205 15.8303 11.5265C15.7979 11.4457 15.7979 11.3649 15.8303 11.2841C16.0608 11.1565 16.2952 11.0433 16.5333 10.9447Z" fill="white"/>
<path opacity="0.913" fill-rule="evenodd" clip-rule="evenodd" d="M13.3334 11.6235C13.7198 11.6206 13.8411 11.7984 13.6971 12.1568C13.1332 12.462 12.6241 12.8417 12.1698 13.2962C11.7686 13.396 11.5989 13.2424 11.6607 12.8356C12.2542 12.4758 12.8118 12.0717 13.3334 11.6235Z" fill="white"/>
<path opacity="0.901" fill-rule="evenodd" clip-rule="evenodd" d="M9.79399 11.672C10.1414 11.6234 10.2787 11.7688 10.2061 12.1084C9.82056 12.4452 9.48921 12.8249 9.21217 13.2478C8.93391 13.3672 8.75612 13.2784 8.67883 12.9811C8.68945 12.9114 8.71369 12.8468 8.75156 12.7872C9.15961 12.4681 9.5071 12.0964 9.79399 11.672Z" fill="white"/>
<path opacity="0.92" fill-rule="evenodd" clip-rule="evenodd" d="M13.9636 12.1084C14.2881 12.1173 14.4255 12.279 14.3758 12.5932C13.9018 12.9218 13.4735 13.3016 13.0909 13.7326C12.868 13.8558 12.6822 13.8154 12.5333 13.6114C12.4967 13.4755 12.5129 13.3462 12.5818 13.2235C13.1035 12.9265 13.5641 12.5548 13.9636 12.1084Z" fill="white"/>
<path opacity="0.906" fill-rule="evenodd" clip-rule="evenodd" d="M10.4726 12.5447C10.8724 12.4993 11.0098 12.6609 10.8848 13.0296C10.6925 13.1733 10.5147 13.3349 10.3514 13.5144C10.1993 13.7457 10.0296 13.9639 9.84234 14.169C9.48428 14.2149 9.34687 14.0613 9.43022 13.7084C9.83395 13.3686 10.1814 12.9807 10.4726 12.5447Z" fill="white"/>
<path opacity="0.95" fill-rule="evenodd" clip-rule="evenodd" d="M15.1758 12.8356C15.368 12.8157 15.5458 12.8561 15.7092 12.9568C15.8627 13.1104 16.0162 13.2639 16.1698 13.4174C16.4252 13.8922 16.2958 14.1993 15.7819 14.3387C15.6978 14.3023 15.609 14.2781 15.5152 14.2659C15.3132 14.0639 15.1112 13.8619 14.9092 13.6599C14.7464 13.2911 14.8353 13.0164 15.1758 12.8356Z" fill="white"/>
<path opacity="0.907" fill-rule="evenodd" clip-rule="evenodd" d="M11.3455 13.175C11.6381 13.2285 11.7432 13.3901 11.6606 13.6599C11.3492 13.9268 11.0825 14.2338 10.8606 14.5811C10.4983 14.6949 10.3286 14.5657 10.3515 14.1932C10.7277 13.8895 11.059 13.5501 11.3455 13.175Z" fill="white"/>
<path opacity="0.89" fill-rule="evenodd" clip-rule="evenodd" d="M8.38784 13.272C8.64457 13.246 8.76578 13.3591 8.75148 13.6114C8.63327 13.8425 8.49591 14.0607 8.33936 14.2659C8.0563 14.3377 7.91894 14.2326 7.92723 13.9508C8.04656 13.6943 8.20006 13.4681 8.38784 13.272Z" fill="white"/>
<path opacity="0.934" fill-rule="evenodd" clip-rule="evenodd" d="M14.0121 13.5144C14.1807 13.4991 14.3424 13.5234 14.4969 13.5872C14.6828 13.773 14.8687 13.9589 15.0545 14.1447C15.2072 14.7518 14.9728 15.0023 14.3515 14.8962C14.0826 14.7082 13.8644 14.4739 13.6969 14.1932C13.6334 13.8841 13.7384 13.6578 14.0121 13.5144Z" fill="white"/>
<path opacity="0.901" fill-rule="evenodd" clip-rule="evenodd" d="M12.2182 13.7084C12.5586 13.6768 12.6879 13.8222 12.6061 14.1447C12.3015 14.3764 12.0591 14.6592 11.8788 14.9932C11.7004 15.0742 11.5469 15.0338 11.4182 14.872C11.3858 14.775 11.3858 14.6781 11.4182 14.5811C11.7457 14.3426 12.0124 14.0517 12.2182 13.7084Z" fill="white"/>
<path opacity="0.896" fill-rule="evenodd" clip-rule="evenodd" d="M9.11511 14.0962C9.39758 14.0796 9.5188 14.2089 9.47875 14.4841C9.37135 14.7071 9.234 14.9091 9.06663 15.0902C8.78556 15.1642 8.6482 15.0591 8.6545 14.775C8.78246 14.5269 8.93596 14.3006 9.11511 14.0962Z" fill="white"/>
<path opacity="0.943" fill-rule="evenodd" clip-rule="evenodd" d="M13.2365 14.3387C13.5969 14.4482 13.8636 14.6744 14.0365 15.0175C14.0901 15.4112 13.9204 15.6374 13.5274 15.6963C13.2007 15.6043 12.9502 15.4103 12.7759 15.1144C12.6711 14.6926 12.8247 14.4341 13.2365 14.3387Z" fill="white"/>
<path opacity="0.94" fill-rule="evenodd" clip-rule="evenodd" d="M17.6485 14.4841C17.8171 14.4688 17.9788 14.493 18.1333 14.5569C18.8767 15.1387 19.6202 15.7205 20.3636 16.3023C20.563 16.4724 20.6034 16.6745 20.4848 16.9084C20.2766 17.0937 20.0584 17.1018 19.8303 16.9326C19.0707 16.3346 18.3111 15.7366 17.5515 15.1387C17.4076 14.8948 17.4399 14.6767 17.6485 14.4841Z" fill="white"/>
<path opacity="0.938" fill-rule="evenodd" clip-rule="evenodd" d="M6.01215 14.5326C6.38302 14.5236 6.53652 14.7014 6.47276 15.0659C6.44449 15.1388 6.40411 15.2034 6.35155 15.2599C5.26874 15.7528 4.18589 16.2457 3.10306 16.7387C2.77615 16.8259 2.58221 16.7047 2.52124 16.375C2.53739 16.2533 2.58587 16.1483 2.6667 16.0599C3.78623 15.5484 4.90137 15.0393 6.01215 14.5326Z" fill="white"/>
<path opacity="0.895" fill-rule="evenodd" clip-rule="evenodd" d="M10.0364 14.6781C10.2947 14.6138 10.424 14.7108 10.4243 14.969C10.3893 15.2033 10.3247 15.4295 10.2303 15.6478C10.0751 15.7749 9.9215 15.7749 9.76974 15.6478C9.7551 15.2957 9.84402 14.9725 10.0364 14.6781Z" fill="white"/>
<path opacity="0.897" fill-rule="evenodd" clip-rule="evenodd" d="M11.2001 15.0659C11.4448 15.0254 11.5742 15.1224 11.588 15.3568C11.5508 15.622 11.47 15.8725 11.3455 16.1084C11.1098 16.2168 10.9644 16.144 10.9092 15.8902C10.9492 15.592 11.0462 15.3173 11.2001 15.0659Z" fill="white"/>
<path opacity="0.945" fill-rule="evenodd" clip-rule="evenodd" d="M12.2666 15.1629C12.675 15.2884 12.9497 15.555 13.0909 15.9629C12.9786 16.4676 12.6877 16.6131 12.2181 16.3993C11.9679 16.2225 11.8063 15.9882 11.7333 15.6962C11.7863 15.3846 11.9641 15.2068 12.2666 15.1629Z" fill="white"/>
<path opacity="0.939" fill-rule="evenodd" clip-rule="evenodd" d="M15.2727 16.8114C15.4517 16.7858 15.6052 16.8342 15.7333 16.9569C16.299 17.7972 16.8646 18.6377 17.4303 19.4781C17.5749 19.8198 17.4618 20.0299 17.0909 20.1084C16.9244 20.0874 16.7951 20.0066 16.703 19.866C16.1656 19.0334 15.616 18.2091 15.0545 17.3932C14.9492 17.1348 15.0219 16.9409 15.2727 16.8114Z" fill="white"/>
<path opacity="0.937" fill-rule="evenodd" clip-rule="evenodd" d="M8.04849 16.9568C8.46992 16.9666 8.62347 17.1767 8.50909 17.5872C8.13062 18.4801 7.74274 19.3689 7.34545 20.2538C6.80785 20.4596 6.59777 20.2818 6.71515 19.7205C7.0897 18.8259 7.47758 17.937 7.87879 17.0538C7.94192 17.0255 7.9985 16.9932 8.04849 16.9568Z" fill="white"/>
<path opacity="0.941" fill-rule="evenodd" clip-rule="evenodd" d="M11.6849 17.8296C12.1438 17.8681 12.3054 18.1186 12.1697 18.5811C12.136 19.4137 12.0955 20.2461 12.0485 21.0781C11.911 21.371 11.6928 21.4438 11.394 21.2963C11.3132 21.2079 11.2647 21.1028 11.2485 20.9811C11.3058 20.012 11.3623 19.0423 11.4182 18.072C11.4838 17.963 11.5727 17.8821 11.6849 17.8296Z" fill="white"/>
</svg>
