<svg width="139" height="140" viewBox="0 0 139 140" fill="none" xmlns="http://www.w3.org/2000/svg">
<path opacity="0.982" fill-rule="evenodd" clip-rule="evenodd" d="M91.5238 28.5037C91.9851 28.46 92.4376 28.5054 92.8812 28.6399C98.8085 34.5881 104.736 40.5367 110.663 46.4849C108.753 55.6083 106.581 64.6896 104.148 73.7293C82.8559 86.5742 61.4537 99.1521 39.9418 111.463C35.911 107.463 31.9292 103.422 27.9965 99.339C40.5211 77.9168 53.0998 56.5299 65.7328 35.1785C74.373 32.9883 82.9701 30.7633 91.5238 28.5037ZM80.6644 42.3983C78.3096 43.3082 77.3594 45.0339 77.8138 47.5747C78.9239 49.2347 80.236 50.7331 81.7504 52.07C78.7187 55.1124 75.6873 58.1545 72.6556 61.1969C72.215 61.9671 71.8982 62.7844 71.7054 63.6489C72.6822 67.2727 74.8541 68.3169 78.2211 66.782C81.2527 63.7396 84.2841 60.6975 87.3158 57.6551C88.4471 58.7904 89.5781 59.9254 90.7094 61.0607C91.8102 61.6982 92.9868 61.8799 94.2386 61.6056C96.8082 60.3177 97.487 58.3651 96.2748 55.748C95.0941 54.6087 93.9631 53.4282 92.8812 52.2063C93.8724 51.0751 94.913 49.9853 96.0033 48.9369C96.8259 47.8779 97.0974 46.6974 96.8177 45.3952C95.4541 42.3661 93.3275 41.685 90.4379 43.3518C89.3932 44.446 88.3073 45.4902 87.1801 46.4849C85.9624 45.3992 84.7861 44.2642 83.6508 43.0794C82.7215 42.5607 81.7259 42.3337 80.6644 42.3983Z" fill="#1F1F1F"/>
<path opacity="0.982" d="M101.807 0C114.174 12.0015 126.435 24.171 138.593 36.5078C138.656 36.8447 138.792 37.1174 139 37.3252V40.3213C135.022 56.015 130.995 71.7263 126.919 87.4541C124.637 89.2125 122.239 90.8027 119.725 92.2227C93.1635 107.942 66.6485 123.698 40.1797 139.491H37.1934C24.8265 127.49 12.5645 115.32 0.407227 102.983C0.344193 102.647 0.208413 102.374 0 102.166V99.1699C17.029 70.5347 33.9969 41.8368 50.9033 13.0771C51.4734 12.2689 52.2429 11.7698 53.2109 11.5791C68.4686 7.79668 83.6718 3.93681 98.8203 0H101.807ZM98.0059 19.207C96.9525 18.427 95.7761 18.1095 94.4766 18.2539C84.3958 20.9194 74.2605 23.5076 64.0703 26.0186C62.9931 26.2813 62.1333 26.8713 61.4912 27.7891C48.3473 50.2651 35.1352 72.6969 21.8545 95.083C20.2288 97.0916 20.2289 99.0891 21.8545 101.076C27.5182 106.851 33.2644 112.527 39.0938 118.104C40.0116 118.716 41.0072 118.898 42.0801 118.649C64.477 105.55 86.8291 92.3815 109.137 79.1445C110.39 78.4471 111.521 77.5845 112.53 76.5566C115.371 65.9692 118.086 55.3438 120.675 44.6807C120.954 43.3784 120.683 42.1976 119.86 41.1387C112.576 33.8282 105.291 26.5175 98.0059 19.207Z" fill="#1F1F1F"/>
</svg>
