<svg width="22" height="22" viewBox="0 0 22 22" fill="none" xmlns="http://www.w3.org/2000/svg">
<path d="M7.67407 1.34337C6.14363 1.83902 4.86971 2.25207 4.84362 2.26077C4.79144 2.28251 1.26533 7.0434 1.26099 7.09123C1.26099 7.10862 4.12622 7.9695 5.8958 8.4782L6.16102 8.55646L7.63494 7.46949C8.44364 6.87384 9.448 6.13905 9.86104 5.83905L10.6089 5.28687V2.86077C10.6089 0.578147 10.6045 0.434667 10.535 0.439015C10.4915 0.443363 9.20452 0.847714 7.67407 1.34337ZM7.04798 2.98686C7.66103 3.2999 7.83059 4.01295 7.43494 4.63469C7.38711 4.7173 7.38711 4.74339 7.46537 4.85209C7.96538 5.57383 7.43059 6.56514 6.54363 6.56514C5.70015 6.56514 5.17405 5.66514 5.5871 4.926L5.70015 4.72165L5.5871 4.51295C5.1784 3.76078 5.6958 2.86947 6.54363 2.86947C6.74798 2.86947 6.86537 2.89555 7.04798 2.98686Z" fill="white"/>
<path d="M6.31318 3.69555C6.11318 3.88251 6.15231 4.16077 6.39579 4.2999C6.61753 4.42599 6.91319 4.23903 6.91319 3.96946C6.91319 3.66511 6.53492 3.4912 6.31318 3.69555Z" fill="white"/>
<path d="M6.29992 5.21291C6.226 5.29117 6.17383 5.38683 6.17383 5.45639C6.17383 5.61726 6.39122 5.82596 6.55644 5.82596C6.81731 5.82596 7.01296 5.46074 6.85644 5.25639C6.70427 5.05639 6.47383 5.039 6.29992 5.21291Z" fill="white"/>
<path d="M11.3912 2.86075V5.28685L13.6391 6.93469C14.8739 7.84339 15.9087 8.59122 15.9347 8.59992C15.9913 8.61296 20.6783 7.16078 20.7217 7.1173C20.7391 7.10426 20.6522 6.95643 20.5348 6.79556C20.3174 6.49991 17.2174 2.29118 17.1956 2.26944C17.1782 2.25205 11.4869 0.434649 11.4391 0.434649C11.4043 0.434649 11.3912 1.16509 11.3912 2.86075ZM15.9478 2.98249C16.5174 3.2651 16.7217 3.94337 16.413 4.51294L16.3 4.72163L16.413 4.91729C16.8261 5.66077 16.3 6.56512 15.4608 6.56512C15.013 6.56078 14.6565 6.34338 14.4608 5.94773C14.3521 5.73034 14.313 5.44338 14.3739 5.28251C14.4086 5.1999 14.613 5.08685 14.7391 5.08685C14.8826 5.08685 15.0869 5.31729 15.0869 5.47816C15.0869 5.65207 15.2652 5.82599 15.4434 5.82599C15.6087 5.82599 15.826 5.61729 15.826 5.45642C15.826 5.31729 15.6087 5.08685 15.4782 5.08685C15.1347 5.08685 14.9565 4.6825 15.2 4.45641C15.2695 4.3912 15.3695 4.34772 15.4434 4.34772C15.5956 4.34772 15.826 4.13902 15.826 3.99989C15.826 3.7825 15.6608 3.61293 15.4434 3.60858C15.2565 3.60858 15.0869 3.7738 15.0869 3.95641C15.0869 4.11728 14.8826 4.34772 14.7391 4.34772C14.626 4.34772 14.4739 4.26946 14.4043 4.17815C14.2652 3.99554 14.3956 3.4651 14.6434 3.19988C14.9565 2.86945 15.526 2.77379 15.9478 2.98249Z" fill="white"/>
<path d="M8.80418 7.52597C7.60852 8.40858 6.63025 9.14337 6.63025 9.16511C6.63025 9.1825 7.00416 10.3564 7.45634 11.7738L8.28243 14.3477H10.9998H13.7173L14.539 11.7912C14.9912 10.3869 15.3651 9.21728 15.3781 9.19119C15.3868 9.16076 15.1564 8.96511 14.8607 8.75206C14.5651 8.53467 13.5781 7.80858 12.6607 7.13901C11.7477 6.46509 10.9911 5.91291 10.9868 5.91726C10.9825 5.91726 9.99984 6.64335 8.80418 7.52597ZM11.6868 8.60858C12.0042 8.77815 12.1868 8.96945 12.3433 9.30424L12.4564 9.54337L12.4694 11.0999L12.4825 12.6521L12.3738 12.7608C12.252 12.8782 12.0303 12.9043 11.9085 12.813C11.7607 12.6999 11.739 12.5738 11.739 11.8912C11.739 11.3651 11.7259 11.2173 11.6868 11.2347C11.4129 11.3477 11.1303 11.3999 10.8868 11.3782C10.139 11.3216 9.57809 10.7434 9.53027 9.9825C9.49983 9.44337 9.7607 8.93467 10.2172 8.66076C10.5433 8.4651 10.6651 8.43467 11.0651 8.44771C11.3651 8.46075 11.452 8.48249 11.6868 8.60858Z" fill="white"/>
<path d="M10.6348 9.27389C10.4348 9.38693 10.2609 9.67824 10.2609 9.90433C10.2609 10.2782 10.5696 10.6043 10.9478 10.6391C11.3565 10.6782 11.7391 10.3261 11.7391 9.91302C11.7391 9.52171 11.3913 9.17389 11 9.17389C10.8783 9.17389 10.7391 9.21302 10.6348 9.27389Z" fill="white"/>
<path d="M1 10.8521V13.8782L2.77392 16.2869C3.74784 17.6087 4.55654 18.6913 4.56959 18.6956C4.59133 18.6956 7.48265 14.8695 7.5783 14.713C7.60874 14.6608 5.91307 9.33037 5.84351 9.26081C5.80873 9.23037 1.1 7.82601 1.02609 7.82601C1.01304 7.82601 1 9.18689 1 10.8521ZM4.9435 11.1391C5.13046 11.313 5.09568 11.4217 4.26524 13.0782C3.6348 14.3391 3.46523 14.6434 3.37393 14.6869C3.20436 14.7652 3.10436 14.7521 2.98262 14.6391C2.76523 14.4478 2.77392 14.4174 3.45219 13.0521L4.08698 11.7826H3.65654C3.14784 11.7826 2.97827 11.7304 2.88697 11.5565C2.80871 11.4043 2.83479 11.2521 2.95653 11.1304C3.03914 11.0478 3.10436 11.0434 3.9435 11.0434C4.80437 11.0434 4.84785 11.0478 4.9435 11.1391Z" fill="white"/>
<path d="M18.5652 8.58254C17.2608 8.99124 16.1739 9.33907 16.1434 9.34776C16.0782 9.3782 14.3826 14.6478 14.4217 14.713C14.5173 14.8695 17.4087 18.6956 17.4304 18.6956C17.4434 18.6913 18.2521 17.613 19.2261 16.2913L20.9956 13.8913L21 10.8565C21 9.19124 20.9869 7.82602 20.9696 7.83036C20.9478 7.83471 19.8695 8.1695 18.5652 8.58254ZM18.6913 11.1565C18.7782 11.2652 18.7826 11.326 18.7826 12.2652C18.7826 13.2174 18.7869 13.2608 18.8652 13.2608C18.913 13.2608 19 13.3217 19.0652 13.4C19.1565 13.5087 19.1739 13.5652 19.1565 13.6695C19.1217 13.8304 19.0261 13.9391 18.8869 13.9739C18.7913 14 18.7826 14.0217 18.7826 14.2521C18.7782 14.513 18.7348 14.6043 18.5782 14.6869C18.4261 14.7695 18.3043 14.7478 18.1695 14.613C18.0608 14.5 18.0434 14.4521 18.0434 14.2434V14H17.4304H16.8174L16.6913 13.8739C16.613 13.7913 16.5652 13.7 16.5652 13.6217C16.5652 13.5391 16.8 13.1478 17.3565 12.313C17.7913 11.6608 18.1782 11.1086 18.213 11.0869C18.2521 11.0652 18.3565 11.0434 18.4435 11.0434C18.5652 11.0434 18.6217 11.0695 18.6913 11.1565Z" fill="white"/>
<path d="M17.8479 12.9216C17.7522 13.0695 17.6696 13.2043 17.6609 13.226C17.6522 13.2434 17.7348 13.2608 17.8435 13.2608H18.0435V12.9564C18.0435 12.7869 18.0392 12.6521 18.0348 12.6521C18.0261 12.6521 17.9435 12.7738 17.8479 12.9216Z" fill="white"/>
<path d="M6.80452 16.9869C6.01756 18.0348 5.3306 18.9522 5.27842 19.0261L5.17407 19.1565L8.0567 20.0783C9.63932 20.587 10.9654 21 11.0002 21C11.035 21 12.3611 20.587 13.9437 20.0783L16.8263 19.1609L16.7263 19.0261C16.6698 18.9522 15.9828 18.0348 15.1959 16.9869L13.7741 15.0869H11.0002H8.22627L6.80452 16.9869ZM11.9785 16.3174C12.0698 16.3913 12.0959 16.4565 12.0959 16.5869C12.0959 16.7174 12.0698 16.7826 11.9785 16.8565C11.8785 16.9478 11.8219 16.9565 11.4306 16.9565H11.0002V17.1521C11.0002 17.3435 11.0045 17.3478 11.1437 17.3478C11.4567 17.3522 11.8741 17.6695 12.0263 18.0217C12.0698 18.1217 12.1002 18.3043 12.1002 18.4609C12.0959 19.3478 11.0698 19.8652 10.348 19.3435C9.93932 19.0478 9.88715 18.613 10.2437 18.4739C10.3785 18.4261 10.6263 18.5174 10.6915 18.6435C10.7654 18.7826 10.9741 18.8478 11.1306 18.7826C11.2915 18.7174 11.348 18.6217 11.348 18.4217C11.348 18.1913 11.2306 18.113 10.8132 18.0826C10.5045 18.0609 10.4524 18.0435 10.3611 17.9391C10.2654 17.8261 10.2611 17.7913 10.2611 17.1739C10.2611 16.4913 10.2915 16.3434 10.4524 16.2695C10.5002 16.2434 10.8393 16.2217 11.2045 16.2217C11.8306 16.2174 11.8698 16.2217 11.9785 16.3174Z" fill="white"/>
</svg>
