<svg width="22" height="22" viewBox="0 0 22 22" fill="none" xmlns="http://www.w3.org/2000/svg">
<path d="M13.7536 10.5L17.7918 5.4625C18.0349 5.15298 18.0651 4.832 17.8824 4.49957C17.6997 4.16714 17.3916 4.00062 16.9581 4C16.7844 4 16.6194 4.03498 16.4631 4.10493C16.3068 4.17488 16.1852 4.27145 16.0983 4.39464L11.2005 10.5L16.0983 16.6054C16.1852 16.7292 16.3068 16.826 16.4631 16.896C16.6194 16.9659 16.7844 17.0006 16.9581 17C17.3749 17 17.6789 16.8338 17.8699 16.5013C18.061 16.1689 18.0349 15.8476 17.7918 15.5375L13.7536 10.5ZM7.55314 10.5L11.5913 5.4625C11.8344 5.15298 11.865 4.832 11.683 4.49957C11.501 4.16714 11.1921 4.00062 10.7565 4C10.5829 4 10.4179 4.03498 10.2616 4.10493C10.1052 4.17488 9.98366 4.27145 9.89682 4.39464L5 10.5L9.89786 16.6054C9.9847 16.7292 10.1063 16.826 10.2626 16.896C10.4189 16.9659 10.5839 17.0006 10.7576 17C11.1744 17 11.4784 16.8338 11.6694 16.5013C11.8605 16.1689 11.8344 15.8476 11.5913 15.5375L7.55314 10.5Z" fill="white"/>
</svg>
