<svg width="22" height="22" viewBox="0 0 22 22" fill="none" xmlns="http://www.w3.org/2000/svg">
<path d="M3.22222 1H18.7778C19.3671 1 19.9324 1.23413 20.3491 1.65087C20.7659 2.06762 21 2.63285 21 3.22222V18.7778C21 20.0111 20.0111 21 18.7778 21H3.22222C2.63285 21 2.06762 20.7659 1.65087 20.3491C1.23413 19.9324 1 19.3671 1 18.7778V3.22222C1 2 2 1 3.22222 1ZM6.55556 16.5556H15.4444V14.3333H6.55556V16.5556ZM15.4444 8.77778H12.6667V5.44444H9.33333V8.77778H6.55556L11 13.2222L15.4444 8.77778Z" fill="white"/>
</svg>
