<svg width="22" height="22" viewBox="0 0 22 22" fill="none" xmlns="http://www.w3.org/2000/svg">
<path d="M19.1565 4.15937C19.1565 2.84375 19.8921 1.68828 21 1.03359C20.7464 1.01094 20.4653 1 20.2059 1C17.7824 1 15.6293 1.98047 14.1272 3.53906C14.6209 4.27656 14.9138 5.19609 14.9138 6.19141C14.9138 7.50703 14.4025 8.68672 13.5933 9.49375C12.7992 8.49219 11.4151 7.84844 10.7649 7.45703C10.5515 7.32813 10.3749 7.11562 10.3749 6.86406C10.3749 6.51953 10.6753 6.23906 11.0444 6.23906C11.3439 6.23906 11.5238 6.46563 11.6962 6.67578C11.8594 6.87422 12.2669 7.31641 12.4636 7.52969C12.5582 7.63203 12.7113 7.66875 12.8469 7.62109L13.2167 7.49219L12.9213 7.37422C12.9213 7.37422 12.6285 6.77344 12.523 6.52813L13.477 6.97422L13.4293 7.35156L13.9054 6.91328C14.0033 6.82266 14.0025 6.675 13.9029 6.58672L13.5205 6.24531C13.2561 5.95391 13.2243 5.52188 13.0176 5.08672C12.7188 4.45391 12.3088 4.08281 12.3088 4.08281C12.3088 4.54453 12.1431 4.85234 12.1431 4.85234C12.1431 4.85234 11.5551 4.56 10.7885 4.64633C10.0844 4.65047 9.42812 4.25523 9.15682 3.62648V3.62664L9.15674 3.62641C9.15674 3.62641 8.94795 4.48078 9.73841 5.01805C9.72636 5.02562 9.71439 5.0332 9.70243 5.04109C9.2108 5.19141 8.6569 5.04945 8.32 4.66391C8.32 4.66391 8.24184 5.2218 8.62293 5.55617C8.73983 5.65875 8.86812 5.70289 8.98996 5.71523C8.76293 6.0257 8.60444 6.39102 8.5959 6.77656C8.57163 7.83828 8.9282 8.24813 9.70218 9.00234C9.83339 9.13016 9.88711 9.29219 9.88711 9.41953C9.88711 9.74531 9.6051 10.0094 9.25615 10.0094C9.07875 10.0094 8.87314 9.9193 8.74151 9.81109C7.83724 9.06742 7.09372 7.70391 7.09372 6.19141C7.09372 5.19844 7.38494 4.28125 7.87782 3.54453C6.37573 1.98281 4.22176 1 1.79582 1C1.5364 1 1.25356 1.01094 1 1.03359C2.10795 1.68828 2.84351 2.84375 2.84351 4.15937C2.84351 5.29844 2.29038 6.31797 1.42259 6.99688C3.15063 7.27188 4.46695 8.67656 4.46695 10.3687C4.46695 10.5609 4.44854 10.7492 4.4159 10.9328C4.54812 10.9234 4.68285 10.9219 4.81841 10.9188C6.7841 10.8758 9.01339 11.7219 9.37155 13.6258C9.62268 14.9604 10.0955 16.3483 10.9652 17.6609C11.5415 18.5307 11.7223 19.2601 10.9992 19.7983C10.4135 20.2342 9.17146 20.2428 8.63481 18.2409C9.04519 18.2577 9.42318 18.3952 9.72603 18.6188L8.47983 16.394L7.32109 18.6596C7.60745 18.432 7.9682 18.2827 8.36519 18.2468C8.37247 18.9362 8.49757 19.7948 8.99665 20.267C9.47172 20.7166 10.1088 21 10.7498 21C11.4192 21 12.0357 20.7525 12.5473 20.3008C13.1739 19.7475 13.7923 18.8385 13.0507 16.9779C12.4566 15.4873 12.3577 14.5126 12.7 13.4245C13.1983 11.8406 15.2211 10.9188 17.1816 10.9188C17.3172 10.9188 17.451 10.9234 17.5841 10.9328C17.5515 10.7484 17.5331 10.5609 17.5331 10.3687C17.5331 8.67656 18.8494 7.27188 20.5774 6.99688C19.7096 6.31797 19.1565 5.29844 19.1565 4.15937Z" fill="#9F0712"/>
</svg>
