<svg width="22" height="22" viewBox="0 0 22 22" fill="none" xmlns="http://www.w3.org/2000/svg">
<path d="M15.8704 1.22933C16.0521 1.24562 16.1315 1.46718 16.0009 1.59642L6.94969 10.6325C6.84744 10.7347 6.77422 10.8621 6.73755 11.0018L5.64966 15.1614C5.61374 15.2989 5.61447 15.4434 5.65176 15.5805C5.68905 15.7175 5.7616 15.8425 5.86222 15.943C5.96285 16.0434 6.08803 16.1159 6.22536 16.1531C6.36269 16.1903 6.50738 16.191 6.64508 16.1552L10.8106 15.0691C10.9506 15.0322 11.0783 14.9587 11.1805 14.8563L20.3601 5.69199C20.3888 5.66256 20.4254 5.64195 20.4655 5.63262C20.5056 5.62328 20.5475 5.62561 20.5863 5.63932C20.6251 5.65303 20.6591 5.67756 20.6844 5.70999C20.7097 5.74242 20.7251 5.7814 20.7289 5.82232C21.111 9.46024 21.0891 13.1292 20.6636 16.7623C20.421 18.8313 18.7555 20.4549 16.6907 20.6863C12.9088 21.1046 9.09214 21.1046 5.31024 20.6863C3.24433 20.4549 1.57877 18.8313 1.33617 16.7623C0.887942 12.9339 0.887942 9.06641 1.33617 5.23801C1.57877 3.16796 3.24433 1.54429 5.31024 1.31404C8.81815 0.925852 12.3567 0.897466 15.8704 1.22933Z" fill="white"/>
<path d="M17.3348 2.56866C17.3601 2.54337 17.3901 2.52331 17.4231 2.50963C17.4561 2.49594 17.4916 2.48889 17.5273 2.48889C17.5631 2.48889 17.5985 2.49594 17.6316 2.50963C17.6646 2.52331 17.6946 2.54337 17.7199 2.56866L19.2582 4.10545C19.309 4.15634 19.3375 4.22528 19.3375 4.29714C19.3375 4.369 19.309 4.43794 19.2582 4.48883L10.2363 13.4978C10.202 13.5319 10.1592 13.5563 10.1123 13.5684L8.03006 14.1114C7.98417 14.1234 7.93593 14.1231 7.89016 14.1107C7.84438 14.0983 7.80265 14.0742 7.76911 14.0407C7.73557 14.0072 7.71139 13.9655 7.69896 13.9198C7.68653 13.8741 7.68629 13.826 7.69826 13.7802L8.2422 11.7014C8.25431 11.6546 8.27872 11.6119 8.31291 11.5776L17.3348 2.56866Z" fill="white"/>
</svg>
