<svg width="25" height="25" viewBox="0 0 25 25" fill="none" xmlns="http://www.w3.org/2000/svg">
<path d="M15.9069 13.6015L18.8581 10.0194L19.9462 11.1074C20.288 11.4492 20.8617 11.4294 21.2279 11.0632L22.5537 9.73743C22.9198 9.3713 22.9396 8.79751 22.5979 8.4558L15.5858 1.44367C15.2441 1.10196 14.6703 1.12175 14.3041 1.48787L12.9783 2.81369C12.6122 3.17981 12.5924 3.75361 12.9341 4.09532L14.0222 5.18341L10.4401 8.13469C8.56665 7.50713 6.48377 7.65832 5.08229 9.0598C4.71617 9.42592 4.69639 9.99971 5.0381 10.3414L8.54416 13.8475L5.67135 16.7203C5.63705 16.7546 5.61066 16.7959 5.59431 16.8409L4.8872 18.7855C4.80055 19.0237 5.01739 19.2412 5.25613 19.1544L7.20067 18.4473C7.24568 18.4309 7.28697 18.4045 7.32129 18.3702L10.1941 15.4974L13.7002 19.0035C14.0419 19.3452 14.6157 19.3254 14.9818 18.9593C16.3955 17.5455 16.5277 15.455 15.9069 13.6015Z" fill="white"/>
</svg>
