<svg width="22" height="22" viewBox="0 0 22 22" fill="none" xmlns="http://www.w3.org/2000/svg">
<path d="M12.25 2.00001C12.0857 1.99934 11.9228 2.03146 11.7709 2.09451C11.6189 2.15756 11.4808 2.25029 11.3646 2.36735C11.2484 2.48442 11.1564 2.6235 11.0938 2.77658C11.0312 2.92967 10.9993 3.09371 11 3.25927V6.48171C5.375 7.10882 1 11.9079 1 17.7407V19C3.80625 14.6896 7.5625 14.0637 11 13.9768V17.1111C10.9995 17.3604 11.0724 17.6042 11.2097 17.8117C11.3469 18.0191 11.5423 18.1808 11.7709 18.2761C11.9995 18.3715 12.2511 18.3963 12.4938 18.3474C12.7364 18.2985 12.9592 18.1781 13.1337 18.0014L21 10.1852L13.1337 2.36771C12.8992 2.132 12.5813 1.99975 12.25 2.00001Z" fill="white"/>
</svg>
