<svg width="22" height="22" viewBox="0 0 22 22" fill="none" xmlns="http://www.w3.org/2000/svg">
<path d="M20.4634 10.0465C19.5796 5.96084 18.2496 3.78019 16.2765 3.18454C15.8618 3.06013 15.4316 2.99798 14.9994 3.00005C14.4281 3.00005 13.9306 3.14236 13.4043 3.29319C12.7701 3.47512 12.0496 3.68177 10.9991 3.68177C9.94866 3.68177 9.22779 3.47555 8.59234 3.29362C8.06564 3.14236 7.56853 3.00005 6.99891 3.00005C6.55198 2.99844 6.107 3.06039 5.67675 3.18411C3.71414 3.77721 2.3849 5.95701 1.48818 10.0439C0.523956 14.4419 0.998566 17.2186 2.81909 17.8628C3.06863 17.9528 3.3312 17.9991 3.5958 18C4.84295 18 5.84301 16.9378 6.52638 16.0682C7.29851 15.0839 8.20231 14.5846 10.9991 14.5846C13.4972 14.5846 14.531 14.931 15.424 16.0682C15.9853 16.7831 16.5157 17.2833 17.0449 17.5982C17.7487 18.0166 18.4521 18.1095 19.135 17.8696C20.2109 17.4942 20.8276 16.5019 20.9685 14.9195C21.0756 13.706 20.9105 12.1121 20.4634 10.0465ZM8.99903 9.81724H7.66562V11.1807C7.66562 11.3615 7.59537 11.5349 7.47034 11.6627C7.34531 11.7906 7.17573 11.8624 6.99891 11.8624C6.82209 11.8624 6.65251 11.7906 6.52748 11.6627C6.40245 11.5349 6.33221 11.3615 6.33221 11.1807V9.81724H4.9988C4.82198 9.81724 4.6524 9.74542 4.52737 9.61757C4.40233 9.48972 4.33209 9.31633 4.33209 9.13552C4.33209 8.95472 4.40233 8.78132 4.52737 8.65347C4.6524 8.52563 4.82198 8.4538 4.9988 8.4538H6.33221V7.09036C6.33221 6.90956 6.40245 6.73616 6.52748 6.60832C6.65251 6.48047 6.82209 6.40865 6.99891 6.40865C7.17573 6.40865 7.34531 6.48047 7.47034 6.60832C7.59537 6.73616 7.66562 6.90956 7.66562 7.09036V8.4538H8.99903C9.17585 8.4538 9.34543 8.52563 9.47046 8.65347C9.59549 8.78132 9.66573 8.95472 9.66573 9.13552C9.66573 9.31633 9.59549 9.48972 9.47046 9.61757C9.34543 9.74542 9.17585 9.81724 8.99903 9.81724ZM12.4992 9.98767C12.3344 9.98767 12.1733 9.93769 12.0362 9.84406C11.8992 9.75042 11.7924 9.61734 11.7293 9.46163C11.6662 9.30592 11.6497 9.13458 11.6819 8.96928C11.714 8.80398 11.7934 8.65214 11.9099 8.53296C12.0265 8.41379 12.175 8.33263 12.3366 8.29975C12.4983 8.26687 12.6659 8.28374 12.8181 8.34824C12.9704 8.41274 13.1006 8.52196 13.1922 8.66209C13.2837 8.80223 13.3326 8.96698 13.3326 9.13552C13.3326 9.36153 13.2448 9.57827 13.0885 9.73808C12.9322 9.89789 12.7203 9.98767 12.4992 9.98767ZM14.3327 11.8624C14.1678 11.8624 14.0065 11.8124 13.8694 11.7186C13.7324 11.6249 13.6255 11.4917 13.5625 11.3359C13.4995 11.18 13.4831 11.0086 13.5155 10.8432C13.5478 10.6779 13.6274 10.526 13.7441 10.4069C13.8609 10.2878 14.0096 10.2069 14.1714 10.1742C14.3332 10.1416 14.5008 10.1588 14.653 10.2236C14.8053 10.2884 14.9353 10.398 15.0266 10.5384C15.1179 10.6788 15.1665 10.8438 15.166 11.0124C15.1655 11.238 15.0775 11.4542 14.9212 11.6136C14.765 11.7729 14.5533 11.8624 14.3327 11.8624ZM14.3327 8.11294C14.1678 8.11294 14.0067 8.06297 13.8697 7.96933C13.7326 7.87569 13.6258 7.74261 13.5627 7.5869C13.4996 7.43119 13.4831 7.25985 13.5153 7.09455C13.5475 6.92925 13.6268 6.77741 13.7434 6.65823C13.8599 6.53906 14.0084 6.4579 14.1701 6.42502C14.3317 6.39214 14.4993 6.40901 14.6516 6.47351C14.8039 6.53801 14.934 6.64723 15.0256 6.78737C15.1172 6.9275 15.166 7.09226 15.166 7.26079C15.166 7.4868 15.0782 7.70355 14.922 7.86335C14.7657 8.02316 14.5537 8.11294 14.3327 8.11294ZM16.1661 9.98767C16.0013 9.98767 15.8402 9.93769 15.7031 9.84406C15.5661 9.75042 15.4592 9.61734 15.3962 9.46163C15.3331 9.30592 15.3166 9.13458 15.3487 8.96928C15.3809 8.80398 15.4603 8.65214 15.5768 8.53296C15.6934 8.41379 15.8419 8.33263 16.0035 8.29975C16.1652 8.26687 16.3327 8.28374 16.485 8.34824C16.6373 8.41274 16.7675 8.52196 16.859 8.66209C16.9506 8.80223 16.9995 8.96698 16.9995 9.13552C16.9995 9.36153 16.9117 9.57827 16.7554 9.73808C16.5991 9.89789 16.3871 9.98767 16.1661 9.98767Z" fill="white"/>
</svg>
