<svg width="22" height="22" viewBox="0 0 22 22" fill="none" xmlns="http://www.w3.org/2000/svg">
<path d="M4.65186 4L18.2588 17.607M9.18945 8.64322C8.93685 8.89574 8.73647 9.19553 8.59974 9.52549C8.46301 9.85545 8.39261 10.2091 8.39255 10.5663C8.3925 10.9234 8.4628 11.2771 8.59943 11.6071C8.73606 11.9371 8.93635 12.237 9.18886 12.4896C9.44138 12.7421 9.74117 12.9425 10.0711 13.0793C10.4011 13.216 10.7547 13.2864 11.1119 13.2864C11.4691 13.2865 11.8228 13.2162 12.1528 13.0796C12.4827 12.9429 12.7826 12.7426 13.0352 12.4901" stroke="white" stroke-width="2" stroke-linecap="round" stroke-linejoin="round"/>
<path d="M11.8744 5.16083C16.5176 9.9979 20 10.0014 20 10.5818C20 11.1622 18.8392 12.323 18.8392 12.323M6.35125 7.26189C5.59827 7.74788 4.88631 8.37278 4.21536 9.13659C3.40512 10.0583 3 10.5191 3 11.3944C3 12.2696 3.40628 12.7304 4.21536 13.6521C6.06569 15.7586 8.23175 16.8118 10.7136 16.8118C12.002 16.8118 13.2058 16.5274 14.3248 15.9586" stroke="white" stroke-width="2" stroke-linecap="round" stroke-linejoin="round"/>
</svg>
