<svg width="22" height="22" viewBox="0 0 22 22" fill="none" xmlns="http://www.w3.org/2000/svg">
<path fill-rule="evenodd" clip-rule="evenodd" d="M10.7527 1.32532C10.9509 1.11702 11.2197 1 11.5 1C11.7803 1 12.0491 1.11702 12.2473 1.32532L18.5893 7.99207L20.7033 10.2143C20.8958 10.4239 21.0024 10.7045 21 10.9959C20.9976 11.2872 20.8864 11.5659 20.6904 11.7719C20.4944 11.9779 20.2293 12.0948 19.9522 12.0973C19.675 12.0998 19.408 11.9878 19.2087 11.7854L18.899 11.4599V18.7778C18.899 19.3671 18.6763 19.9324 18.2798 20.3491C17.8834 20.7659 17.3457 21 16.785 21H13.614C13.3337 21 13.0648 20.8829 12.8666 20.6746C12.6684 20.4662 12.557 20.1836 12.557 19.8889V16.5555H10.443V19.8889C10.443 20.1836 10.3316 20.4662 10.1334 20.6746C9.93519 20.8829 9.66634 21 9.386 21H6.21501C5.65434 21 5.11664 20.7659 4.72018 20.3491C4.32373 19.9324 4.10101 19.3671 4.10101 18.7778V11.4599L3.79131 11.7854C3.59196 11.9878 3.32496 12.0998 3.04781 12.0973C2.77067 12.0948 2.50556 11.9779 2.30959 11.7719C2.11361 11.5659 2.00245 11.2872 2.00004 10.9959C1.99763 10.7045 2.10417 10.4239 2.29671 10.2143L4.41071 7.99207L10.7527 1.32532Z" fill="white"/>
</svg>
