<svg width="15" height="15" viewBox="0 0 15 15" fill="none" xmlns="http://www.w3.org/2000/svg">
<path d="M5.61516 0.0003125C5.39703 0.00303125 5.15766 0.0245 4.90109 0.0596875C5.76266 0.699313 6.49791 1.47375 7.01341 2.26366C7.06528 2.26366 7.11691 2.26403 7.16834 2.26513C7.73291 2.27731 8.27731 2.35594 8.83138 2.49012C8.34091 1.60084 7.89591 0.921687 7.34856 0.5145C6.91678 0.193312 6.40909 0.00925 5.70731 0.0003125C5.6771 -0.000104167 5.64636 -0.000104167 5.61516 0.0003125ZM2.75078 0.717812C2.72799 0.717771 2.70513 0.718 2.68219 0.7185C2.24328 0.728187 1.76469 0.841 1.21781 1.06631C2.97344 1.65403 4.56109 2.64344 5.40241 3.67834C5.97669 3.51803 6.32241 3.21834 6.54159 2.77781C5.45556 1.8595 4.58925 1.17231 3.73087 0.883875C3.41312 0.777062 3.09234 0.718094 2.75078 0.717812ZM2.74444 2.36737C1.51256 2.57856 0.409125 3.36281 0 4.68581V14.7591H6.64781C2.47156 13.247 1.24775 5.86919 5.18291 6.60713C5.36534 6.1645 5.49291 5.73128 5.52722 5.31134L6.10931 5.35891C6.05669 6.00241 5.83344 6.62422 5.54578 7.23213C5.52291 7.29572 5.49978 7.36087 5.47747 7.42159C6.50378 10.0853 9.03278 12.4432 10.7742 12.6778C10.8028 12.6788 10.8337 12.6777 10.8665 12.6749C11.3982 12.7073 11.9871 12.543 12.498 11.9779L12.7475 11.702L12.4202 11.5252C12.2169 11.4153 11.9737 11.3035 11.8525 11.1838C11.792 11.1239 11.7653 11.0753 11.7565 11.0215C11.7477 10.9676 11.7524 10.8894 11.8262 10.7534L12.1597 10.1392L11.4883 10.3336C11.2913 10.3906 10.9475 10.2388 10.7626 9.99891C10.6701 9.87891 10.6248 9.75181 10.6255 9.66006C10.6261 9.56825 10.648 9.49991 10.7738 9.4085L11.3817 8.96709L10.6353 8.88209C10.3237 8.84656 10.1238 8.67403 10.0363 8.49791C9.94872 8.32184 9.96403 8.18278 10.0793 8.08197L10.4606 7.74831L9.98069 7.58566C9.77078 7.51453 9.65894 7.34956 9.65703 7.25338C9.65616 7.21047 9.66447 7.17006 9.71463 7.1135C10.0562 7.03881 10.3789 7.09944 10.5924 7.31269C10.7847 7.50475 10.8533 7.78544 10.8104 8.08869C11.0776 8.01825 11.3412 8.03819 11.5639 8.16663C11.8558 8.33497 12.0216 8.657 12.0536 9.04053C12.529 8.72391 13.0583 8.64287 13.468 8.87916C13.9514 9.15791 14.1355 9.80144 13.9932 10.4963C14.7429 9.454 15.0741 8.13019 14.1687 6.73291C12.7085 6.59409 11.6158 5.77428 11.2533 4.61916C11.0963 4.11866 10.5882 3.72322 9.94081 3.43466L9.93831 3.44144C9.00894 3.10322 8.20159 2.89925 7.35694 2.85603L7.35944 2.86087C7.28775 2.85797 7.21694 2.85587 7.14813 2.8555C6.85009 3.57031 6.25244 4.10238 5.35325 4.29469L5.16869 4.33413L5.05694 4.18213C4.61269 3.57806 3.7685 2.918 2.74437 2.36731L2.74444 2.36737ZM7.62616 4.40675C8.49888 4.40447 9.02847 4.76978 8.94147 5.79581C7.82134 5.90175 7.31856 5.27447 6.97041 4.46356C7.205 4.42747 7.42472 4.40731 7.62613 4.40678L7.62616 4.40675ZM9.13888 6.48059C9.25475 6.48278 9.362 6.51166 9.45181 6.56847C9.40566 6.60193 9.36219 6.63895 9.32181 6.67919C9.15788 6.84294 9.06909 7.058 9.07319 7.26487C9.07891 7.55619 9.23788 7.80188 9.46944 7.96988C9.37131 8.22309 9.39281 8.51534 9.51341 8.758C9.63256 8.99763 9.84278 9.20403 10.1166 9.33294C10.0714 9.43812 10.0424 9.54738 10.0416 9.65575C10.0397 9.91847 10.1472 10.1571 10.3001 10.3554C10.5124 10.6307 10.8271 10.8534 11.1759 10.9151C11.1702 10.9832 11.1696 11.0505 11.1801 11.1153C11.2129 11.3167 11.3212 11.4797 11.442 11.5991C11.5485 11.7044 11.6667 11.7832 11.7794 11.8489C11.5811 11.9986 11.3915 12.0694 11.1976 12.0923C10.994 11.8443 10.8942 11.4959 10.9035 11.1094C10.5358 11.3024 10.147 11.333 9.83728 11.1544C9.37891 10.89 9.23125 10.247 9.42519 9.58156C9.07094 9.66813 8.73363 9.61031 8.51309 9.38994C8.23575 9.11291 8.21513 8.65163 8.41641 8.204C8.30153 8.18478 8.19881 8.13631 8.11875 8.05634C7.8435 7.78141 7.93834 7.24103 8.3305 6.84928C8.57559 6.60444 8.87881 6.47562 9.13894 6.48053L9.13888 6.48059Z" fill="white"/>
</svg>
