<svg width="22" height="22" viewBox="0 0 22 22" fill="none" xmlns="http://www.w3.org/2000/svg">
<path d="M21.0001 16.9998V4.77777L17.6668 6.99997L11.0002 8.11106L3.22256 6.99997L1.00037 4.77777V16.9998L7.66695 9.77771L12.1113 13.6665L16.0002 11.4444L19.3335 16.4443L21.0001 16.9998Z" fill="white"/>
<path d="M1.00037 15.8887L4.3781 11.9488C5.71253 10.391 6.3803 9.61216 7.20807 9.49327C7.47584 9.45438 7.75028 9.46549 8.01472 9.52549C8.82916 9.70993 9.43359 10.5399 10.6402 12.1988L10.9847 12.6743C11.2647 13.0577 11.4036 13.2499 11.5591 13.3566C11.7309 13.4755 11.9327 13.5436 12.1414 13.553C12.3502 13.5624 12.5573 13.5128 12.7391 13.4099C12.9036 13.3166 13.0591 13.1388 13.3724 12.7821C14.0191 12.041 14.3435 11.671 14.6813 11.4832C15.0548 11.2756 15.4803 11.18 15.9068 11.208C16.3332 11.2359 16.7426 11.3863 17.0857 11.641C17.3968 11.871 17.669 12.281 18.2146 13.0988L20.4446 16.4443" stroke="white" stroke-width="2"/>
<path d="M5.44476 7.55549V2M16.5557 7.55549V2M1.00037 15.8887V4.77774M21.0001 4.77774V15.8887M16.578 2.01111C18.3579 2.41 19.7057 2.98888 20.4235 3.6622C21.1412 4.33553 21.1901 5.06885 20.5635 5.75218C19.9357 6.4355 18.6668 7.03438 16.9413 7.45882C15.2158 7.88326 13.1269 8.11215 10.9825 8.11103C8.83805 8.10992 6.75141 7.8777 5.03143 7.45215C3.31034 7.02549 2.04703 6.4255 1.42703 5.74106C0.807042 5.05663 0.863708 4.32442 1.58814 3.6522C2.31369 2.97888 3.66812 2.40111 5.45254 2.00444" stroke="white" stroke-width="2" stroke-linecap="round"/>
<path d="M21.0001 15.8887C21.0001 16.7732 19.9468 17.6209 18.0713 18.2454C16.1957 18.8698 13.6524 19.222 11.0002 19.222C8.34805 19.222 5.80475 18.8709 3.92922 18.2454C2.05369 17.6198 1.00037 16.7732 1.00037 15.8887" stroke="white" stroke-width="2"/>
</svg>
