<svg width="22" height="22" viewBox="0 0 22 22" fill="none" xmlns="http://www.w3.org/2000/svg">
<path d="M2 15.7073L4.76367 12.9437C5.44475 12.2631 5.92673 11.7815 6.32812 11.4583C6.67744 11.177 6.91666 11.0577 7.11621 11.0198L7.19922 11.0081C7.47452 10.9848 7.75106 11.0386 7.99805 11.1624C8.19243 11.26 8.38863 11.4564 8.63965 11.9026C8.76599 12.1273 8.89569 12.3965 9.04199 12.72L9.54004 13.8636L9.59277 13.9876L9.59375 13.9886C9.75319 14.3596 9.88664 14.671 10.0156 14.9075C10.1453 15.1453 10.304 15.3727 10.5479 15.5237V15.5247C10.8608 15.718 11.2344 15.7897 11.5967 15.7259L11.5957 15.7249C11.8788 15.6757 12.1113 15.5246 12.3203 15.3519C12.5277 15.1804 12.7662 14.9411 13.0508 14.6566L13.165 14.5433L13.167 14.5413C13.5319 14.1754 13.7873 13.9207 14.001 13.7366C14.2108 13.5559 14.3517 13.4699 14.4775 13.4232C14.8147 13.2978 15.1853 13.2978 15.5225 13.4232C15.6481 13.4699 15.789 13.5558 15.999 13.7366C16.2128 13.9208 16.4681 14.1754 16.834 14.5413L17.5869 15.2933C17.9695 15.6757 18.4231 15.9798 18.9229 16.1868C19.4032 16.3857 19.9171 16.4904 20.4365 16.4984C20.4168 16.7938 20.3916 17.0673 20.3574 17.3216C20.2183 18.3552 19.9519 18.9972 19.4746 19.4749C18.9975 19.9524 18.3561 20.2187 17.3223 20.3577C16.2741 20.4987 14.8996 20.5003 13 20.5003H9C7.10044 20.5003 5.72577 20.4988 4.67773 20.3577C3.64427 20.2186 3.00305 19.9512 2.52539 19.4739C2.04804 18.9969 1.78063 18.3561 1.6416 17.3226C1.50063 16.2744 1.5 14.8998 1.5 13.0003V9.00031C1.5 7.10092 1.50068 5.72616 1.6416 4.67804C1.71753 4.11347 1.83434 3.6667 2 3.29913V15.7073Z" fill="white" stroke="white"/>
<mask id="mask0_1394_55" style="mask-type:luminance" maskUnits="userSpaceOnUse" x="1" y="1" width="20" height="20">
<path d="M9 1.5H13C14.8996 1.5 16.2741 1.50065 17.3223 1.6416C18.3561 1.78064 18.9975 2.0479 19.4746 2.52539C19.9518 3.00303 20.2183 3.64441 20.3574 4.67773C20.4985 5.72577 20.5 7.10044 20.5 9V13C20.5 14.8996 20.4994 16.2741 20.3584 17.3223C20.2194 18.3561 19.9521 18.9975 19.4746 19.4746C18.997 19.9518 18.3556 20.2183 17.3223 20.3574C16.2742 20.4985 14.8996 20.5 13 20.5H9C7.10045 20.5 5.72589 20.4994 4.67773 20.3584C3.64394 20.2194 3.00248 19.9521 2.52539 19.4746C2.04824 18.997 1.78173 18.3556 1.64258 17.3223C1.50149 16.2742 1.5 14.8996 1.5 13V9C1.5 7.10045 1.50065 5.72589 1.6416 4.67773C1.78064 3.64394 2.0479 3.00248 2.52539 2.52539C3.00303 2.04824 3.64441 1.78173 4.67773 1.64258C5.72577 1.50149 7.10044 1.5 9 1.5Z" fill="white" stroke="white"/>
</mask>
<g mask="url(#mask0_1394_55)">
<path d="M1 9C1 5.229 1 3.343 2.172 2.172C3.344 1.001 5.229 1 9 1H13C16.771 1 18.657 1 19.828 2.172C20.999 3.344 21 5.229 21 9V13C21 16.771 21 18.657 19.828 19.828C18.656 20.999 16.771 21 13 21H9C5.229 21 3.343 21 2.172 19.828C1.001 18.656 1 16.771 1 13V9Z" stroke="white" stroke-width="4"/>
</g>
<path d="M14 6.5C14.8284 6.5 15.5 7.17157 15.5 8C15.5 8.82843 14.8284 9.5 14 9.5C13.1716 9.5 12.5 8.82843 12.5 8C12.5 7.17157 13.1716 6.5 14 6.5Z" fill="white" stroke="white"/>
</svg>
