<svg width="22" height="22" viewBox="0 0 22 22" fill="none" xmlns="http://www.w3.org/2000/svg">
<path d="M11 3C15.4184 3 19 6.5816 19 11C19 15.4184 15.4184 19 11 19C6.5816 19 3 15.4184 3 11C3 6.5816 6.5816 3 11 3ZM11 14.2C10.7878 14.2 10.5843 14.2843 10.4343 14.4343C10.2843 14.5843 10.2 14.7878 10.2 15C10.2 15.2122 10.2843 15.4157 10.4343 15.5657C10.5843 15.7157 10.7878 15.8 11 15.8C11.2122 15.8 11.4157 15.7157 11.5657 15.5657C11.7157 15.4157 11.8 15.2122 11.8 15C11.8 14.7878 11.7157 14.5843 11.5657 14.4343C11.4157 14.2843 11.2122 14.2 11 14.2ZM11 6.6C10.2309 6.6 9.49325 6.90553 8.94939 7.44939C8.40554 7.99325 8.1 8.73087 8.1 9.5C8.1 9.71217 8.18429 9.91566 8.33431 10.0657C8.48434 10.2157 8.68783 10.3 8.9 10.3C9.11217 10.3 9.31566 10.2157 9.46569 10.0657C9.61571 9.91566 9.7 9.71217 9.7 9.5C9.70026 9.26403 9.76475 9.03258 9.88655 8.83047C10.0083 8.62836 10.1829 8.46321 10.3914 8.35274C10.5999 8.24226 10.8345 8.19062 11.0702 8.20335C11.3058 8.21609 11.5335 8.29271 11.7289 8.42502C11.9243 8.55732 12.08 8.74032 12.1793 8.95438C12.2786 9.16843 12.3178 9.40548 12.2926 9.64011C12.2674 9.87474 12.1789 10.0981 12.0364 10.2862C11.894 10.4743 11.703 10.6201 11.484 10.708C10.9432 10.924 10.2 11.4776 10.2 12.4V12.6C10.2 12.8122 10.2843 13.0157 10.4343 13.1657C10.5843 13.3157 10.7878 13.4 11 13.4C11.2122 13.4 11.4157 13.3157 11.5657 13.1657C11.7157 13.0157 11.8 12.8122 11.8 12.6C11.8 12.4048 11.84 12.3072 12.0088 12.224L12.0784 12.192C12.7031 11.9407 13.2208 11.48 13.543 10.8887C13.8651 10.2975 13.9716 9.61263 13.8441 8.95151C13.7166 8.29039 13.3631 7.69421 12.8442 7.26518C12.3253 6.83614 11.6733 6.60098 11 6.6Z" fill="#9F0712"/>
</svg>
