<svg width="22" height="22" viewBox="0 0 22 22" fill="none" xmlns="http://www.w3.org/2000/svg">
<path d="M19.1927 7H13.5206L14.6556 3.633C14.8598 3.025 14.7567 2.351 14.3777 1.831C13.9987 1.311 13.3841 1 12.7363 1H11.107C10.8069 1 10.5228 1.132 10.3298 1.36L5.5795 7H3.02141C1.9066 7 1 7.897 1 9V18C1 19.103 1.9066 20 3.02141 20H16.4708C16.8821 19.9986 17.2832 19.8738 17.6212 19.6421C17.9592 19.4103 18.2182 19.0825 18.3639 18.702L21.1504 11.351C21.1927 11.2387 21.2143 11.1198 21.2141 11V9C21.2141 7.897 20.3075 7 19.1927 7ZM3.02141 9H5.04281V18H3.02141V9ZM19.1927 10.819L16.4708 18H7.06422V8.362L11.58 3H12.7383L11.1596 7.683C11.1083 7.83332 11.094 7.99355 11.1179 8.15043C11.1417 8.3073 11.203 8.45629 11.2967 8.58504C11.3904 8.71379 11.5137 8.8186 11.6565 8.89076C11.7993 8.96293 11.9574 9.00037 12.1177 9H19.1927V10.819Z" fill="white"/>
</svg>
