<svg width="22" height="22" viewBox="0 0 22 22" fill="none" xmlns="http://www.w3.org/2000/svg">
<path d="M12.7363 1C13.3842 1.00001 13.9989 1.31107 14.3779 1.83105C14.7568 2.35101 14.8594 3.02489 14.6553 3.63281L13.5205 7H19.1924C20.3072 7 21.2139 7.897 21.2139 9V11C21.2141 11.1197 21.1926 11.2384 21.1504 11.3506L18.3643 18.7021C18.2186 19.0826 17.959 19.4098 17.6211 19.6416C17.2831 19.8734 16.8819 19.9986 16.4707 20H3.02148C1.90668 20 1 19.103 1 18V9C1 7.897 1.90668 7 3.02148 7H5.5791L10.3301 1.36035C10.5231 1.13235 10.8072 1 11.1074 1H12.7363ZM3.02148 9V18H5.04297V9H3.02148Z" fill="white"/>
</svg>
