<svg width="22" height="22" viewBox="0 0 22 22" fill="none" xmlns="http://www.w3.org/2000/svg">
<path fill-rule="evenodd" clip-rule="evenodd" d="M7.962 17.4691C5.019 15.2141 1 11.4891 1 7.9671C1 2.0831 6.5 -0.113903 11 4.4301C15.5 -0.113903 21 2.0831 21 7.9671C21 11.4891 16.98 15.2141 14.038 17.4691C12.706 18.4891 12.04 19.0001 11 19.0001C9.96 19.0001 9.294 18.4901 7.962 17.4691ZM15.5 5.2501C15.6989 5.2501 15.8897 5.32912 16.0303 5.46977C16.171 5.61042 16.25 5.80119 16.25 6.0001V7.2501H17.5C17.6989 7.2501 17.8897 7.32912 18.0303 7.46977C18.171 7.61042 18.25 7.80119 18.25 8.0001C18.25 8.19901 18.171 8.38978 18.0303 8.53043C17.8897 8.67108 17.6989 8.7501 17.5 8.7501H16.25V10.0001C16.25 10.199 16.171 10.3898 16.0303 10.5304C15.8897 10.6711 15.6989 10.7501 15.5 10.7501C15.3011 10.7501 15.1103 10.6711 14.9697 10.5304C14.829 10.3898 14.75 10.199 14.75 10.0001V8.7501H13.5C13.3011 8.7501 13.1103 8.67108 12.9697 8.53043C12.829 8.38978 12.75 8.19901 12.75 8.0001C12.75 7.80119 12.829 7.61042 12.9697 7.46977C13.1103 7.32912 13.3011 7.2501 13.5 7.2501H14.75V6.0001C14.75 5.80119 14.829 5.61042 14.9697 5.46977C15.1103 5.32912 15.3011 5.2501 15.5 5.2501Z" fill="white"/>
</svg>
