<svg width="95" height="103" viewBox="0 0 95 103" fill="none" xmlns="http://www.w3.org/2000/svg">
<path d="M53.0609 0.118548C52.9937 0.168939 53.1784 0.639251 53.464 1.14316C53.7663 1.68066 53.9511 2.21816 53.9175 2.48691L53.8671 2.94042H51.7675C49.4495 2.95722 48.5257 3.20917 47.9042 3.99863C47.4507 4.56972 47.6859 4.80488 48.8281 4.92245C49.987 5.04003 50.9277 5.49355 51.2468 6.08144C51.6331 6.77011 51.2972 7.05566 50.0542 7.05566C49.0296 7.05566 47.9042 7.44199 47.9042 7.79472C47.9042 7.8955 48.2066 8.14745 48.5761 8.36581C49.6175 8.9537 49.5335 9.27284 47.837 11.4228C44.7296 15.3701 44.4273 19.6029 46.8796 24.4068C47.7363 26.0697 49.1136 28.1189 51.1628 30.756C54.2702 34.7705 56.1011 37.2228 57.0417 38.6674C58.1503 40.3807 59.5949 43.3033 59.746 44.2103C59.8468 44.7814 59.83 44.8486 59.5277 44.8486C59.2757 44.8486 58.671 44.1264 57.3273 42.2787C51.146 33.7627 45.5359 29.3955 38.5988 27.699C34.4331 26.6744 29.0413 27.3463 24.2038 29.4795C22.205 30.3529 19.2488 31.999 18.7281 32.5197C17.7538 33.4939 18.4761 33.8131 21.1636 33.5947C23.8511 33.3764 25.8667 33.5947 27.6304 34.317C29.0581 34.8881 29.4613 35.2576 29.1757 35.7111C29.0749 35.8623 27.832 36.6685 26.4042 37.4916C21.5667 40.2967 19.5007 41.8084 18.5265 43.2865C17.6195 44.6471 17.8714 44.6975 19.3831 43.4881C21.382 41.8756 23.112 41.2205 28.5038 40.0783C32.8542 39.1713 33.3581 39.0873 33.7949 39.2217C34.3156 39.3896 34.2148 39.8767 33.2574 42.2619C32.216 44.8486 32.0648 46.0748 32.787 46.1588C33.0726 46.1756 33.8956 45.7725 35.273 44.9494C38.6827 42.8834 41.0511 42.1107 44.1249 42.1107C46.2917 42.1107 47.7027 42.3963 49.5335 43.2529C53.4976 45.0838 56.8906 49.1822 58.1839 53.7006C58.7214 55.5986 58.7214 58.1853 58.1671 59.4283C56.8906 62.267 53.6824 62.5693 48.8617 60.285C46.7956 59.3107 46.2413 59.8818 47.6859 61.5111C51.7507 66.0967 57.2097 66.4158 61.5265 62.351C65.6585 58.4709 67.3718 52.3568 66.5152 44.6471C66.3976 43.656 66.364 42.7826 66.4312 42.7154C66.6831 42.4803 67.0863 43.1521 67.6406 44.7814C68.6484 47.7545 68.8163 48.9135 68.7995 52.5752C68.7827 55.6826 68.7659 55.9514 68.262 57.7822C67.187 61.7967 65.7593 64.4338 62.9374 67.5412C60.6027 70.1111 59.3093 71.8244 58.5702 73.3193C57.2433 76.0068 57.1593 78.5264 58.3015 81.1971C59.1413 83.1287 61.7784 86.3033 62.1984 85.8834C62.3495 85.7322 62.148 85.1611 61.3753 83.5318C60.1492 80.9451 59.9476 80.206 60.0148 78.4928C60.1324 76.0908 61.4257 74.3271 64.7851 71.942C69.4714 68.633 72.562 63.6947 74.2921 56.7072C74.8296 54.5236 75.1152 53.9189 75.6191 53.9189C76.3413 53.9189 76.8116 55.4978 77.1308 58.874C77.3659 61.4607 77.5003 61.8807 77.6515 60.4697C77.7859 59.2603 77.5843 54.9435 77.2988 53.1463C77.2148 52.508 76.8116 50.6435 76.4421 49.0142C75.7199 45.9068 75.6863 45.1846 76.2909 45.1846C76.4757 45.1846 76.6269 45.0838 76.6269 44.9662C76.6101 44.5631 75.9718 43.3369 74.7792 41.4892C74.1242 40.4646 73.4523 39.2889 73.3011 38.8689C73.0324 38.1299 73.0324 38.0963 73.3515 37.8611C73.6538 37.626 73.6034 37.5588 72.2093 36.1982C70.4624 34.485 70.1265 34.0146 70.3952 33.6955C70.664 33.3764 69.9585 32.9564 66.3808 31.2096C62.8367 29.4795 60.6867 28.0685 58.9566 26.3553C57.2937 24.6924 56.7394 23.651 56.8402 22.3072C56.9074 21.4842 56.9913 21.2322 57.4113 20.8459C58.1503 20.1068 58.5702 20.0564 59.0238 20.5939C60.1156 21.9041 60.8042 22.5592 61.3417 22.8447C62.1984 23.2814 63.5925 23.651 65.0706 23.8357C66.8679 24.0541 67.9597 24.5916 69.5722 26.1033C71.1007 27.5478 71.7222 27.9174 72.5452 27.9174C73.0995 27.9174 73.6034 27.6486 73.6034 27.3631C73.6034 27.2791 73.1835 26.96 72.6796 26.624C71.5206 25.9017 71.487 25.5154 72.4109 24.1213C73.4523 22.5424 73.6874 21.9377 73.4355 21.3498C73.0995 20.5435 70.5464 18.6455 69.0683 18.1248C68.3796 17.8896 67.5734 17.5705 67.3046 17.4361C67.0191 17.285 66.3808 17.0498 65.8769 16.8986C64.7011 16.5459 64.4659 16.3947 64.5835 16.0588C64.7851 15.5381 65.8433 15.2525 67.2038 15.3197C68.2117 15.3701 68.7156 15.4877 69.5722 15.9076C70.7984 16.5123 71.2687 16.6299 74.3257 17.117C77.1812 17.5873 78.4074 17.5873 78.6425 17.117C78.8945 16.6635 79.1968 13.6736 79.0624 12.985C78.9281 12.2459 78.2058 11.4396 77.3491 11.0533C76.9628 10.8853 75.955 10.5998 75.132 10.415C72.0077 9.74316 70.9663 8.85292 68.4804 4.70409C66.8175 1.89902 66.0113 1.36152 64.2812 1.91581C62.8199 2.36933 62.5847 2.30214 60.4347 0.773626C59.662 0.219329 59.4605 0.152142 59.2421 0.336907C59.1077 0.454485 58.9902 0.639251 58.9902 0.756829C58.9902 0.891204 58.7886 1.21034 58.5534 1.49589C58.2007 1.93261 57.9992 2.01659 57.4113 2.01659C56.8066 2.01659 56.4874 1.86542 55.2949 1.00878C54.0183 0.0849543 53.3464 -0.183796 53.0609 0.118548ZM64.6507 5.57753C65.0538 5.91347 65.3562 6.75331 65.2554 7.27402C65.121 7.9123 64.298 8.56738 63.5925 8.56738C62.7527 8.56738 61.98 7.82831 61.98 7.00527C61.98 6.283 62.3663 5.59433 62.9038 5.37597C63.3574 5.17441 64.3148 5.29199 64.6507 5.57753Z" fill="#9F0712"/>
<path d="M73.5531 19.435C73.2171 19.7541 73.7042 20.2076 76.207 21.8537C78.8945 23.6174 79.432 24.1045 80.2718 25.5658C81.2628 27.2623 81.33 27.3127 82.2035 27.0272C83.9167 26.4729 84.9581 26.9264 86.7386 29.0092C87.4273 29.8322 88.3679 30.7561 88.8214 31.0584C90.4675 32.1334 92.2144 32.3182 93.8941 31.5791C95.1874 31.008 94.7507 30.3361 92.6679 29.7147C90.4843 29.0596 90.2492 28.8244 89.9132 26.792C89.6781 25.465 89.3253 24.81 88.4015 23.9701C87.696 23.3318 87.6121 23.2982 86.1171 23.0127C84.8574 22.7607 84.3199 22.492 83.2617 21.5514C82.1195 20.5604 81.1285 20.2244 78.3738 19.9053C77.0972 19.7541 75.7367 19.5693 75.3671 19.4854C74.5777 19.3006 73.7042 19.267 73.5531 19.435Z" fill="#9F0712"/>
<path d="M15.35 57.09C11.83 58.23 8.89998 59.18 8.83998 59.2C8.71998 59.25 0.609976 70.2 0.599976 70.31C0.599976 70.35 7.18998 72.33 11.26 73.5L11.87 73.68L15.26 71.18C17.12 69.81 19.43 68.12 20.38 67.43L22.1 66.16V60.58C22.1 55.33 22.09 55 21.93 55.01C21.83 55.02 18.87 55.95 15.35 57.09ZM13.91 60.87C15.32 61.59 15.71 63.23 14.8 64.66C14.69 64.85 14.69 64.91 14.87 65.16C16.02 66.82 14.79 69.1 12.75 69.1C10.81 69.1 9.59998 67.03 10.55 65.33L10.81 64.86L10.55 64.38C9.60998 62.65 10.8 60.6 12.75 60.6C13.22 60.6 13.49 60.66 13.91 60.87Z" fill="#9F0712"/>
<path d="M12.22 62.5C11.76 62.93 11.85 63.57 12.41 63.89C12.92 64.18 13.6 63.75 13.6 63.13C13.6 62.43 12.73 62.03 12.22 62.5Z" fill="#9F0712"/>
<path d="M12.19 65.99C12.02 66.17 11.9 66.39 11.9 66.55C11.9 66.92 12.4 67.4 12.78 67.4C13.38 67.4 13.83 66.56 13.47 66.09C13.12 65.63 12.59 65.59 12.19 65.99Z" fill="#9F0712"/>
<path d="M23.9 60.58V66.16L29.07 69.95C31.91 72.04 34.29 73.76 34.35 73.78C34.48 73.81 45.26 70.47 45.36 70.37C45.4 70.34 45.2 70 44.93 69.63C44.43 68.95 37.3 59.27 37.25 59.22C37.21 59.18 24.12 55 24.01 55C23.93 55 23.9 56.68 23.9 60.58ZM34.38 60.86C35.69 61.51 36.16 63.07 35.45 64.38L35.19 64.86L35.45 65.31C36.4 67.02 35.19 69.1 33.26 69.1C32.23 69.09 31.41 68.59 30.96 67.68C30.71 67.18 30.62 66.52 30.76 66.15C30.84 65.96 31.31 65.7 31.6 65.7C31.93 65.7 32.4 66.23 32.4 66.6C32.4 67 32.81 67.4 33.22 67.4C33.6 67.4 34.1 66.92 34.1 66.55C34.1 66.23 33.6 65.7 33.3 65.7C32.51 65.7 32.1 64.77 32.66 64.25C32.82 64.1 33.05 64 33.22 64C33.57 64 34.1 63.52 34.1 63.2C34.1 62.7 33.72 62.31 33.22 62.3C32.79 62.3 32.4 62.68 32.4 63.1C32.4 63.47 31.93 64 31.6 64C31.34 64 30.99 63.82 30.83 63.61C30.51 63.19 30.81 61.97 31.38 61.36C32.1 60.6 33.41 60.38 34.38 60.86Z" fill="#9F0712"/>
<path d="M17.95 71.31C15.2 73.34 12.95 75.03 12.95 75.08C12.95 75.12 13.81 77.82 14.85 81.08L16.75 87H23H29.25L31.14 81.12C32.18 77.89 33.04 75.2 33.07 75.14C33.09 75.07 32.56 74.62 31.88 74.13C31.2 73.63 28.93 71.96 26.82 70.42C24.72 68.87 22.98 67.6 22.97 67.61C22.96 67.61 20.7 69.28 17.95 71.31ZM24.58 73.8C25.31 74.19 25.73 74.63 26.09 75.4L26.35 75.95L26.38 79.53L26.41 83.1L26.16 83.35C25.88 83.62 25.37 83.68 25.09 83.47C24.75 83.21 24.7 82.92 24.7 81.35C24.7 80.14 24.67 79.8 24.58 79.84C23.95 80.1 23.3 80.22 22.74 80.17C21.02 80.04 19.73 78.71 19.62 76.96C19.55 75.72 20.15 74.55 21.2 73.92C21.95 73.47 22.23 73.4 23.15 73.43C23.84 73.46 24.04 73.51 24.58 73.8Z" fill="#9F0712"/>
<path d="M22.16 75.33C21.7 75.59 21.3 76.26 21.3 76.78C21.3 77.64 22.01 78.39 22.88 78.47C23.82 78.56 24.7 77.75 24.7 76.8C24.7 75.9 23.9 75.1 23 75.1C22.72 75.1 22.4 75.19 22.16 75.33Z" fill="#9F0712"/>
<path d="M0 78.96V85.92L4.08 91.46C6.32 94.5 8.18 96.99 8.21 97C8.26 97 14.91 88.2 15.13 87.84C15.2 87.72 11.3 75.46 11.14 75.3C11.06 75.23 0.23 72 0.06 72C0.03 72 0 75.13 0 78.96ZM9.07 79.62C9.5 80.02 9.42 80.27 7.51 84.08C6.06 86.98 5.67 87.68 5.46 87.78C5.07 87.96 4.84 87.93 4.56 87.67C4.06 87.23 4.08 87.16 5.64 84.02L7.1 81.1H6.11C4.94 81.1 4.55 80.98 4.34 80.58C4.16 80.23 4.22 79.88 4.5 79.6C4.69 79.41 4.84 79.4 6.77 79.4C8.75 79.4 8.85 79.41 9.07 79.62Z" fill="#9F0712"/>
<path d="M40.3999 73.74C37.3999 74.68 34.8999 75.48 34.8299 75.5C34.6799 75.57 30.7799 87.69 30.8699 87.84C31.0899 88.2 37.7399 97 37.7899 97C37.8199 96.99 39.6799 94.51 41.9199 91.47L45.9899 85.95L45.9999 78.97C45.9999 75.14 45.9699 72 45.9299 72.01C45.8799 72.02 43.3999 72.79 40.3999 73.74ZM40.6899 79.66C40.8899 79.91 40.8999 80.05 40.8999 82.21C40.8999 84.4 40.9099 84.5 41.0899 84.5C41.1999 84.5 41.3999 84.64 41.5499 84.82C41.7599 85.07 41.7999 85.2 41.7599 85.44C41.6799 85.81 41.4599 86.06 41.1399 86.14C40.9199 86.2 40.8999 86.25 40.8999 86.78C40.8899 87.38 40.7899 87.59 40.4299 87.78C40.0799 87.97 39.7999 87.92 39.4899 87.61C39.2399 87.35 39.1999 87.24 39.1999 86.76V86.2H37.7899H36.3799L36.0899 85.91C35.9099 85.72 35.7999 85.51 35.7999 85.33C35.7999 85.14 36.3399 84.24 37.6199 82.32C38.6199 80.82 39.5099 79.55 39.5899 79.5C39.6799 79.45 39.9199 79.4 40.1199 79.4C40.3999 79.4 40.5299 79.46 40.6899 79.66Z" fill="#9F0712"/>
<path d="M38.7499 83.72C38.5299 84.06 38.3399 84.37 38.3199 84.42C38.2999 84.46 38.4899 84.5 38.7399 84.5H39.1999V83.8C39.1999 83.41 39.1899 83.1 39.1799 83.1C39.1599 83.1 38.9699 83.38 38.7499 83.72Z" fill="#9F0712"/>
<path d="M13.35 93.07C11.54 95.48 9.95998 97.59 9.83998 97.76L9.59998 98.06L16.23 100.18C19.87 101.35 22.92 102.3 23 102.3C23.08 102.3 26.13 101.35 29.77 100.18L36.4 98.07L36.17 97.76C36.04 97.59 34.46 95.48 32.65 93.07L29.38 88.7H23H16.62L13.35 93.07ZM25.25 91.53C25.46 91.7 25.52 91.85 25.52 92.15C25.52 92.45 25.46 92.6 25.25 92.77C25.02 92.98 24.89 93 23.99 93H23V93.45C23 93.89 23.01 93.9 23.33 93.9C24.05 93.91 25.01 94.64 25.36 95.45C25.46 95.68 25.53 96.1 25.53 96.46C25.52 98.5 23.16 99.69 21.5 98.49C20.56 97.81 20.44 96.81 21.26 96.49C21.57 96.38 22.14 96.59 22.29 96.88C22.46 97.2 22.94 97.35 23.3 97.2C23.67 97.05 23.8 96.83 23.8 96.37C23.8 95.84 23.53 95.66 22.57 95.59C21.86 95.54 21.74 95.5 21.53 95.26C21.31 95 21.3 94.92 21.3 93.5C21.3 91.93 21.37 91.59 21.74 91.42C21.85 91.36 22.63 91.31 23.47 91.31C24.91 91.3 25 91.31 25.25 91.53Z" fill="#9F0712"/>
</svg>
