<svg width="74" height="116" viewBox="0 0 74 116" fill="none" xmlns="http://www.w3.org/2000/svg">
<path d="M29.35 70.09C25.83 71.23 22.9 72.18 22.84 72.2C22.72 72.25 14.61 83.2 14.6 83.31C14.6 83.35 21.19 85.33 25.26 86.5L25.87 86.68L29.26 84.18C31.12 82.81 33.43 81.12 34.38 80.43L36.1 79.16V73.58C36.1 68.33 36.09 68 35.93 68.01C35.83 68.02 32.87 68.95 29.35 70.09ZM27.91 73.87C29.32 74.59 29.71 76.23 28.8 77.66C28.69 77.85 28.69 77.91 28.87 78.16C30.02 79.82 28.79 82.1 26.75 82.1C24.81 82.1 23.6 80.03 24.55 78.33L24.81 77.86L24.55 77.38C23.61 75.65 24.8 73.6 26.75 73.6C27.22 73.6 27.49 73.66 27.91 73.87Z" fill="#9F0712"/>
<path d="M26.22 75.5C25.76 75.93 25.85 76.57 26.41 76.89C26.92 77.18 27.6 76.75 27.6 76.13C27.6 75.43 26.73 75.03 26.22 75.5Z" fill="#9F0712"/>
<path d="M26.19 78.99C26.02 79.17 25.9 79.39 25.9 79.55C25.9 79.92 26.4 80.4 26.78 80.4C27.38 80.4 27.83 79.56 27.47 79.09C27.12 78.63 26.59 78.59 26.19 78.99Z" fill="#9F0712"/>
<path d="M37.9 73.58V79.16L43.07 82.95C45.91 85.04 48.29 86.76 48.35 86.78C48.48 86.81 59.26 83.47 59.36 83.37C59.4 83.34 59.2 83 58.93 82.63C58.43 81.95 51.3 72.2699 51.25 72.22C51.21 72.18 38.12 68 38.01 68C37.93 68 37.9 69.68 37.9 73.58ZM48.38 73.86C49.69 74.51 50.16 76.07 49.45 77.38L49.19 77.86L49.45 78.31C50.4 80.02 49.19 82.1 47.26 82.1C46.23 82.09 45.41 81.59 44.96 80.68C44.71 80.18 44.62 79.52 44.76 79.15C44.84 78.96 45.31 78.7 45.6 78.7C45.93 78.7 46.4 79.23 46.4 79.6C46.4 80 46.81 80.4 47.22 80.4C47.6 80.4 48.1 79.92 48.1 79.55C48.1 79.23 47.6 78.7 47.3 78.7C46.51 78.7 46.1 77.77 46.66 77.25C46.82 77.1 47.05 77 47.22 77C47.57 77 48.1 76.5199 48.1 76.2C48.1 75.7 47.72 75.3099 47.22 75.3C46.79 75.3 46.4 75.6799 46.4 76.0999C46.4 76.4699 45.93 77 45.6 77C45.34 77 44.99 76.82 44.83 76.61C44.51 76.19 44.81 74.97 45.38 74.36C46.1 73.5999 47.41 73.38 48.38 73.86Z" fill="#9F0712"/>
<path d="M31.95 84.31C29.2 86.34 26.95 88.03 26.95 88.08C26.95 88.12 27.81 90.82 28.85 94.08L30.75 100H37H43.25L45.14 94.12C46.18 90.89 47.04 88.2 47.07 88.14C47.09 88.07 46.56 87.62 45.88 87.13C45.2 86.63 42.93 84.96 40.82 83.42C38.72 81.87 36.98 80.6 36.97 80.61C36.96 80.61 34.7 82.28 31.95 84.31ZM38.58 86.8C39.31 87.19 39.73 87.63 40.09 88.4L40.35 88.95L40.38 92.53L40.41 96.1L40.16 96.35C39.88 96.62 39.37 96.68 39.09 96.47C38.75 96.21 38.7 95.92 38.7 94.35C38.7 93.14 38.67 92.8 38.58 92.84C37.95 93.1 37.3 93.22 36.74 93.17C35.02 93.04 33.73 91.71 33.62 89.96C33.55 88.72 34.15 87.55 35.2 86.92C35.95 86.47 36.23 86.4 37.15 86.43C37.84 86.46 38.04 86.51 38.58 86.8Z" fill="#383838"/>
<path d="M36.16 88.33C35.7 88.59 35.3 89.26 35.3 89.78C35.3 90.64 36.01 91.39 36.88 91.47C37.82 91.56 38.7 90.75 38.7 89.8C38.7 88.9 37.9 88.1 37 88.1C36.72 88.1 36.4 88.19 36.16 88.33Z" fill="#383838"/>
<path d="M14 91.96V98.92L18.08 104.46C20.32 107.5 22.18 109.99 22.21 110C22.26 110 28.91 101.2 29.13 100.84C29.2 100.72 25.3 88.46 25.14 88.3C25.06 88.23 14.23 85 14.06 85C14.03 85 14 88.13 14 91.96ZM23.07 92.62C23.5 93.02 23.42 93.27 21.51 97.08C20.06 99.98 19.67 100.68 19.46 100.78C19.07 100.96 18.84 100.93 18.56 100.67C18.06 100.23 18.08 100.16 19.64 97.02L21.1 94.1H20.11C18.94 94.1 18.55 93.98 18.34 93.58C18.16 93.23 18.22 92.88 18.5 92.6C18.69 92.41 18.84 92.4 20.77 92.4C22.75 92.4 22.85 92.41 23.07 92.62Z" fill="#9F0712"/>
<path d="M54.3999 86.74C51.3999 87.68 48.8999 88.48 48.8299 88.5C48.6799 88.57 44.7799 100.69 44.8699 100.84C45.0899 101.2 51.7399 110 51.7899 110C51.8199 109.99 53.6799 107.51 55.9199 104.47L59.9899 98.95L59.9999 91.97C59.9999 88.14 59.9699 85 59.9299 85.01C59.8799 85.02 57.3999 85.79 54.3999 86.74ZM54.6899 92.66C54.8899 92.91 54.8999 93.05 54.8999 95.21C54.8999 97.4 54.9099 97.5 55.0899 97.5C55.1999 97.5 55.3999 97.64 55.5499 97.82C55.7599 98.07 55.7999 98.2 55.7599 98.44C55.6799 98.81 55.4599 99.06 55.1399 99.14C54.9199 99.2 54.8999 99.25 54.8999 99.78C54.8899 100.38 54.7899 100.59 54.4299 100.78C54.0799 100.97 53.7999 100.92 53.4899 100.61C53.2399 100.35 53.1999 100.24 53.1999 99.76V99.2H51.7899H50.3799L50.0899 98.91C49.9099 98.72 49.7999 98.51 49.7999 98.33C49.7999 98.14 50.3399 97.24 51.6199 95.32C52.6199 93.82 53.5099 92.55 53.5899 92.5C53.6799 92.45 53.9199 92.4 54.1199 92.4C54.3999 92.4 54.5299 92.46 54.6899 92.66Z" fill="#383838"/>
<path d="M52.7499 96.72C52.5299 97.06 52.3399 97.37 52.3199 97.42C52.2999 97.46 52.4899 97.5 52.7399 97.5H53.1999V96.8C53.1999 96.41 53.1899 96.1 53.1799 96.1C53.1599 96.1 52.9699 96.38 52.7499 96.72Z" fill="#383838"/>
<path d="M27.35 106.07C25.54 108.48 23.96 110.59 23.84 110.76L23.6 111.06L30.23 113.18C33.87 114.35 36.92 115.3 37 115.3C37.08 115.3 40.13 114.35 43.77 113.18L50.4 111.07L50.17 110.76C50.04 110.59 48.46 108.48 46.65 106.07L43.38 101.7H37H30.62L27.35 106.07ZM39.25 104.53C39.46 104.7 39.52 104.85 39.52 105.15C39.52 105.45 39.46 105.6 39.25 105.77C39.02 105.98 38.89 106 37.99 106H37V106.45C37 106.89 37.01 106.9 37.33 106.9C38.05 106.91 39.01 107.64 39.36 108.45C39.46 108.68 39.53 109.1 39.53 109.46C39.52 111.5 37.16 112.69 35.5 111.49C34.56 110.81 34.44 109.81 35.26 109.49C35.57 109.38 36.14 109.59 36.29 109.88C36.46 110.2 36.94 110.35 37.3 110.2C37.67 110.05 37.8 109.83 37.8 109.37C37.8 108.84 37.53 108.66 36.57 108.59C35.86 108.54 35.74 108.5 35.53 108.26C35.31 108 35.3 107.92 35.3 106.5C35.3 104.93 35.37 104.59 35.74 104.42C35.85 104.36 36.63 104.31 37.47 104.31C38.91 104.3 39 104.31 39.25 104.53Z" fill="#9F0712"/>
<path opacity="0.966" fill-rule="evenodd" clip-rule="evenodd" d="M1.37455 0C12.9193 3.28596 24.4525 6.62604 35.9744 10.0203C36.8803 10.6107 37.3942 11.4385 37.516 12.5039C37.422 13.441 36.9081 13.8122 35.9744 13.6173C34.4226 11.4806 32.7953 11.452 31.0928 13.5316C30.492 14.8199 29.4929 15.6477 28.0952 16.0153C27.655 16.3693 27.3125 16.7975 27.0675 17.2999C27.8501 17.2402 28.6495 17.3258 29.4655 17.5569C30.5333 18.0053 31.6183 18.4049 32.72 18.7559C33.9185 18.7456 35.1175 18.7456 36.317 18.7559C37.2051 19.2041 38.1472 19.5183 39.1432 19.6979C41.8139 19.3679 43.2698 17.8549 43.511 15.1588C43.3776 14.5008 43.2347 13.8442 43.0828 13.1891C42.6392 12.2737 42.2682 11.3316 41.9694 10.3628C42.0236 9.62253 42.3661 9.05163 42.9972 8.64997C52.5772 5.81826 62.1692 3.02064 71.7733 0.25693C73.1881 -0.151417 73.9303 0.362442 74 1.79851C73.859 4.616 73.2595 7.32798 72.2015 9.93461C71.5278 10.2734 70.8141 10.3591 70.0604 10.1915C65.1741 9.62715 60.2925 9.02765 55.4154 8.39303C54.4548 8.49701 54.1123 9.01087 54.3877 9.93461C54.5424 10.1403 54.7421 10.2832 54.9872 10.3628C59.838 11.0048 64.6911 11.6329 69.5466 12.247C70.3557 12.6641 70.6126 13.3208 70.3173 14.2168C69.2819 15.9937 68.0543 17.6209 66.6347 19.0984C66.2351 19.2127 65.8353 19.2127 65.4357 19.0984C61.241 17.0296 57.0731 14.9172 52.9318 12.7608C51.5951 12.7281 51.2525 13.299 51.904 14.4737C55.7986 16.4351 59.6525 18.4619 63.4659 20.5544C63.5801 21.0682 63.5801 21.5821 63.4659 22.0959C62.085 23.2866 60.572 24.2858 58.9268 25.0935C58.47 25.2077 58.0133 25.2077 57.5565 25.0935C55.0442 22.3529 52.5322 19.6123 50.0199 16.8717C48.621 16.4435 48.1357 16.9288 48.564 18.3276C50.0485 19.9263 51.5329 21.5251 53.0174 23.1237C53.6394 24.5666 53.1825 25.3088 51.6471 25.3504C49.6718 25.1049 47.702 24.8194 45.7377 24.494C44.6879 24.6014 44.2597 25.1724 44.4531 26.2068C45.7818 29.2227 47.0094 32.2774 48.1357 35.3706C48.0657 35.7682 47.9228 36.1392 47.7075 36.484C46.7084 37.7116 45.7091 38.9391 44.71 40.1667C44.1547 40.5649 43.5836 40.6219 42.9972 40.338C41.3783 38.2142 39.8654 36.0161 38.4581 33.7434C37.6487 32.9189 36.7923 32.8618 35.8888 33.5721C34.4823 35.9576 32.9692 38.27 31.3497 40.5092C30.7084 40.6684 30.1089 40.5827 29.5512 40.2523C28.4664 38.9391 27.3815 37.626 26.2967 36.3127C26.1386 36.05 26.053 35.7644 26.0398 35.4563C27.3426 32.2791 28.7415 29.1389 30.2363 26.0355C30.347 25.0888 29.9188 24.575 28.9517 24.494C24.9227 25.0981 20.8974 25.7262 16.876 26.3781C16.2355 26.3087 16.007 25.9662 16.1908 25.3504C18.5888 22.7241 20.9869 20.0976 23.3849 17.4712C23.761 16.3049 23.3328 15.8195 22.1002 16.0153C19.5309 18.8129 16.9616 21.6107 14.3923 24.4083C13.8214 24.7509 13.2504 24.7509 12.6795 24.4083C11.4047 23.4707 10.1772 22.4714 8.9968 21.4108C8.74273 20.8623 8.68564 20.2913 8.82551 19.6979C12.4705 17.5754 16.2104 15.6056 20.0448 13.7886C20.6861 12.6053 20.3435 12.0342 19.0171 12.0757C15.165 13.9732 11.3397 15.9144 7.54087 17.8994C6.94748 18.0394 6.37653 17.9822 5.828 17.7281C4.54693 16.1939 3.5763 14.4811 2.91613 12.5896C3.04799 11.716 3.56185 11.2592 4.45771 11.2193C8.62749 10.7194 12.7954 10.2056 16.9616 9.67768C17.8033 9.13453 17.8604 8.5066 17.1329 7.79353C12.2716 8.20839 7.41857 8.75085 2.57356 9.42075C2.03748 9.3954 1.60927 9.16691 1.28891 8.73561C0.574697 6.47685 0.146481 4.16449 0.00426234 1.79851C-0.0496072 0.787404 0.407145 0.187901 1.37455 0Z" fill="#9F0712"/>
<path opacity="0.837" fill-rule="evenodd" clip-rule="evenodd" d="M33.0626 13.3604C34.5786 13.3378 34.9783 13.9945 34.2616 15.3302C32.8934 15.7311 32.3509 15.2459 32.6344 13.8742C32.7539 13.6702 32.8966 13.4989 33.0626 13.3604Z" fill="#9F0712"/>
<path opacity="0.951" fill-rule="evenodd" clip-rule="evenodd" d="M36.4882 36.6553C37.2972 36.4931 37.9538 36.7214 38.458 37.3404C39.7168 39.1737 40.8874 41.0578 41.9694 42.9929C41.885 43.5042 41.6851 43.961 41.3699 44.3632C40.3583 45.5308 39.3876 46.7298 38.458 47.9602C37.8676 48.5403 37.2111 48.6832 36.4882 48.3884C35.254 47.0974 34.0834 45.7555 32.9769 44.3632C32.4192 43.5756 32.4192 42.7764 32.9769 41.9651C34.064 40.1315 35.2344 38.3616 36.4882 36.6553Z" fill="#9F0712"/>
</svg>
