<svg width="100" height="100" viewBox="0 0 100 100" fill="none" xmlns="http://www.w3.org/2000/svg">
<path d="M54.9556 89.3006C54.9556 92.1622 58.1083 94.7087 61.4273 94.7087C64.6746 94.7087 68.0294 92.1784 68.0294 89.1641C68.0294 83.1615 62.3598 80.4071 61.4273 70.0422C60.684 80.3876 54.9556 83.5383 54.9556 89.3006ZM99.0936 44.5636C101.353 40.7081 99.1132 33.9584 95.4095 32.2726L67.8893 41.5298C67.6545 41.0491 67.41 40.5749 67.1557 40.1071L90.0593 23.7591C90.4734 21.755 89.6452 19.2475 88.1585 17.2596C86.6718 15.2717 84.5461 13.6931 82.3356 13.4787L58.9658 30.3594C58.643 30.119 58.3137 29.8884 57.9812 29.6708L72.9492 6.27104C72.1016 2.73379 66.9275 -0.140829 62.8521 0.00533833C62.2685 0.0443163 61.711 0.0930388 61.1893 0.242454L40.744 32.1914C37.8945 19.9978 35.5601 6.8687 22.47 12.4718C26.9105 24.3438 28.1462 37.3072 30.7316 46.8373C24.4392 54.3471 14.6811 63.1009 0 69.3861V100H31.6021C41.0472 81.9857 50.251 69.2789 57.8606 69.149L59.0473 69.1035L52.6115 50.6409L56.9183 49.2117L50.0684 33.1918L64.104 52.0084L58.4279 53.5318L65.6755 68.8534L96.1169 67.7263C99.2762 64.7412 99.7489 57.4621 96.7103 54.6069L71.4691 55.328C71.4528 54.9382 71.4267 54.5485 71.3941 54.1619L99.0871 44.5604L99.0936 44.5636Z" fill="#BC0000"/>
</svg>
