<svg width="74" height="126" viewBox="0 0 74 126" fill="none" xmlns="http://www.w3.org/2000/svg">
<path d="M29.35 80.09C25.83 81.23 22.9 82.18 22.84 82.2C22.72 82.25 14.61 93.2 14.6 93.31C14.6 93.35 21.19 95.33 25.26 96.5L25.87 96.68L29.26 94.18C31.12 92.81 33.43 91.12 34.38 90.43L36.1 89.16V83.58C36.1 78.33 36.09 78 35.93 78.01C35.83 78.02 32.87 78.95 29.35 80.09ZM27.91 83.87C29.32 84.59 29.71 86.23 28.8 87.66C28.69 87.85 28.69 87.91 28.87 88.16C30.02 89.82 28.79 92.1 26.75 92.1C24.81 92.1 23.6 90.03 24.55 88.33L24.81 87.86L24.55 87.38C23.61 85.65 24.8 83.6 26.75 83.6C27.22 83.6 27.49 83.66 27.91 83.87Z" fill="#9F0712"/>
<path d="M26.22 85.5C25.76 85.93 25.85 86.57 26.41 86.89C26.92 87.18 27.6 86.75 27.6 86.13C27.6 85.43 26.73 85.03 26.22 85.5Z" fill="#9F0712"/>
<path d="M26.19 88.99C26.02 89.17 25.9 89.39 25.9 89.55C25.9 89.92 26.4 90.4 26.78 90.4C27.38 90.4 27.83 89.56 27.47 89.09C27.12 88.63 26.59 88.59 26.19 88.99Z" fill="#9F0712"/>
<path d="M37.9 83.58V89.16L43.07 92.95C45.91 95.04 48.29 96.76 48.35 96.78C48.48 96.81 59.26 93.47 59.36 93.37C59.4 93.34 59.2 93 58.93 92.63C58.43 91.95 51.3 82.2699 51.25 82.22C51.21 82.18 38.12 78 38.01 78C37.93 78 37.9 79.68 37.9 83.58ZM48.38 83.86C49.69 84.51 50.16 86.07 49.45 87.38L49.19 87.86L49.45 88.31C50.4 90.02 49.19 92.1 47.26 92.1C46.23 92.09 45.41 91.59 44.96 90.68C44.71 90.18 44.62 89.52 44.76 89.15C44.84 88.96 45.31 88.7 45.6 88.7C45.93 88.7 46.4 89.23 46.4 89.6C46.4 90 46.81 90.4 47.22 90.4C47.6 90.4 48.1 89.92 48.1 89.55C48.1 89.23 47.6 88.7 47.3 88.7C46.51 88.7 46.1 87.77 46.66 87.25C46.82 87.1 47.05 87 47.22 87C47.57 87 48.1 86.5199 48.1 86.2C48.1 85.7 47.72 85.3099 47.22 85.3C46.79 85.3 46.4 85.6799 46.4 86.0999C46.4 86.4699 45.93 87 45.6 87C45.34 87 44.99 86.82 44.83 86.61C44.51 86.19 44.81 84.97 45.38 84.36C46.1 83.5999 47.41 83.38 48.38 83.86Z" fill="#9F0712"/>
<path d="M31.95 94.31C29.2 96.34 26.95 98.03 26.95 98.08C26.95 98.12 27.81 100.82 28.85 104.08L30.75 110H37H43.25L45.14 104.12C46.18 100.89 47.04 98.2 47.07 98.14C47.09 98.07 46.5599 97.62 45.88 97.13C45.2 96.63 42.93 94.96 40.82 93.42C38.72 91.87 36.98 90.6 36.97 90.61C36.96 90.61 34.7 92.28 31.95 94.31ZM38.58 96.8C39.31 97.19 39.73 97.63 40.09 98.4L40.35 98.95L40.38 102.53L40.41 106.1L40.16 106.35C39.88 106.62 39.37 106.68 39.09 106.47C38.75 106.21 38.7 105.92 38.7 104.35C38.7 103.14 38.67 102.8 38.58 102.84C37.95 103.1 37.3 103.22 36.74 103.17C35.02 103.04 33.73 101.71 33.62 99.96C33.55 98.72 34.15 97.55 35.2 96.92C35.95 96.47 36.23 96.4 37.15 96.43C37.84 96.46 38.04 96.51 38.58 96.8Z" fill="#383838"/>
<path d="M36.16 98.33C35.7 98.59 35.3 99.26 35.3 99.78C35.3 100.64 36.01 101.39 36.88 101.47C37.82 101.56 38.7 100.75 38.7 99.8C38.7 98.9 37.9 98.1 37 98.1C36.72 98.1 36.4 98.19 36.16 98.33Z" fill="#383838"/>
<path d="M14 101.96V108.92L18.08 114.46C20.32 117.5 22.18 119.99 22.21 120C22.26 120 28.91 111.2 29.13 110.84C29.2 110.72 25.3 98.46 25.14 98.3C25.06 98.23 14.23 95 14.06 95C14.03 95 14 98.13 14 101.96ZM23.07 102.62C23.5 103.02 23.42 103.27 21.51 107.08C20.06 109.98 19.67 110.68 19.46 110.78C19.07 110.96 18.84 110.93 18.56 110.67C18.06 110.23 18.08 110.16 19.64 107.02L21.1 104.1H20.11C18.94 104.1 18.55 103.98 18.34 103.58C18.16 103.23 18.22 102.88 18.5 102.6C18.69 102.41 18.84 102.4 20.77 102.4C22.75 102.4 22.85 102.41 23.07 102.62Z" fill="#9F0712"/>
<path d="M54.3999 96.74C51.3999 97.68 48.8999 98.48 48.8299 98.5C48.6799 98.57 44.7799 110.69 44.8699 110.84C45.0899 111.2 51.7399 120 51.7899 120C51.8199 119.99 53.6799 117.51 55.9199 114.47L59.9899 108.95L59.9999 101.97C59.9999 98.14 59.9699 95 59.9299 95.01C59.8799 95.02 57.3999 95.79 54.3999 96.74ZM54.6899 102.66C54.8899 102.91 54.8999 103.05 54.8999 105.21C54.8999 107.4 54.9099 107.5 55.0899 107.5C55.1999 107.5 55.3999 107.64 55.5499 107.82C55.7599 108.07 55.7999 108.2 55.7599 108.44C55.6799 108.81 55.4599 109.06 55.1399 109.14C54.9199 109.2 54.8999 109.25 54.8999 109.78C54.8899 110.38 54.7899 110.59 54.4299 110.78C54.0799 110.97 53.7999 110.92 53.4899 110.61C53.2399 110.35 53.1999 110.24 53.1999 109.76V109.2H51.7899H50.3799L50.0899 108.91C49.9099 108.72 49.7999 108.51 49.7999 108.33C49.7999 108.14 50.3399 107.24 51.6199 105.32C52.6199 103.82 53.5099 102.55 53.5899 102.5C53.6799 102.45 53.9199 102.4 54.1199 102.4C54.3999 102.4 54.5299 102.46 54.6899 102.66Z" fill="#383838"/>
<path d="M52.7499 106.72C52.5299 107.06 52.3399 107.37 52.3199 107.42C52.2999 107.46 52.4899 107.5 52.7399 107.5H53.1999V106.8C53.1999 106.41 53.1899 106.1 53.1799 106.1C53.1599 106.1 52.9699 106.38 52.7499 106.72Z" fill="#383838"/>
<path d="M27.35 116.07C25.54 118.48 23.96 120.59 23.84 120.76L23.6 121.06L30.23 123.18C33.87 124.35 36.92 125.3 37 125.3C37.08 125.3 40.13 124.35 43.77 123.18L50.4 121.07L50.17 120.76C50.04 120.59 48.46 118.48 46.65 116.07L43.38 111.7H37H30.62L27.35 116.07ZM39.25 114.53C39.46 114.7 39.52 114.85 39.52 115.15C39.52 115.45 39.46 115.6 39.25 115.77C39.02 115.98 38.89 116 37.99 116H37V116.45C37 116.89 37.01 116.9 37.33 116.9C38.05 116.91 39.01 117.64 39.36 118.45C39.46 118.68 39.53 119.1 39.53 119.46C39.52 121.5 37.16 122.69 35.5 121.49C34.56 120.81 34.44 119.81 35.26 119.49C35.57 119.38 36.14 119.59 36.29 119.88C36.46 120.2 36.94 120.35 37.3 120.2C37.67 120.05 37.8 119.83 37.8 119.37C37.8 118.84 37.53 118.66 36.57 118.59C35.86 118.54 35.74 118.5 35.53 118.26C35.31 118 35.3 117.92 35.3 116.5C35.3 114.93 35.37 114.59 35.74 114.42C35.85 114.36 36.63 114.31 37.47 114.31C38.91 114.3 39 114.31 39.25 114.53Z" fill="#9F0712"/>
<path opacity="0.966" fill-rule="evenodd" clip-rule="evenodd" d="M1.37455 0C12.9193 3.28596 24.4525 6.62604 35.9744 10.0203C36.8803 10.6107 37.3942 11.4385 37.516 12.5039C37.422 13.441 36.9081 13.8122 35.9744 13.6173C34.4226 11.4806 32.7953 11.452 31.0928 13.5316C30.492 14.8199 29.4929 15.6477 28.0952 16.0153C27.655 16.3693 27.3125 16.7975 27.0675 17.2999C27.8501 17.2402 28.6495 17.3258 29.4655 17.5569C30.5333 18.0053 31.6183 18.4049 32.72 18.7559C33.9185 18.7456 35.1175 18.7456 36.317 18.7559C37.2051 19.2041 38.1472 19.5183 39.1432 19.6979C41.8139 19.3679 43.2698 17.8549 43.511 15.1588C43.3776 14.5008 43.2347 13.8442 43.0828 13.1891C42.6392 12.2737 42.2682 11.3316 41.9694 10.3628C42.0236 9.62253 42.3661 9.05163 42.9972 8.64997C52.5772 5.81826 62.1692 3.02064 71.7733 0.25693C73.1881 -0.151417 73.9303 0.362442 74 1.79851C73.859 4.616 73.2595 7.32798 72.2015 9.93461C71.5278 10.2734 70.8141 10.3591 70.0604 10.1915C65.1741 9.62715 60.2925 9.02765 55.4154 8.39303C54.4548 8.49701 54.1123 9.01087 54.3877 9.93461C54.5424 10.1403 54.7421 10.2832 54.9872 10.3628C59.838 11.0048 64.6911 11.6329 69.5466 12.247C70.3557 12.6641 70.6126 13.3208 70.3173 14.2168C69.2819 15.9937 68.0543 17.6209 66.6347 19.0984C66.2351 19.2127 65.8353 19.2127 65.4357 19.0984C61.241 17.0296 57.0731 14.9172 52.9318 12.7608C51.5951 12.7281 51.2525 13.299 51.904 14.4737C55.7986 16.4351 59.6525 18.4619 63.4659 20.5544C63.5801 21.0682 63.5801 21.5821 63.4659 22.0959C62.085 23.2866 60.572 24.2858 58.9268 25.0935C58.47 25.2077 58.0133 25.2077 57.5565 25.0935C55.0442 22.3529 52.5322 19.6123 50.0199 16.8717C48.621 16.4435 48.1357 16.9288 48.564 18.3276C50.0485 19.9263 51.5329 21.5251 53.0174 23.1237C53.6394 24.5666 53.1825 25.3088 51.6471 25.3504C49.6718 25.1049 47.702 24.8194 45.7377 24.494C44.6879 24.6014 44.2597 25.1724 44.4531 26.2068C45.7818 29.2227 47.0094 32.2774 48.1357 35.3706C48.0657 35.7682 47.9228 36.1392 47.7075 36.484C46.7084 37.7116 45.7091 38.9391 44.71 40.1667C44.1547 40.5649 43.5836 40.6219 42.9972 40.338C41.3783 38.2142 39.8654 36.0161 38.4581 33.7434C37.6487 32.9189 36.7923 32.8618 35.8888 33.5721C34.4823 35.9576 32.9692 38.27 31.3497 40.5092C30.7084 40.6684 30.1089 40.5827 29.5512 40.2523C28.4664 38.9391 27.3815 37.626 26.2967 36.3127C26.1386 36.05 26.053 35.7644 26.0398 35.4563C27.3426 32.2791 28.7415 29.1389 30.2363 26.0355C30.347 25.0888 29.9188 24.575 28.9517 24.494C24.9227 25.0981 20.8974 25.7262 16.876 26.3781C16.2355 26.3087 16.007 25.9662 16.1908 25.3504C18.5888 22.7241 20.9869 20.0976 23.3849 17.4712C23.761 16.3049 23.3328 15.8195 22.1002 16.0153C19.5309 18.8129 16.9616 21.6107 14.3923 24.4083C13.8214 24.7509 13.2504 24.7509 12.6795 24.4083C11.4047 23.4707 10.1772 22.4714 8.9968 21.4108C8.74273 20.8623 8.68564 20.2913 8.82551 19.6979C12.4705 17.5754 16.2104 15.6056 20.0448 13.7886C20.6861 12.6053 20.3435 12.0342 19.0171 12.0757C15.165 13.9732 11.3397 15.9144 7.54087 17.8994C6.94748 18.0394 6.37653 17.9822 5.828 17.7281C4.54693 16.1939 3.5763 14.4811 2.91613 12.5896C3.04799 11.716 3.56185 11.2592 4.45771 11.2193C8.62749 10.7194 12.7954 10.2056 16.9616 9.67768C17.8033 9.13453 17.8604 8.5066 17.1329 7.79353C12.2716 8.20839 7.41857 8.75085 2.57356 9.42075C2.03748 9.3954 1.60927 9.16691 1.28891 8.73561C0.574697 6.47685 0.146481 4.16449 0.00426234 1.79851C-0.0496072 0.787404 0.407145 0.187901 1.37455 0Z" fill="#9F0712"/>
<path opacity="0.837" fill-rule="evenodd" clip-rule="evenodd" d="M33.0626 14.3604C34.5786 14.3378 34.9783 14.9945 34.2616 16.3302C32.8934 16.7311 32.3509 16.2459 32.6344 14.8742C32.7539 14.6702 32.8966 14.4989 33.0626 14.3604Z" fill="#9F0712"/>
<path opacity="0.951" fill-rule="evenodd" clip-rule="evenodd" d="M36.4882 37.6553C37.2972 37.4931 37.9538 37.7214 38.458 38.3404C39.7168 40.1737 40.8874 42.0578 41.9694 43.9929C41.885 44.5042 41.6851 44.961 41.3699 45.3632C40.3583 46.5308 39.3876 47.7298 38.458 48.9602C37.8676 49.5403 37.2111 49.6832 36.4882 49.3884C35.254 48.0974 34.0834 46.7555 32.9769 45.3632C32.4192 44.5756 32.4192 43.7764 32.9769 42.9651C34.064 41.1315 35.2344 39.3616 36.4882 37.6553Z" fill="#9F0712"/>
</svg>
