<svg width="46" height="48" viewBox="0 0 46 48" fill="none" xmlns="http://www.w3.org/2000/svg">
<path d="M15.35 2.09003C11.83 3.23002 8.89998 4.18002 8.83998 4.20002C8.71998 4.25002 0.609976 15.2 0.599976 15.31C0.599976 15.35 7.18998 17.33 11.26 18.5L11.87 18.68L15.26 16.18C17.12 14.81 19.43 13.12 20.38 12.43L22.1 11.16V5.58002C22.1 0.330025 22.09 2.53506e-05 21.93 0.0100253C21.83 0.0200253 18.87 0.950025 15.35 2.09003ZM13.91 5.87002C15.32 6.59002 15.71 8.23002 14.8 9.66002C14.69 9.85002 14.69 9.91002 14.87 10.16C16.02 11.82 14.79 14.1 12.75 14.1C10.81 14.1 9.59998 12.03 10.55 10.33L10.81 9.86002L10.55 9.38002C9.60998 7.65002 10.8 5.60002 12.75 5.60002C13.22 5.60002 13.49 5.66002 13.91 5.87002Z" fill="#9F0712"/>
<path d="M12.22 7.50001C11.76 7.93001 11.85 8.57001 12.41 8.89001C12.92 9.18001 13.6 8.75001 13.6 8.13001C13.6 7.43001 12.73 7.03001 12.22 7.50001Z" fill="#9F0712"/>
<path d="M12.19 10.99C12.02 11.17 11.9 11.39 11.9 11.55C11.9 11.92 12.4 12.4 12.78 12.4C13.38 12.4 13.83 11.56 13.47 11.09C13.12 10.63 12.59 10.59 12.19 10.99Z" fill="#9F0712"/>
<path d="M23.9 5.58001V11.16L29.07 14.95C31.91 17.04 34.29 18.76 34.35 18.78C34.48 18.81 45.26 15.47 45.36 15.37C45.4 15.34 45.2 15 44.93 14.63C44.43 13.95 37.3 4.27001 37.25 4.22001C37.21 4.18001 24.12 1.14061e-05 24.01 1.14061e-05C23.93 1.14061e-05 23.9 1.68001 23.9 5.58001ZM34.38 5.86001C35.69 6.51001 36.16 8.07001 35.45 9.38001L35.19 9.86001L35.45 10.31C36.4 12.02 35.19 14.1 33.26 14.1C32.23 14.09 31.41 13.59 30.96 12.68C30.71 12.18 30.62 11.52 30.76 11.15C30.84 10.96 31.31 10.7 31.6 10.7C31.93 10.7 32.4 11.23 32.4 11.6C32.4 12 32.81 12.4 33.22 12.4C33.6 12.4 34.1 11.92 34.1 11.55C34.1 11.23 33.6 10.7 33.3 10.7C32.51 10.7 32.1 9.77001 32.66 9.25001C32.82 9.10001 33.05 9.00001 33.22 9.00001C33.57 9.00001 34.1 8.52001 34.1 8.20001C34.1 7.70001 33.72 7.31001 33.22 7.30001C32.79 7.30001 32.4 7.68001 32.4 8.10001C32.4 8.47001 31.93 9.00001 31.6 9.00001C31.34 9.00001 30.99 8.82001 30.83 8.61001C30.51 8.19001 30.81 6.97001 31.38 6.36001C32.1 5.60001 33.41 5.38001 34.38 5.86001Z" fill="#9F0712"/>
<path d="M17.95 16.31C15.2 18.34 12.95 20.03 12.95 20.08C12.95 20.12 13.81 22.82 14.85 26.08L16.75 32H23H29.25L31.14 26.12C32.18 22.89 33.04 20.2 33.07 20.14C33.09 20.07 32.56 19.62 31.88 19.13C31.2 18.63 28.93 16.96 26.82 15.42C24.72 13.87 22.98 12.6 22.97 12.61C22.96 12.61 20.7 14.28 17.95 16.31ZM24.58 18.8C25.31 19.19 25.73 19.63 26.09 20.4L26.35 20.95L26.38 24.53L26.41 28.1L26.16 28.35C25.88 28.62 25.37 28.68 25.09 28.47C24.75 28.21 24.7 27.92 24.7 26.35C24.7 25.14 24.67 24.8 24.58 24.84C23.95 25.1 23.3 25.22 22.74 25.17C21.02 25.04 19.73 23.71 19.62 21.96C19.55 20.72 20.15 19.55 21.2 18.92C21.95 18.47 22.23 18.4 23.15 18.43C23.84 18.46 24.04 18.51 24.58 18.8Z" fill="#9F0712"/>
<path d="M22.16 20.33C21.7 20.59 21.3 21.26 21.3 21.78C21.3 22.64 22.01 23.39 22.88 23.47C23.82 23.56 24.7 22.75 24.7 21.8C24.7 20.9 23.9 20.1 23 20.1C22.72 20.1 22.4 20.19 22.16 20.33Z" fill="#9F0712"/>
<path d="M0 23.96V30.92L4.08 36.46C6.32 39.5 8.18 41.99 8.21 42C8.26 42 14.91 33.2 15.13 32.84C15.2 32.72 11.3 20.46 11.14 20.3C11.06 20.23 0.23 17 0.06 17C0.03 17 0 20.13 0 23.96ZM9.07 24.62C9.5 25.02 9.42 25.27 7.51 29.08C6.06 31.98 5.67 32.68 5.46 32.78C5.07 32.96 4.84 32.93 4.56 32.67C4.06 32.23 4.08 32.16 5.64 29.02L7.1 26.1H6.11C4.94 26.1 4.55 25.98 4.34 25.58C4.16 25.23 4.22 24.88 4.5 24.6C4.69 24.41 4.84 24.4 6.77 24.4C8.75 24.4 8.85 24.41 9.07 24.62Z" fill="#9F0712"/>
<path d="M40.3999 18.74C37.3999 19.68 34.8999 20.48 34.8299 20.5C34.6799 20.57 30.7799 32.69 30.8699 32.84C31.0899 33.2 37.7399 42 37.7899 42C37.8199 41.99 39.6799 39.51 41.9199 36.47L45.9899 30.95L45.9999 23.97C45.9999 20.14 45.9699 17 45.9299 17.01C45.8799 17.02 43.3999 17.79 40.3999 18.74ZM40.6899 24.66C40.8899 24.91 40.8999 25.05 40.8999 27.21C40.8999 29.4 40.9099 29.5 41.0899 29.5C41.1999 29.5 41.3999 29.64 41.5499 29.82C41.7599 30.07 41.7999 30.2 41.7599 30.44C41.6799 30.81 41.4599 31.06 41.1399 31.14C40.9199 31.2 40.8999 31.25 40.8999 31.78C40.8899 32.38 40.7899 32.59 40.4299 32.78C40.0799 32.97 39.7999 32.92 39.4899 32.61C39.2399 32.35 39.1999 32.24 39.1999 31.76V31.2H37.7899H36.3799L36.0899 30.91C35.9099 30.72 35.7999 30.51 35.7999 30.33C35.7999 30.14 36.3399 29.24 37.6199 27.32C38.6199 25.82 39.5099 24.55 39.5899 24.5C39.6799 24.45 39.9199 24.4 40.1199 24.4C40.3999 24.4 40.5299 24.46 40.6899 24.66Z" fill="#9F0712"/>
<path d="M38.7499 28.72C38.5299 29.06 38.3399 29.37 38.3199 29.42C38.2999 29.46 38.4899 29.5 38.7399 29.5H39.1999V28.8C39.1999 28.41 39.1899 28.1 39.1799 28.1C39.1599 28.1 38.9699 28.38 38.7499 28.72Z" fill="#9F0712"/>
<path d="M13.35 38.07C11.54 40.48 9.95998 42.59 9.83998 42.76L9.59998 43.06L16.23 45.18C19.87 46.35 22.92 47.3 23 47.3C23.08 47.3 26.13 46.35 29.77 45.18L36.4 43.07L36.17 42.76C36.04 42.59 34.46 40.48 32.65 38.07L29.38 33.7H23H16.62L13.35 38.07ZM25.25 36.53C25.46 36.7 25.52 36.85 25.52 37.15C25.52 37.45 25.46 37.6 25.25 37.77C25.02 37.98 24.89 38 23.99 38H23V38.45C23 38.89 23.01 38.9 23.33 38.9C24.05 38.91 25.01 39.64 25.36 40.45C25.46 40.68 25.53 41.1 25.53 41.46C25.52 43.5 23.16 44.69 21.5 43.49C20.56 42.81 20.44 41.81 21.26 41.49C21.57 41.38 22.14 41.59 22.29 41.88C22.46 42.2 22.94 42.35 23.3 42.2C23.67 42.05 23.8 41.83 23.8 41.37C23.8 40.84 23.53 40.66 22.57 40.59C21.86 40.54 21.74 40.5 21.53 40.26C21.31 40 21.3 39.92 21.3 38.5C21.3 36.93 21.37 36.59 21.74 36.42C21.85 36.36 22.63 36.31 23.47 36.31C24.91 36.3 25 36.31 25.25 36.53Z" fill="#9F0712"/>
</svg>
