<svg width="78" height="78" viewBox="0 0 78 78" fill="none" xmlns="http://www.w3.org/2000/svg">
<path d="M29.0737 1L27.7045 1.3827C28.5039 4.23166 29.601 5.72843 30.8511 6.51083C32.1183 7.31024 33.581 7.37827 35.1798 7.2337C37.3059 7.0381 39.7042 6.41728 42.1534 7.32725C42.8168 7.6249 43.5141 8.00334 44.254 8.5051C44.6452 8.38604 44.9854 8.23296 45.3255 8.12241C45.3255 8.12241 45.5977 7.25071 45.1555 6.13664C44.7728 5.15863 43.8203 3.9255 41.4135 3.05806L40.9373 4.38474C42.4171 4.92902 43.2165 5.60086 43.6247 6.23869C43.6842 6.33224 43.7267 6.41728 43.7692 6.50232C43.4461 6.33224 43.1144 6.17916 42.7912 6.0601C40.4015 4.95453 38.488 4.8865 36.9573 4.71641C36.1408 4.63136 35.452 4.52931 34.8822 4.1211C34.3124 3.70439 33.8872 2.98152 33.5215 1.72287L32.1608 2.12258C32.6455 3.78943 33.2919 4.7079 34.0488 5.26069C34.3889 5.50731 34.7546 5.68591 35.1458 5.81347C33.8021 5.88576 32.535 5.87045 31.5995 5.31171C30.562 4.65688 29.737 3.36421 29.0737 1ZM36.6851 1.30616C36.6086 2.25865 36.7787 3.03254 37.0593 3.66187C37.7141 3.74351 38.2839 3.75541 38.8792 3.85747C38.42 3.3472 38.0118 2.5648 38.0968 1.40821L36.6851 1.30616ZM46.9159 2.45425L45.9889 3.51729C46.6862 4.12961 46.8818 4.86098 46.8818 5.4818C46.5077 5.14843 46.1675 4.92647 45.7678 4.72491C46.3801 5.44098 46.4651 6.71153 46.5077 7.39528L47.8258 7.53986C47.8258 7.53986 49.3226 4.54632 46.9159 2.45425ZM40.0528 8.35202C38.5646 8.52211 37.7737 8.13091 37.2974 9.52563C37.2974 9.52563 38.8962 11.8983 43.1569 11.8388C42.9188 12.8083 43.0294 13.5227 43.0294 14.3816C43.0294 17.2391 40.7332 19.7309 35.6731 19.7309C33.1048 19.7309 29.9837 20.1901 27.6024 21.4743C25.9101 22.3842 24.586 23.7024 24 25.5308L24.6642 26.4578L25.9356 26.4748V31.722L24.3844 34.1288L24.83 41.1023H26.3013L26.4288 35.4895C27.1602 35.0642 28.8356 33.9587 30.2643 32.2578C32.2033 29.9701 33.6916 26.6449 31.9397 22.5288L33.2493 21.976C34.6866 25.3522 34.1848 28.2778 32.9262 30.6335C35.3329 30.5569 37.3995 30.4038 39.1514 30.1147L38.7517 25.3267L40.1634 25.2077L41.5071 41.1023H42.9698L43.2165 30.7525C44.3816 30.2593 47.0349 28.4478 48.2766 22.1546C48.4296 21.3892 48.5147 20.7429 48.5572 20.1901C48.7528 18.7869 48.8634 17.2051 48.8974 15.4021L46.8138 14.7473H53.2176L53.8384 13.3441C53.2346 13.3696 52.5117 13.0549 52.5117 13.0549L52.6563 12.3746H54L46.7288 8.60715C45.9209 8.91331 45.0704 9.31302 44.4751 9.79777C43.9989 9.45759 42.349 8.39455 40.0528 8.35202ZM48.1745 27.6229C47.3496 29.1622 46.4651 30.3103 45.6997 31.1267L49.7053 32.8956L47.9279 36.9352L49.2035 37.5305L52.044 32.0197L48.2766 28.839C48.2425 28.6434 48.2 28.2607 48.1745 27.6229ZM35.0948 31.9431C34.1338 32.0027 33.1133 32.0452 32.0247 32.0622C31.2848 33.0402 30.4344 33.9842 29.5499 34.7156L30.2898 41.0938H31.7441V35.566C32.3649 35.0557 33.8617 33.7546 35.0948 31.9431Z" fill="#AC0C14"/>
<g clip-path="url(#clip0_1415_42)">
<path d="M32.0566 61.1142L26.4824 69.3469C26.3198 69.611 26.4877 69.9542 26.7956 69.988L37.794 71.1536L32.0566 61.1142ZM26.8104 66.4148L30.7865 59.9534L26.7391 57.5252C26.5981 57.4407 26.4191 57.5421 26.4191 57.7063V66.3045C26.4191 66.5173 26.6984 66.5965 26.8104 66.4148ZM27.3829 72.1274L37.6493 76.7568C37.9292 76.8862 38.2487 76.6813 38.2487 76.3734V72.9053L27.4991 71.7276C27.264 71.7012 27.17 72.0229 27.3829 72.1274ZM31.6722 58.5138L35.8934 50.965C36.1226 50.5921 35.7038 50.1596 35.3241 50.3767L27.3596 55.5844C27.2292 55.6699 27.2334 55.8621 27.3665 55.9424L31.6722 58.5138ZM39.0937 59.0514H44.8612L39.8135 50.1591C39.6482 49.8908 39.371 49.7567 39.0937 49.7567C38.8165 49.7567 38.5392 49.8908 38.3739 50.1591L33.3262 59.0514H39.0937ZM51.4483 57.5252L47.4009 59.9539L51.377 66.4154C51.4885 66.597 51.7684 66.5178 51.7684 66.3045V57.7063C51.7684 57.5421 51.5893 57.4407 51.4483 57.5252ZM46.5153 58.5138L50.8209 55.9419C50.9546 55.8616 50.9583 55.6694 50.8278 55.5838L42.8634 50.3767C42.4837 50.1596 42.0649 50.5921 42.2941 50.965L46.5153 58.5138ZM50.6884 71.7276L39.9387 72.9048V76.3729C39.9387 76.6813 40.2582 76.8857 40.5381 76.7563L50.8046 72.1269C51.0174 72.0229 50.9234 71.7012 50.6884 71.7276ZM46.1308 61.1142L40.3939 71.1536L51.3924 69.988C51.7003 69.9537 51.8682 69.611 51.7055 69.3469L46.1308 61.1142ZM39.0937 60.7414H33.7899L39.0937 70.0229L44.3975 60.7414H39.0937Z" fill="#AC0C14"/>
</g>
<defs>
<clipPath id="clip0_1415_42">
<rect width="25.3493" height="27.0393" fill="white" transform="translate(26.4191 49.7567)"/>
</clipPath>
</defs>
</svg>
