<svg width="22" height="22" viewBox="0 0 22 22" fill="none" xmlns="http://www.w3.org/2000/svg">
<path d="M13.6111 20.8873L7.66665 18.7746L2.5 20.8028C2.31481 20.8779 2.13407 20.9016 1.95778 20.8738C1.78148 20.846 1.61963 20.7848 1.47222 20.6901C1.32481 20.5955 1.20926 20.4689 1.12556 20.3104C1.04185 20.1519 1 19.9686 1 19.7606V3.95775C1 3.71362 1.06963 3.49765 1.20889 3.30986C1.34815 3.12207 1.53778 2.98122 1.77778 2.88732L6.94443 1.11268C7.05554 1.07512 7.17147 1.04695 7.29221 1.02817C7.41295 1.00939 7.53777 1 7.66665 1C7.79554 1 7.92073 1.00939 8.04221 1.02817C8.16369 1.04695 8.27925 1.07512 8.38887 1.11268L14.3333 3.22535L19.5 1.19718C19.6851 1.12207 19.8659 1.09878 20.0422 1.12732C20.2185 1.15587 20.3803 1.21671 20.5277 1.30986C20.6751 1.403 20.7911 1.52995 20.8755 1.6907C20.96 1.85146 21.0014 2.03437 21 2.23944V18.0423C21 18.2864 20.9307 18.5023 20.7922 18.6901C20.6537 18.8779 20.4637 19.0188 20.2222 19.1127L15.0555 20.8873C14.9444 20.9249 14.8289 20.9531 14.7089 20.9718C14.5889 20.9906 14.4637 21 14.3333 21C14.2029 21 14.0781 20.9906 13.9589 20.9718C13.8396 20.9531 13.7237 20.9249 13.6111 20.8873ZM13.2222 18.3803V5.19718L8.77776 3.61972V16.8028L13.2222 18.3803Z" fill="white"/>
</svg>
