<svg width="22" height="22" viewBox="0 0 22 22" fill="none" xmlns="http://www.w3.org/2000/svg">
<path d="M13.35 19.8986L7.99999 17.9972L3.35 19.8225C3.18333 19.8901 3.02066 19.9114 2.862 19.8864C2.70333 19.8614 2.55767 19.8063 2.425 19.7211C2.29233 19.6359 2.18833 19.522 2.113 19.3794C2.03767 19.2367 2 19.0718 2 18.8845V4.66197C2 4.44225 2.06267 4.24789 2.188 4.07887C2.31333 3.90986 2.484 3.7831 2.7 3.69859L7.34999 2.10141C7.44999 2.06761 7.55432 2.04225 7.66299 2.02535C7.77166 2.00845 7.88399 2 7.99999 2C8.11599 2 8.22866 2.00845 8.33799 2.02535C8.44732 2.04225 8.55132 2.06761 8.64999 2.10141L14 4.00282L18.65 2.17746C18.8166 2.10986 18.9793 2.0889 19.138 2.11459C19.2966 2.14028 19.4423 2.19504 19.575 2.27887C19.7076 2.3627 19.812 2.47696 19.888 2.62163C19.964 2.76631 20.0013 2.93093 20 3.11549V17.338C20 17.5577 19.9376 17.7521 19.813 17.9211C19.6883 18.0901 19.5173 18.2169 19.3 18.3014L14.65 19.8986C14.55 19.9324 14.446 19.9577 14.338 19.9746C14.23 19.9915 14.1173 20 14 20C13.8826 20 13.7703 19.9915 13.663 19.9746C13.5556 19.9577 13.4513 19.9324 13.35 19.8986ZM13 17.6423V5.77746L8.99999 4.35775V16.2225L13 17.6423Z" fill="white"/>
</svg>
