<svg width="22" height="22" viewBox="0 0 22 22" fill="none" xmlns="http://www.w3.org/2000/svg">
<path d="M11.5 16.25C11.5 15.8358 11.1642 15.5 10.75 15.5C10.3358 15.5 10 15.8358 10 16.25C10 16.6642 10.3358 17 10.75 17C11.1642 17 11.5 16.6642 11.5 16.25Z" stroke="white" stroke-width="1.5" stroke-linecap="round" stroke-linejoin="round"/>
<path d="M11.5 10.75C11.5 10.3358 11.1642 10 10.75 10C10.3358 10 10 10.3358 10 10.75C10 11.1642 10.3358 11.5 10.75 11.5C11.1642 11.5 11.5 11.1642 11.5 10.75Z" stroke="white" stroke-width="1.5" stroke-linecap="round" stroke-linejoin="round"/>
<path d="M11.5 5.25C11.5 4.83579 11.1642 4.5 10.75 4.5C10.3358 4.5 10 4.83579 10 5.25C10 5.66421 10.3358 6 10.75 6C11.1642 6 11.5 5.66421 11.5 5.25Z" stroke="white" stroke-width="1.5" stroke-linecap="round" stroke-linejoin="round"/>
</svg>
