<svg width="65" height="55" viewBox="0 0 65 55" fill="none" xmlns="http://www.w3.org/2000/svg">
<path opacity="0.946" fill-rule="evenodd" clip-rule="evenodd" d="M26.8262 0.0143341C27.275 -0.0371591 27.6893 0.0500849 28.0693 0.276053C28.3084 0.770898 28.4393 1.29434 28.4619 1.84637C28.9093 5.38153 29.3673 8.91473 29.8359 12.446C29.5746 13.3619 29.0076 13.6453 28.1348 13.2966C27.8747 13.124 27.722 12.8841 27.6768 12.5768C27.1965 8.73493 26.6949 4.89636 26.1719 1.06121C26.1994 0.577658 26.4175 0.228695 26.8262 0.0143341Z" fill="white"/>
<path opacity="0.94" fill-rule="evenodd" clip-rule="evenodd" d="M39.7813 1.06122C40.8925 1.09923 41.3068 1.66629 41.0244 2.76239C39.8467 5.77216 38.669 8.78192 37.4912 11.7917C37.0589 12.7769 36.4046 12.9514 35.5283 12.3151C35.3423 11.9841 35.2987 11.635 35.3975 11.2682C36.5752 8.21491 37.753 5.16147 38.9307 2.10809C39.1015 1.65514 39.3849 1.30619 39.7813 1.06122Z" fill="white"/>
<path opacity="0.94" fill-rule="evenodd" clip-rule="evenodd" d="M16.0957 5.77217C16.5942 5.75633 17.0087 5.93082 17.3388 6.2956C18.6474 8.12764 19.956 9.95967 21.2646 11.7917C21.5303 12.1484 21.7266 12.541 21.8535 12.9694C21.7302 13.6157 21.3376 13.9212 20.6758 13.8854C20.3583 13.898 20.0747 13.8109 19.8252 13.6237C18.3421 11.53 16.859 9.43623 15.3759 7.34248C15.1189 6.56155 15.3588 6.03811 16.0957 5.77217Z" fill="white"/>
<path opacity="0.937" fill-rule="evenodd" clip-rule="evenodd" d="M50.25 7.99677C50.9459 8.08209 51.3385 8.47466 51.4278 9.1745C51.3842 9.50296 51.2533 9.78653 51.0352 10.0251C48.5924 11.6827 46.1498 13.3401 43.7071 14.9977C42.5501 15.2808 42.0486 14.8228 42.2022 13.6237C42.3049 13.39 42.4575 13.1937 42.6602 13.0349C45.1805 11.3184 47.7106 9.63905 50.25 7.99677Z" fill="white"/>
<path opacity="0.985" fill-rule="evenodd" clip-rule="evenodd" d="M0 15.7175C5.08264 16.8431 10.1643 17.9771 15.2451 19.1198C17.8469 18.5646 20.4423 17.9757 23.0312 17.3532C23.6855 17.2659 24.3398 17.2659 24.9941 17.3532C28.6316 18.3913 32.2521 19.4818 35.8555 20.6247C36.0163 20.8248 36.2126 20.9775 36.4443 21.0827C38.1388 23.4316 39.8836 25.7435 41.6787 28.0182C42.2082 28.9648 42.0555 29.7718 41.2207 30.4391C40.7576 30.636 40.2779 30.6795 39.7812 30.57C37.7158 29.0717 35.6874 27.5232 33.6963 25.9245C32.0691 26.898 30.4769 27.923 28.9199 28.9997C27.8949 29.196 27.4805 28.7816 27.6768 27.7565C28.2554 27.3032 28.888 26.9325 29.5742 26.6442C29.7307 26.5586 29.7307 26.4932 29.5742 26.4479C25.8447 27.184 22.1588 27.0096 18.5166 25.9245C17.6989 26.3294 17.6334 26.7874 18.3203 27.2985C20.2921 27.842 22.2987 28.1909 24.3398 28.3454C22.9264 30.5861 21.4651 32.789 19.9561 34.9538C17.7721 33.729 15.6565 32.3985 13.6094 30.9626C13.194 30.7369 12.7579 30.5624 12.3008 30.4391C8.20737 29.8729 4.10711 29.3713 0 28.9343C0 24.5286 0 20.1231 0 15.7175Z" fill="white"/>
<path opacity="0.956" fill-rule="evenodd" clip-rule="evenodd" d="M62.8124 15.7175C63.8663 15.4247 64.5205 15.7956 64.7753 16.8298C64.773 17.3986 64.5113 17.7912 63.9902 18.0075C60.7799 18.5353 57.5957 19.1896 54.4374 19.9704C52.6538 20.5786 50.9527 21.3638 49.3339 22.3259C48.4385 22.5665 47.8496 22.2394 47.5673 21.3444C47.0872 20.48 47.0436 19.6076 47.4365 18.7272C47.6222 18.6016 47.8184 18.4926 48.0253 18.4001C52.9772 17.5314 57.9063 16.6371 62.8124 15.7175Z" fill="white"/>
<path opacity="0.938" fill-rule="evenodd" clip-rule="evenodd" d="M40.959 19.2507C41.5435 19.2026 42.1105 19.2681 42.6602 19.447C43.1836 19.8831 43.1836 20.3194 42.6602 20.7556C41.526 21.3226 40.392 21.8897 39.2578 22.4567C39.0834 22.544 38.9088 22.544 38.7344 22.4567C38.0946 21.8828 37.5276 21.2502 37.0332 20.5593C37.1039 20.396 37.1912 20.2432 37.2949 20.1013C38.5416 19.8568 39.7629 19.5732 40.959 19.2507Z" fill="white"/>
<path opacity="0.924" fill-rule="evenodd" clip-rule="evenodd" d="M43.9687 19.2507C44.6573 19.2108 45.3333 19.2545 45.997 19.3815C46.1983 20.247 46.5037 21.0758 46.9131 21.8679C47.0303 22.1983 46.9649 22.4819 46.7168 22.7185C46.28 22.9697 45.822 23.166 45.3427 23.3073C45.1188 23.3153 44.9444 23.228 44.8193 23.0456C44.4267 22.1296 44.0342 21.2136 43.6416 20.2976C43.4894 19.8433 43.5984 19.4943 43.9687 19.2507Z" fill="white"/>
<path opacity="0.945" fill-rule="evenodd" clip-rule="evenodd" d="M63.0742 20.4284C64.3964 20.2457 64.9417 20.8129 64.7099 22.1296C64.6009 22.4131 64.4046 22.6094 64.1211 22.7184C59.4592 23.873 54.7918 25.0072 50.1191 26.1208C49.7265 26.2081 49.334 26.2081 48.9414 26.1208C48.6578 26.0118 48.4615 25.8155 48.3525 25.5319C48.0078 24.6889 48.1168 23.9255 48.6797 23.2419C49.4842 23.237 50.2912 23.2588 51.1006 23.3073C51.87 23.3061 52.6333 23.2407 53.3906 23.111C56.659 22.3043 59.8869 21.4101 63.0742 20.4284Z" fill="white"/>
<path opacity="0.895" fill-rule="evenodd" clip-rule="evenodd" d="M43.0528 21.3444C43.6642 21.3429 43.9042 21.6483 43.7725 22.2604C43.0092 23.0237 42.2458 23.7872 41.4825 24.5505C41.2804 24.7058 41.0623 24.7494 40.8282 24.6813C40.3482 24.1809 40.1519 23.5921 40.2393 22.9147C41.1747 22.3712 42.1126 21.8477 43.0528 21.3444Z" fill="white"/>
<path opacity="0.93" fill-rule="evenodd" clip-rule="evenodd" d="M43.8379 23.3073C44.1104 23.3235 44.3067 23.4544 44.4268 23.6999C44.6593 24.3948 44.8338 25.0926 44.9502 25.7936C44.7436 25.9953 44.5036 26.148 44.2305 26.2516C43.5099 26.5795 42.7684 26.7976 42.0059 26.9059C41.5433 26.5517 41.3906 26.0937 41.5479 25.5319C42.2976 24.7602 43.0609 24.0187 43.8379 23.3073Z" fill="white"/>
<path opacity="0.911" fill-rule="evenodd" clip-rule="evenodd" d="M46.8477 23.4382C47.0628 23.4102 47.2591 23.4539 47.4365 23.569C47.4136 24.5004 47.5662 25.3945 47.8945 26.2516C47.9025 26.4755 47.8152 26.65 47.6328 26.7751C47.2256 26.946 46.8111 27.0986 46.3896 27.2331C46.2886 27.2141 46.2013 27.1705 46.1279 27.1022C45.8056 26.2074 45.6312 25.2914 45.6045 24.3542C46.016 24.0302 46.4305 23.7247 46.8477 23.4382Z" fill="white"/>
<path opacity="0.915" fill-rule="evenodd" clip-rule="evenodd" d="M33.8925 26.8405C34.8511 26.774 35.2218 27.2103 35.0048 28.1491C33.4582 29.0429 32.0406 30.1115 30.7519 31.3552C29.55 31.5931 29.1355 31.1351 29.5087 29.9811C31.0666 29.0536 32.5279 28.0067 33.8925 26.8405Z" fill="white"/>
<path opacity="0.929" fill-rule="evenodd" clip-rule="evenodd" d="M44.6231 26.8405C45.342 26.7956 45.7129 27.1445 45.7354 27.8874C45.9997 29.4106 45.3671 30.1739 43.8379 30.1774C43.7181 30.1285 43.6089 30.0631 43.5108 29.9811C43.2491 29.4577 42.9873 28.9343 42.7256 28.4108C42.6383 28.1927 42.6383 27.9747 42.7256 27.7565C43.3479 27.4121 43.9803 27.1067 44.6231 26.8405Z" fill="white"/>
<path opacity="0.913" fill-rule="evenodd" clip-rule="evenodd" d="M35.9863 28.6725C37.0292 28.6647 37.3564 29.1446 36.9677 30.112C35.446 30.9355 34.072 31.9605 32.8457 33.1872C31.7628 33.4564 31.3048 33.0419 31.4716 31.944C33.0735 30.9728 34.5784 29.8822 35.9863 28.6725Z" fill="white"/>
<path opacity="0.901" fill-rule="evenodd" clip-rule="evenodd" d="M26.4336 28.8034C27.3712 28.6722 27.7419 29.0647 27.5459 29.9811C26.5053 30.8901 25.611 31.9151 24.8633 33.0563C24.1123 33.3788 23.6324 33.1389 23.4238 32.3366C23.4525 32.1484 23.5179 31.974 23.6201 31.8132C24.7214 30.9521 25.6593 29.9488 26.4336 28.8034Z" fill="white"/>
<path opacity="0.92" fill-rule="evenodd" clip-rule="evenodd" d="M37.6875 29.9811C38.5634 30.0053 38.9341 30.4416 38.7998 31.2897C37.5205 32.1764 36.3647 33.2016 35.3321 34.3649C34.7305 34.6973 34.2289 34.5883 33.8272 34.0378C33.7284 33.671 33.7719 33.322 33.958 32.9909C35.3659 32.1891 36.6091 31.186 37.6875 29.9811Z" fill="white"/>
<path opacity="0.906" fill-rule="evenodd" clip-rule="evenodd" d="M28.2656 31.1589C29.3445 31.0364 29.7153 31.4725 29.3779 32.4675C28.8589 32.8553 28.3791 33.2915 27.9385 33.7761C27.5278 34.4004 27.0698 34.9893 26.5644 35.5427C25.598 35.6666 25.2272 35.2522 25.4521 34.2995C26.5418 33.3826 27.4797 32.3357 28.2656 31.1589Z" fill="white"/>
<path opacity="0.95" fill-rule="evenodd" clip-rule="evenodd" d="M40.959 31.944C41.4776 31.8903 41.9575 31.9993 42.3985 32.2712C42.8129 32.6856 43.2272 33.0999 43.6416 33.5143C44.3309 34.7957 43.9819 35.6245 42.5948 36.0007C42.3678 35.9027 42.128 35.8372 41.875 35.8044C41.3297 35.2591 40.7846 34.7139 40.2393 34.1686C39.7999 33.1733 40.0399 32.4319 40.959 31.944Z" fill="white"/>
<path opacity="0.907" fill-rule="evenodd" clip-rule="evenodd" d="M30.6211 32.86C31.4109 33.0045 31.6945 33.4407 31.4717 34.1686C30.6311 34.889 29.9114 35.7178 29.3126 36.655C28.3345 36.9622 27.8765 36.6134 27.9385 35.6081C28.9537 34.7885 29.8479 33.8725 30.6211 32.86Z" fill="white"/>
<path opacity="0.89" fill-rule="evenodd" clip-rule="evenodd" d="M22.6387 33.1218C23.3316 33.0515 23.6587 33.3569 23.6201 34.0378C23.3011 34.6616 22.9303 35.2505 22.5078 35.8044C21.7438 35.9981 21.3731 35.7145 21.3955 34.9538C21.7175 34.2617 22.1318 33.651 22.6387 33.1218Z" fill="white"/>
<path opacity="0.934" fill-rule="evenodd" clip-rule="evenodd" d="M37.8184 33.7761C38.2735 33.7347 38.7098 33.8001 39.127 33.9724C39.6286 34.4739 40.1303 34.9757 40.6319 35.4772C41.044 37.1156 40.4114 37.7917 38.7344 37.5056C38.0088 36.9981 37.4199 36.3656 36.9678 35.6081C36.7963 34.7739 37.0798 34.1631 37.8184 33.7761Z" fill="white"/>
<path opacity="0.901" fill-rule="evenodd" clip-rule="evenodd" d="M32.9766 34.2995C33.8955 34.2142 34.2445 34.6068 34.0235 35.4772C33.2015 36.1025 32.5472 36.8658 32.0606 37.7673C31.5791 37.9859 31.1647 37.8768 30.8174 37.4401C30.7301 37.1784 30.7301 36.9167 30.8174 36.655C31.7015 36.0113 32.4212 35.2261 32.9766 34.2995Z" fill="white"/>
<path opacity="0.896" fill-rule="evenodd" clip-rule="evenodd" d="M24.6015 35.3464C25.3639 35.3015 25.691 35.6505 25.583 36.3932C25.2931 36.9952 24.9224 37.5404 24.4707 38.029C23.7121 38.2287 23.3413 37.9451 23.3583 37.1784C23.7037 36.5087 24.118 35.8979 24.6015 35.3464Z" fill="white"/>
<path opacity="0.943" fill-rule="evenodd" clip-rule="evenodd" d="M35.7246 36.0007C36.6974 36.2962 37.4172 36.9069 37.8838 37.8327C38.0285 38.8954 37.5705 39.506 36.5098 39.6647C35.6282 39.4165 34.952 38.8931 34.4815 38.0944C34.1988 36.9559 34.6132 36.2581 35.7246 36.0007Z" fill="white"/>
<path opacity="0.94" fill-rule="evenodd" clip-rule="evenodd" d="M47.6329 36.3933C48.088 36.3519 48.5243 36.4173 48.9415 36.5895C50.9479 38.1599 52.9545 39.7302 54.961 41.3005C55.4992 41.7597 55.6082 42.305 55.2881 42.9362C54.7261 43.4365 54.1372 43.4582 53.5215 43.0016C51.4714 41.3878 49.4213 39.7737 47.3712 38.1599C46.9828 37.5018 47.07 36.9129 47.6329 36.3933Z" fill="white"/>
<path opacity="0.938" fill-rule="evenodd" clip-rule="evenodd" d="M16.2266 36.5241C17.2275 36.4998 17.6418 36.9796 17.4697 37.9636C17.3934 38.1601 17.2844 38.3345 17.1426 38.487C14.2201 39.8174 11.2975 41.1478 8.375 42.4782C7.49268 42.7136 6.96924 42.3865 6.80469 41.4968C6.84826 41.1683 6.97912 40.8847 7.19727 40.6462C10.2189 39.2657 13.2286 37.8917 16.2266 36.5241Z" fill="white"/>
<path opacity="0.895" fill-rule="evenodd" clip-rule="evenodd" d="M27.0879 36.9167C27.785 36.7433 28.134 37.005 28.1348 37.7018C28.0403 38.3342 27.8659 38.9449 27.6114 39.5339C27.1922 39.877 26.7778 39.877 26.3682 39.5339C26.3287 38.5837 26.5687 37.7114 27.0879 36.9167Z" fill="white"/>
<path opacity="0.897" fill-rule="evenodd" clip-rule="evenodd" d="M30.2285 37.9636C30.8891 37.8542 31.2381 38.1159 31.2754 38.7487C31.175 39.4643 30.9569 40.1404 30.6211 40.777C29.9849 41.0696 29.5923 40.8734 29.4434 40.1882C29.5514 39.3835 29.8132 38.6421 30.2285 37.9636Z" fill="white"/>
<path opacity="0.945" fill-rule="evenodd" clip-rule="evenodd" d="M33.1074 38.2253C34.2095 38.5639 34.9511 39.2837 35.332 40.3845C35.0291 41.7467 34.2439 42.1393 32.9766 41.5622C32.3013 41.0851 31.8652 40.4526 31.668 39.6647C31.8111 38.8236 32.291 38.3438 33.1074 38.2253Z" fill="white"/>
<path opacity="0.939" fill-rule="evenodd" clip-rule="evenodd" d="M41.2207 42.6745C41.7038 42.6053 42.1181 42.7361 42.4639 43.0671C43.9906 45.3353 45.5172 47.6036 47.0439 49.8718C47.4343 50.7941 47.129 51.3611 46.1279 51.5729C45.6786 51.5164 45.3297 51.2983 45.081 50.9186C43.6305 48.6715 42.1473 46.4469 40.6318 44.2448C40.3476 43.5473 40.5439 43.0239 41.2207 42.6745Z" fill="white"/>
<path opacity="0.937" fill-rule="evenodd" clip-rule="evenodd" d="M21.7226 43.0671C22.8601 43.0934 23.2745 43.6605 22.9658 44.7682C21.9443 47.1782 20.8974 49.5772 19.8252 51.9655C18.3742 52.5209 17.8072 52.041 18.124 50.5261C19.1349 48.1117 20.1818 45.7125 21.2646 43.3288C21.435 43.2522 21.5877 43.1651 21.7226 43.0671Z" fill="white"/>
<path opacity="0.941" fill-rule="evenodd" clip-rule="evenodd" d="M31.5371 45.4225C32.7756 45.5264 33.2117 46.2025 32.8457 47.4509C32.7545 49.6981 32.6454 51.9446 32.5186 54.1901C32.1473 54.9808 31.5584 55.1771 30.752 54.779C30.5338 54.5404 30.403 54.2569 30.3594 53.9284C30.5139 51.3128 30.6665 48.6956 30.8174 46.0768C30.9943 45.7825 31.2342 45.5644 31.5371 45.4225Z" fill="white"/>
</svg>
