<svg width="66" height="64" viewBox="0 0 66 64" fill="none" xmlns="http://www.w3.org/2000/svg">
<path opacity="0.99" fill-rule="evenodd" clip-rule="evenodd" d="M34.2958 0C34.8418 0.21703 35.2998 0.565993 35.6698 1.04688C37.1216 3.71495 39.368 4.78364 42.4091 4.25293C45.1776 3.78647 47.9256 3.21942 50.6532 2.55176C54.3042 1.83449 57.2922 2.90317 59.6171 5.75781C60.5283 7.33608 60.7027 8.99362 60.1405 10.7305C58.8729 13.2435 57.2372 15.49 55.2333 17.4697C55.4296 17.7533 55.6259 18.0367 55.8222 18.3203C57.3072 17.761 58.7685 17.8264 60.206 18.5166C61.4586 19.3326 62.6363 20.2487 63.7392 21.2646C64.2697 21.6172 64.8368 21.9008 65.4403 22.1152C65.8147 22.7932 65.6839 23.3821 65.0478 23.8818C64.6763 24.1331 64.2837 24.3512 63.87 24.5361C62.6898 24.7986 61.5556 25.1912 60.4677 25.7139C58.0101 26.239 55.851 25.6501 53.9901 23.9473C54.2072 24.9977 54.7961 25.8047 55.7567 26.3682C56.9723 27.0153 58.259 27.4297 59.6171 27.6113C59.7405 30.3365 60.0459 33.0408 60.5331 35.7246C61.2383 38.5669 61.8708 41.4239 62.4306 44.2959C62.4134 44.5907 62.348 44.8742 62.2343 45.1465C62.086 45.3704 61.8897 45.4358 61.6454 45.3428C61.3188 45.2014 61.0134 45.0269 60.7294 44.8193C59.8528 43.9865 59.024 43.1141 58.2431 42.2021C58.005 42.0997 57.8306 42.1651 57.7196 42.3984C59.2451 46.0804 60.5754 49.8316 61.7108 53.6523C61.776 54.0864 61.7979 54.5226 61.7763 54.9609C60.3375 54.6673 59.007 54.1003 57.7851 53.2598C57.7196 53.3252 57.6542 53.3906 57.5888 53.4561C59.0943 55.662 60.3811 57.9956 61.4491 60.457C61.7348 61.1761 61.8219 61.9176 61.7108 62.6816C61.6454 62.8344 61.5364 62.9434 61.3837 63.0088C48.385 63.0961 35.3863 63.0961 22.3876 63.0088C22.0225 62.7196 21.9135 62.3487 22.0605 61.8965C24.0426 59.1037 25.9182 56.2685 27.6874 53.3906C26.9089 54.0816 26.0583 54.6704 25.1357 55.1572C24.8407 55.3077 24.5354 55.3514 24.2196 55.2881C24.049 55.1829 23.9617 55.0302 23.9579 54.8301C24.409 53.2732 25.0414 51.7901 25.8554 50.3809C27.0767 48.1998 28.2981 46.0189 29.5194 43.8379C29.7942 43.4496 30.1651 43.2098 30.6317 43.1182C32.8227 42.9348 35.0038 42.6731 37.1747 42.333C39.2208 42.0407 40.9439 41.1465 42.3437 39.6504C43.0617 38.4411 43.1925 37.1761 42.7362 35.8555C42.2224 35.5107 41.8516 35.6415 41.6239 36.248C42.1212 38.3722 41.336 39.7898 39.2685 40.501C38.2921 40.865 37.2888 41.1267 36.2587 41.2861C33.7771 41.591 31.2908 41.8528 28.7997 42.0713C27.8612 42.1809 27.1415 42.639 26.6405 43.4453C26.1607 44.3178 25.6809 45.1901 25.2011 46.0625C24.9445 46.4502 24.6392 46.7991 24.2851 47.1094C24.1653 47.001 24.0782 46.8702 24.0233 46.7168C23.9798 46.0625 23.9361 45.4082 23.8925 44.7539C23.4126 45.6263 22.9329 46.4987 22.453 47.3711C22.0776 47.7904 21.6633 48.1611 21.2099 48.4834C20.7736 48.642 20.4464 48.533 20.2284 48.1562C20.1771 47.8045 20.1117 47.4555 20.0321 47.1094C20.1457 46.1834 20.2549 45.2674 20.3593 44.3613C19.5976 45.1607 18.6597 45.5098 17.5458 45.4082C17.5249 45.1859 17.5466 44.9677 17.6112 44.7539C18.0474 43.9688 18.4837 43.1836 18.9198 42.3984C19.1742 41.8988 19.2615 41.3754 19.1816 40.8281C18.7271 40.493 18.3345 40.1004 18.0038 39.6504C17.4847 38.654 16.9177 37.6944 16.3026 36.7715C16.2154 36.3789 16.2154 35.9863 16.3026 35.5938C16.6516 34.983 17.0005 34.3724 17.3495 33.7617C17.4994 32.9368 17.6302 32.1079 17.7421 31.2754C17.873 31.0137 18.0038 30.752 18.1347 30.4902C19.0113 29.6574 19.84 28.785 20.621 27.873C22.3117 25.058 24.1 22.31 25.9862 19.6289C27.125 18.2719 28.39 17.0506 29.7812 15.9648C29.7002 14.4908 30.289 13.3785 31.5478 12.6279C32.5351 12.1125 33.5384 11.6326 34.5575 11.1885C34.8931 10.675 34.7622 10.2824 34.1649 10.0107C33.1961 9.54185 32.171 9.30194 31.0898 9.29102C29.2577 9.69904 27.4475 9.63361 25.6591 9.09473C23.0219 7.8172 21.5606 5.70165 21.2753 2.74805C21.1591 2.07833 21.2027 1.42404 21.4062 0.785156C21.5518 0.626672 21.7045 0.626672 21.8642 0.785156C21.9924 0.979011 22.1451 1.15349 22.3222 1.30859C22.7306 2.62827 23.4503 3.74058 24.4814 4.64551C25.6677 5.30069 26.9326 5.5188 28.2763 5.2998C29.9535 5.06469 31.611 4.73754 33.2489 4.31836C34.4477 6.84779 36.3671 8.57078 39.0067 9.4873C40.2529 9.82305 41.5179 10.063 42.8017 10.207C42.2488 10.7611 41.8562 11.4154 41.6239 12.1699C42.1909 12.3444 42.7581 12.3444 43.3251 12.1699C43.7161 11.3187 44.3704 10.7734 45.288 10.5342C46.9025 10.3659 48.5164 10.1915 50.1298 10.0107C50.646 9.95029 51.0386 9.71037 51.3075 9.29102C51.2583 9.04462 51.1275 8.84833 50.9149 8.70215C49.811 8.2203 48.6551 7.98039 47.4472 7.98242C45.8533 8.13845 44.2611 8.31292 42.6708 8.50586C37.9817 8.41564 35.1247 6.1038 34.0995 1.57031C33.9679 1.00742 34.0333 0.483983 34.2958 0ZM39.5302 21.4609C41.0139 21.4391 42.497 21.4609 43.9794 21.5264C46.1854 22.3831 46.9924 23.9753 46.4003 26.3027C45.9836 27.4598 45.1766 28.1795 43.9794 28.4619C42.4964 28.5492 41.0132 28.5492 39.5302 28.4619C37.3215 27.5999 36.5147 26.0078 37.1093 23.6855C37.6141 22.5909 38.421 21.8495 39.5302 21.4609ZM24.3505 31.4062C25.3139 31.5459 25.641 32.0693 25.3319 32.9766C24.473 33.513 23.5351 33.753 22.5185 33.6963C21.9907 33.2817 21.8816 32.7801 22.1913 32.1914C22.8925 31.8588 23.6122 31.597 24.3505 31.4062Z" fill="white"/>
<path opacity="0.95" fill-rule="evenodd" clip-rule="evenodd" d="M8.64734 3.5332C8.65519 3.46213 8.69881 3.41852 8.7782 3.40234C11.0554 4.90433 11.3607 6.75818 9.69421 8.96387C10.3197 9.71208 10.8649 10.519 11.33 11.3848C11.5628 12.0135 11.6283 12.6461 11.5262 13.2822C11.8687 13.2482 12.1086 13.0519 12.246 12.6934C12.3653 12.1313 12.4525 11.5643 12.5077 10.9922C12.947 10.0561 13.6231 9.83801 14.536 10.3379C13.886 10.4643 13.5807 10.8569 13.62 11.5156C13.9962 12.8677 14.2579 14.2417 14.4052 15.6377C14.282 17.6578 13.2787 19.0318 11.3954 19.7598C11.3518 19.7379 11.3081 19.7162 11.2645 19.6943C12.1297 18.1023 11.7371 16.9246 10.0868 16.1611C8.08644 16.038 7.19223 16.9759 7.40417 18.9746C7.55109 19.3343 7.74738 19.6615 7.99304 19.9561C6.26257 19.7545 5.10665 18.8167 4.52527 17.1426C4.06646 15.7751 4.11009 14.4229 4.65613 13.0859C4.74337 12.4752 4.74337 11.8646 4.65613 11.2539C4.34339 10.6501 3.84176 10.3665 3.15125 10.4033C4.93058 9.72337 5.97745 10.3341 6.29187 12.2354C6.1929 12.6541 6.25833 13.0684 6.48816 13.4785C7.08365 14.0127 7.65071 13.9691 8.18933 13.3477C8.63123 12.609 8.74028 11.8238 8.51648 10.9922C7.36496 11.6283 6.71066 11.2794 6.55359 9.94531C6.59342 9.47235 6.7461 9.03615 7.0116 8.63672C7.62228 7.93881 8.23295 7.24088 8.84363 6.54297C9.66731 5.47035 9.60188 4.46711 8.64734 3.5332Z" fill="white"/>
<path opacity="0.973" fill-rule="evenodd" clip-rule="evenodd" d="M6.68445 21.4609C7.62678 21.3105 8.30289 21.6595 8.71277 22.5078C8.7782 25.779 8.8 29.0505 8.7782 32.3223C9.03992 32.3223 9.30164 32.3223 9.56335 32.3223C9.54155 29.3994 9.56335 26.4769 9.62878 23.5547C10.0621 22.3895 10.8691 22.0187 12.0497 22.4424C12.3907 22.696 12.6306 23.0231 12.7694 23.4238C12.8348 26.7386 12.8567 30.0537 12.8348 33.3691C10.7061 33.4259 9.681 34.5164 9.75964 36.6406C10.2125 37.8511 10.6269 39.0724 11.0028 40.3047C8.41211 40.4089 7.01628 41.7612 6.81531 44.3613C7.17084 45.1657 7.58523 45.2093 8.05847 44.4922C8.01738 43.1988 8.56262 42.261 9.69421 41.6787C10.4332 41.5337 11.1747 41.4029 11.9188 41.2861C12.3905 41.1116 12.5432 40.7844 12.3768 40.3047C11.849 38.9393 11.3474 37.5653 10.8719 36.1826C10.981 35.2012 11.5262 34.6559 12.5077 34.5469C13.315 34.6449 13.8384 35.0811 14.078 35.8555C14.5579 37.1205 15.0376 38.3854 15.5175 39.6504C15.8135 40.8537 15.7262 42.0314 15.2557 43.1836C14.692 44.486 13.9941 45.7074 13.162 46.8477C13.0341 47.2063 12.9687 47.5772 12.9657 47.96C13.4627 52.8202 13.8771 57.6839 14.2089 62.5508C14.1434 62.7907 13.9907 62.9434 13.7509 63.0088C10.4794 63.0961 7.20789 63.0961 3.9364 63.0088C3.62819 62.7856 3.4537 62.4801 3.41296 62.0928C3.97044 57.1946 4.38483 52.2874 4.65613 47.3711C4.5827 47.0799 4.45184 46.8182 4.26355 46.5859C3.10984 45.4778 2.34649 44.1475 1.97351 42.5947C1.99533 42.442 2.01713 42.2894 2.03894 42.1367C4.18089 42.6823 5.46768 41.8535 5.89929 39.6504C5.79337 39.4448 5.74976 39.2267 5.76843 38.9961C7.49443 38.8841 8.45407 37.9681 8.64734 36.2481C8.13902 34.5723 7.4629 32.9583 6.61902 31.4063C6.35514 31.1205 6.07162 30.8587 5.76843 30.6211C5.6158 27.8741 5.59398 25.1261 5.703 22.377C5.93101 21.9522 6.25816 21.6469 6.68445 21.4609Z" fill="white"/>
<path opacity="0.921" fill-rule="evenodd" clip-rule="evenodd" d="M39.0067 23.6855C40.8829 23.6637 42.7586 23.6855 44.6337 23.751C44.9173 23.86 45.1136 24.0563 45.2226 24.3398C45.3098 24.8197 45.3098 25.2994 45.2226 25.7793C45.1136 26.0629 44.9173 26.2591 44.6337 26.3682C42.7581 26.4554 40.8824 26.4554 39.0067 26.3682C38.5172 26.0825 38.2992 25.6463 38.3524 25.0596C38.3111 24.4576 38.5292 23.9996 39.0067 23.6855Z" fill="white"/>
<path opacity="0.952" fill-rule="evenodd" clip-rule="evenodd" d="M3.93643 31.4062C4.55691 31.3586 5.10216 31.5332 5.57217 31.9297C6.2942 33.3334 6.92668 34.7729 7.46963 36.248C7.33041 37.1943 6.78516 37.7177 5.83389 37.8184C5.38177 37.7698 4.98919 37.5952 4.65615 37.2949C4.01192 36.0499 3.40124 34.785 2.82412 33.5C2.61725 32.4794 2.98801 31.7814 3.93643 31.4062Z" fill="white"/>
<path opacity="0.947" fill-rule="evenodd" clip-rule="evenodd" d="M1.05748 34.8086C1.84838 34.7012 2.48087 34.9629 2.95494 35.5938C3.3118 36.4383 3.70437 37.2672 4.13268 38.0801C4.66899 38.9343 4.71261 39.8068 4.26354 40.6973C3.39539 41.4292 2.56662 41.3856 1.77721 40.5664C1.22854 39.4872 0.705109 38.3966 0.206896 37.2949C-0.242867 36.1924 0.0406616 35.3637 1.05748 34.8086Z" fill="white"/>
</svg>
