<svg width="70" height="70" viewBox="0 0 70 70" fill="none" xmlns="http://www.w3.org/2000/svg">
<path d="M6.41101 0.34119C4.98939 0.924053 4.00847 1.59222 2.81431 2.77216C1.50642 4.06584 0.795609 5.28843 0.326474 7.09389C0.0137169 8.24541 -0.100013 10.6479 0.0990142 11.7995C0.212744 12.4392 0.212744 12.4392 1.52064 13.1216C5.43009 15.1545 9.31112 18.8365 12.4245 23.4994C14.0878 25.973 16.2486 30.1952 17.059 32.5409C17.5707 34.0336 17.656 34.1758 18.0967 34.3606C18.3526 34.4743 18.5943 34.5312 18.637 34.4885C18.708 34.4175 17.3148 30.3658 16.8031 29.1717C16.4619 28.3614 16.4761 28.205 16.8884 27.9349C17.1585 27.7501 17.3006 27.7358 17.5281 27.8496C17.8408 28.0202 18.5232 29.7261 19.6179 33.0101L20.3145 35.0856L20.9542 35.3415C21.3096 35.4695 22.0773 35.8249 22.6744 36.1234C23.6695 36.621 23.8117 36.6494 24.6362 36.5783C25.4607 36.5072 25.5176 36.4646 25.4465 36.1945C24.5936 33.2375 24.8494 30.4085 26.1858 27.9491L26.5554 27.2667L26.1431 26.9539C25.1622 26.2574 23.5273 24.7078 22.7881 23.7979C21.6792 22.4332 21.2101 21.6939 20.4851 20.2439C19.2483 17.7703 18.6796 15.2967 18.6796 12.3823V10.5911L17.4854 10.3352C13.9172 9.61016 11.2587 8.43022 9.56701 6.838C7.81842 5.21735 7.09339 3.52562 7.1929 1.26524C7.20712 0.568649 7.23555 0 7.23555 0C7.23555 0 6.86593 0.15638 6.41101 0.34119ZM5.71442 5.00411C5.98453 5.27422 5.91345 5.68649 5.47274 6.24092C4.42074 7.57724 4.06534 9.34006 4.46339 11.2308C4.66242 12.1975 4.53447 12.5103 3.95161 12.5103C3.52512 12.5103 3.25501 12.0838 3.05599 11.1171C2.61528 8.97043 3.12707 6.86643 4.49182 5.33108C4.93253 4.8193 5.40166 4.69135 5.71442 5.00411ZM12.2539 11.0318C13.5618 11.3019 15.4667 11.9416 16.3055 12.3965C16.931 12.7519 17.1443 13.2069 16.8315 13.5907C16.5756 13.8892 16.3055 13.8466 15.0403 13.3064C12.8083 12.3681 10.3205 11.9416 8.72826 12.2259C6.89436 12.5671 6.9228 12.5671 6.73799 12.2259C6.56739 11.899 6.72377 11.245 6.97966 11.2308C7.05074 11.2166 7.42036 11.1313 7.8042 11.0176C8.77091 10.7475 10.9176 10.7617 12.2539 11.0318Z" fill="white"/>
<path d="M23.4564 8.13172C23.3569 8.31653 23.2147 8.8994 23.172 9.43961C23.0867 10.2499 23.1152 10.4632 23.3142 10.6764C23.9255 11.3588 24.4373 10.8044 24.5652 9.28323C24.6363 8.45869 24.6079 8.21702 24.4231 8.04642C24.1103 7.71945 23.698 7.7621 23.4564 8.13172Z" fill="white"/>
<path d="M23.7406 14.3015C23.6127 14.4152 23.5132 14.5716 23.5132 14.6427C23.5132 14.927 24.2382 17.2158 24.5652 17.9551C24.9206 18.737 24.9632 18.7796 25.3897 18.737C26.129 18.6659 26.1858 18.3673 25.6883 17.1163C25.4466 16.4908 25.148 15.6094 25.0201 15.1545C24.9064 14.6853 24.7216 14.2588 24.622 14.202C24.3377 14.0172 23.9823 14.0598 23.7406 14.3015Z" fill="white"/>
<path d="M49.3864 14.8702C47.0834 15.1403 47.1687 15.1118 47.055 15.7942C46.927 16.633 46.0741 18.7654 45.3064 20.187C43.5862 23.3999 41.07 26.7407 37.0894 31.0766C35.6109 32.6831 35.2555 33.1664 34.4594 34.6876C33.9476 35.6543 33.2652 36.7347 32.9241 37.1185C32.0995 38.0426 31.6162 38.1848 30.1519 37.9431C28.7871 37.7156 25.8302 37.7156 24.5223 37.9431C23.6409 38.0852 23.6124 38.0852 22.532 37.545C20.556 36.5641 17.5279 35.5121 15.2817 35.043C14.116 34.8013 12.4527 34.7302 12.2963 34.915C12.2395 34.9861 12.0689 35.3557 11.9409 35.7253C11.5855 36.6778 11.1448 37.1612 10.7468 37.0475C10.1497 36.8484 10.1497 36.5499 10.7326 35.0998C11.0311 34.3464 11.3154 33.5645 11.3581 33.3655C11.4576 32.9958 11.4576 32.9816 10.9884 33.1522C9.83693 33.5503 8.87023 35.0856 8.65698 36.8626C8.51482 37.9573 8.20206 38.2843 7.57655 37.9573C6.83731 37.5592 7.6192 34.4459 8.79915 33.1522C9.23985 32.6546 9.33936 32.4414 9.39623 31.7306C9.43887 31.2615 9.41044 30.7781 9.33936 30.6502C9.22563 30.4369 9.12612 30.508 8.62855 31.1619C6.93682 33.3655 6.14071 36.3082 5.97012 40.9143L5.87061 43.2173L6.19758 43.3452C6.38239 43.4021 6.76623 43.5016 7.06477 43.5443C7.59077 43.6296 7.6192 43.6153 8.10255 42.8477C8.45796 42.2932 8.85601 41.9094 9.50996 41.4971C10.3771 40.9569 11.4291 39.9191 11.4291 39.6206C11.4291 39.5495 11.1733 39.5211 10.8605 39.5637C10.1781 39.649 9.82271 39.3931 9.89379 38.8245C9.96487 38.2274 10.7041 38.0568 13.2062 38.0568C14.9405 38.0426 15.5803 38.0995 16.6038 38.3553C18.8074 38.9098 21.3805 40.3172 22.4894 41.5824C23.0011 42.1653 23.0296 42.2648 22.7168 42.5633C22.3756 42.9188 21.9634 42.8335 21.3521 42.279C21.0393 42.0089 20.755 41.8099 20.7123 41.8525C20.5986 41.952 21.1957 43.857 21.6648 44.8664C22.1908 46.0179 23.058 47.2973 23.7688 47.9371C24.0816 48.2214 25.0341 48.918 25.8728 49.4866L27.4082 50.5102L29.0572 50.1975C31.2892 49.7568 31.6872 49.8705 33.4358 51.4343C34.4878 52.3725 34.7722 52.8701 34.4594 53.2397C34.104 53.6804 33.6207 53.4814 32.5402 52.4578C31.9716 51.9176 31.3176 51.4343 31.1044 51.3774C30.7205 51.2779 29.7254 51.4058 28.0905 51.747C27.2091 51.946 26.541 52.4578 26.3846 53.0691C26.2424 53.6236 26.4557 55.5285 26.7258 56.0403C26.8395 56.2536 27.1381 56.5379 27.394 56.6658C28.2754 57.1207 28.8014 57.6183 29.1425 58.3433C29.8249 59.7934 29.5548 60.3052 27.991 60.49C27.0243 60.6037 26.4272 60.8596 26.214 61.2577C26.1429 61.414 26.0718 61.9543 26.0718 62.466C26.0718 63.1911 26.1145 63.4043 26.2709 63.4043C26.3846 63.4043 26.5268 63.2764 26.5694 63.12C26.7116 62.6509 27.3513 61.9827 27.9342 61.6984C28.3607 61.4709 28.7729 61.414 29.7965 61.414H31.1186L31.5735 58.4144C31.8294 56.7653 32.1137 55.3153 32.199 55.2158C32.4123 54.9599 32.9525 54.9599 33.18 55.23C33.3079 55.3864 33.3221 55.6991 33.2368 56.3957C33.1089 57.6183 33.1089 57.6467 33.6917 59.4096C34.957 63.2479 37.2031 66.5887 39.5772 68.1952C41.5533 69.5315 45.7329 70.0149 48.3344 69.2187C49.7134 68.7923 50.1968 68.5222 52.4003 66.9299C55.1582 64.9397 56.0396 63.9019 56.5372 62.1249C56.7504 61.3572 56.9352 59.1395 56.7789 59.1395C56.6509 59.1395 54.7033 61.1724 54.3763 61.6557C53.9214 62.3239 53.5376 63.5465 53.4238 64.6696C53.3385 65.5936 53.2817 65.7073 52.7415 66.2476C51.0213 67.9535 48.2207 68.8207 45.2211 68.5932C42.8896 68.4226 41.3543 67.7403 40.0037 66.3044C38.4115 64.5843 37.7291 62.6366 37.7291 59.765C37.7291 54.4055 36.7767 49.7425 35.3692 48.065C34.8859 47.4822 34.9712 47.1694 35.8384 46.2596C38.7811 43.2031 43.373 41.881 48.6188 42.5918L49.2158 42.6771L49.3154 42.0516C49.5002 40.9853 50.3247 38.6255 50.9929 37.3033C53.0542 33.2233 56.4377 30.3943 60.4751 29.3707L61.7972 29.0295L62.0531 27.7785C62.707 24.5656 64.6404 22.4758 67.6543 21.6797C68.1234 21.566 68.8342 21.4665 69.2465 21.4665C69.7014 21.4665 69.9999 21.4096 69.9999 21.3101C69.9999 21.2248 69.7156 20.713 69.346 20.1728C67.4552 17.3153 63.887 15.5241 58.8118 14.8559C56.7789 14.5858 51.661 14.6 49.3864 14.8702ZM49.3722 16.4766C49.7276 16.832 49.6708 17.3296 49.0168 19.3056C47.7231 23.2293 44.7235 27.6363 39.3214 33.5076C38.3404 34.588 38.0419 34.8297 37.7007 34.8297C37.4022 34.8297 37.2458 34.7302 37.1321 34.4743C36.9472 34.062 36.9472 34.062 39.2076 31.6026C44.1833 26.2289 47.6663 20.6704 48.1923 17.23C48.2491 16.8462 48.4055 16.5477 48.5903 16.4197C48.9742 16.1496 49.0452 16.1496 49.3722 16.4766ZM51.9169 19.6184C54.2484 20.1728 56.196 21.3101 57.8593 23.0729C59.0108 24.2813 59.878 25.646 60.3471 27.025C60.731 28.1339 60.603 28.4751 59.8496 28.404C59.4657 28.3613 59.3946 28.2761 59.0961 27.4657C58.6128 26.0868 57.8309 24.9068 56.5798 23.67C55.6416 22.7459 55.1724 22.3905 54.0778 21.8503C53.3385 21.4949 52.2012 21.0684 51.5615 20.912C50.9218 20.7557 50.3247 20.5993 50.2394 20.5424C49.9977 20.4003 50.0688 19.6468 50.3531 19.4904C50.6659 19.3056 50.5522 19.2914 51.9169 19.6184ZM48.0217 27.5084C48.2918 27.7927 48.9031 29.6977 49.1021 30.8776C49.4433 33.0385 49.2016 36.7205 48.5335 39.4073C48.2065 40.7152 47.8795 41.1417 47.3535 40.9569C46.9128 40.7863 46.8986 40.4593 47.3109 38.6255C48.1212 35.0572 48.1212 31.8159 47.3251 29.3423C47.1403 28.731 46.9697 28.0912 46.9697 27.9206C46.9697 27.3378 47.5952 27.0961 48.0217 27.5084ZM7.91774 39.9618C8.31579 40.5873 7.56233 41.3123 6.89417 40.9427C6.55298 40.7721 6.4819 40.1182 6.76623 39.8338C7.0079 39.5922 7.73293 39.6775 7.91774 39.9618Z" fill="white"/>
<path d="M26.7544 20.4855C26.2853 20.7556 26.4559 21.3101 27.2947 22.3336C28.5599 23.8832 31.46 26.3 32.0571 26.3C32.3983 26.3 32.8105 25.6745 32.6542 25.4043C32.5973 25.2906 32.0144 24.8073 31.3747 24.3239C30.7208 23.8263 29.5408 22.7317 28.7447 21.8787C27.9344 21.0257 27.2236 20.3292 27.1383 20.3292C27.0672 20.3292 26.8824 20.4002 26.7544 20.4855Z" fill="white"/>
<path d="M65.0957 33.8345C64.5555 33.9767 63.8163 34.2042 63.4609 34.3321C61.9682 34.8581 59.3666 36.5214 59.0396 37.1327C58.869 37.4455 59.2102 38.0994 59.5514 38.0994C59.6509 38.0994 60.248 37.744 60.8593 37.3033C62.6079 36.0381 64.3707 35.2846 66.2615 34.9576C67.3561 34.7728 67.5836 34.6449 67.5836 34.2042C67.5836 33.4934 66.8159 33.3796 65.0957 33.8345Z" fill="white"/>
<path d="M56.8644 39.4642C56.2815 40.2319 56.2531 40.4167 56.6227 40.7863C57.0208 41.1844 57.4188 41.0138 57.9448 40.2603C58.3002 39.7343 58.3571 39.5637 58.2576 39.251C58.1723 38.9951 58.0017 38.8671 57.7458 38.8387C57.4473 38.7961 57.2767 38.924 56.8644 39.4642Z" fill="white"/>
<path d="M54.5756 43.9139C54.3624 44.3546 53.7511 46.5723 53.5805 47.5674C53.481 48.2214 53.7227 48.6194 54.2202 48.6194C54.6041 48.6194 54.86 48.1361 55.059 47.1267C55.1443 46.6576 55.3718 45.762 55.5566 45.1507C55.9688 43.857 55.8835 43.5016 55.2154 43.5016C54.9026 43.5016 54.7462 43.6011 54.5756 43.9139Z" fill="white"/>
<path d="M23.8968 52.7137C23.456 54.0216 23.0864 55.1873 23.0864 55.3152C23.0864 55.4574 23.4418 55.9976 23.8683 56.552C24.6076 57.5045 24.6644 57.5472 25.3895 57.6325C26.0434 57.7178 26.2282 57.8315 26.8253 58.4428C27.3086 58.9546 27.6072 59.1394 27.8204 59.111C28.119 59.0683 28.1047 59.0399 27.6356 58.585C27.3655 58.3291 26.8537 57.9168 26.4983 57.6609C25.6453 57.0496 25.2757 56.353 25.0767 54.903C24.8492 53.3818 24.9488 52.7421 25.5032 51.8607C25.9865 51.0788 25.9865 51.1072 25.0767 50.567L24.7213 50.3538L23.8968 52.7137Z" fill="white"/>
<path d="M32.5547 60.9876C32.5263 61.1866 32.4267 61.5989 32.3699 61.9116C32.2704 62.3523 32.1424 62.5371 31.8012 62.7077L31.3463 62.9352L31.8297 63.7455C32.8959 65.5083 34.545 67.0863 36.2936 68.0104C38.1274 68.9771 38.1843 68.9344 36.9333 67.6408C35.2842 65.949 33.9763 63.8877 32.9527 61.414C32.6684 60.7175 32.6258 60.6748 32.5547 60.9876Z" fill="white"/>
<path d="M29.7113 63.7597C29.626 64.5558 29.7113 64.8117 30.0809 64.8259C30.3368 64.8259 30.3368 63.9587 30.0809 63.4611L29.8108 62.9351L29.7113 63.7597Z" fill="white"/>
</svg>
