<svg width="27" height="27" viewBox="0 0 27 27" fill="none" xmlns="http://www.w3.org/2000/svg">
<path d="M2.47281 0.131608C1.92448 0.356427 1.54612 0.614146 1.08552 1.06927C0.581046 1.56825 0.306877 2.03983 0.125925 2.73622C0.00529081 3.18037 -0.0385763 4.10706 0.0381911 4.55122C0.0820582 4.79797 0.0820582 4.79797 0.58653 5.06117C2.09446 5.8453 3.59143 7.26549 4.79229 9.06405C5.43384 10.0182 6.26732 11.6467 6.57987 12.5515C6.77727 13.1272 6.81017 13.1821 6.98016 13.2534C7.07886 13.2972 7.17208 13.3192 7.18853 13.3027C7.21594 13.2753 6.67857 11.7125 6.48117 11.2519C6.34957 10.9394 6.35505 10.879 6.51407 10.7749C6.61825 10.7036 6.67309 10.6981 6.76082 10.742C6.88146 10.8078 7.14466 11.4658 7.56688 12.7324L7.83557 13.533L8.08232 13.6317C8.2194 13.6811 8.51551 13.8181 8.74581 13.9333C9.12965 14.1252 9.18448 14.1362 9.50252 14.1088C9.82055 14.0813 9.84249 14.0649 9.81507 13.9607C9.48607 12.8202 9.58477 11.729 10.1002 10.7803L10.2428 10.5171L10.0838 10.3965C9.7054 10.1278 9.07481 9.53013 8.78968 9.1792C8.36197 8.65279 8.18102 8.36766 7.90137 7.80835C7.42431 6.85424 7.20498 5.90013 7.20498 4.77604V4.08513L6.74437 3.98643C5.36804 3.70678 4.34265 3.25165 3.69013 2.63752C3.01567 2.01241 2.73602 1.35989 2.7744 0.488028C2.77988 0.219342 2.79085 6.42969e-06 2.79085 6.42969e-06C2.79085 6.42969e-06 2.64828 0.0603237 2.47281 0.131608ZM2.20413 1.93016C2.30831 2.03434 2.2809 2.19336 2.11091 2.40721C1.70514 2.92265 1.56806 3.60259 1.72159 4.33188C1.79836 4.70475 1.74901 4.82539 1.52419 4.82539C1.35969 4.82539 1.2555 4.66089 1.17874 4.28802C1.00875 3.46002 1.20615 2.64848 1.73256 2.05628C1.90254 1.85887 2.08349 1.80952 2.20413 1.93016ZM4.72649 4.25512C5.23096 4.3593 5.96573 4.60605 6.28925 4.78152C6.53052 4.9186 6.61277 5.09407 6.49214 5.24212C6.39344 5.35728 6.28925 5.34083 5.80123 5.13246C4.94034 4.77055 3.98075 4.60605 3.36661 4.71572C2.65925 4.84732 2.67022 4.84732 2.59893 4.71572C2.53313 4.5896 2.59345 4.33737 2.69215 4.33188C2.71957 4.3264 2.86214 4.2935 3.01019 4.24963C3.38306 4.14545 4.21105 4.15093 4.72649 4.25512Z" fill="#AC0C14"/>
<path d="M9.04744 3.13652C9.00906 3.2078 8.95423 3.43262 8.93778 3.64099C8.90488 3.95354 8.91584 4.03579 8.99261 4.11804C9.22839 4.38125 9.4258 4.16739 9.47515 3.58067C9.50256 3.26264 9.4916 3.16942 9.42031 3.10362C9.29968 2.9775 9.14066 2.99395 9.04744 3.13652Z" fill="#AC0C14"/>
<path d="M9.15707 5.51629C9.10772 5.56016 9.06934 5.62047 9.06934 5.64789C9.06934 5.75756 9.34899 6.64038 9.47511 6.92552C9.61219 7.22711 9.62864 7.24356 9.79314 7.22711C10.0783 7.19969 10.1002 7.08454 9.90829 6.602C9.81508 6.36073 9.69993 6.02076 9.65057 5.84529C9.60671 5.66434 9.53542 5.49984 9.49704 5.47791C9.38737 5.40662 9.25029 5.42307 9.15707 5.51629Z" fill="#AC0C14"/>
<path d="M19.049 5.73562C18.1607 5.83981 18.1936 5.82884 18.1498 6.09204C18.1004 6.41556 17.7714 7.23807 17.4753 7.78641C16.8118 9.02565 15.8413 10.3143 14.3059 11.9867C13.7356 12.6063 13.5986 12.7927 13.2915 13.3795C13.0941 13.7523 12.8309 14.1691 12.6993 14.3171C12.3813 14.6735 12.1948 14.7284 11.63 14.6352C11.1036 14.5474 9.96308 14.5474 9.45861 14.6352C9.11864 14.69 9.10767 14.69 8.69093 14.4816C7.92874 14.1033 6.76078 13.6975 5.89441 13.5165C5.44477 13.4233 4.80321 13.3959 4.74289 13.4672C4.72096 13.4946 4.65516 13.6372 4.60581 13.7798C4.46873 14.1471 4.29874 14.3336 4.14521 14.2897C3.9149 14.2129 3.9149 14.0978 4.13972 13.5385C4.25487 13.2479 4.36454 12.9463 4.38099 12.8695C4.41938 12.7269 4.41938 12.7215 4.23842 12.7873C3.79427 12.9408 3.4214 13.533 3.33915 14.2184C3.28431 14.6406 3.16368 14.7668 2.92241 14.6406C2.63727 14.4871 2.93886 13.2862 3.39398 12.7873C3.56397 12.5953 3.60235 12.5131 3.62428 12.2389C3.64073 12.058 3.62977 11.8715 3.60235 11.8222C3.55848 11.7399 3.5201 11.7673 3.32818 12.0196C2.67566 12.8695 2.36859 14.0046 2.30279 15.7812L2.2644 16.6695L2.39052 16.7188C2.46181 16.7408 2.60986 16.7792 2.72501 16.7956C2.92789 16.8285 2.93886 16.823 3.1253 16.5269C3.26238 16.3131 3.41592 16.165 3.66815 16.006C4.00264 15.7976 4.40841 15.3973 4.40841 15.2822C4.40841 15.2548 4.30971 15.2438 4.18907 15.2603C3.92587 15.2932 3.78879 15.1945 3.8162 14.9751C3.84362 14.7448 4.12876 14.679 5.09383 14.679C5.7628 14.6735 6.00956 14.6955 6.40436 14.7942C7.25429 15.008 8.24678 15.5509 8.67448 16.0389C8.87188 16.2637 8.88285 16.3021 8.76222 16.4173C8.63062 16.5543 8.4716 16.5214 8.23581 16.3076C8.11518 16.2034 8.00551 16.1266 7.98906 16.1431C7.94519 16.1815 8.17549 16.9162 8.35645 17.3056C8.55933 17.7497 8.89382 18.2432 9.16799 18.49C9.28862 18.5996 9.65601 18.8683 9.97953 19.0877L10.5717 19.4825L11.2078 19.3618C12.0687 19.1919 12.2222 19.2357 12.8967 19.8389C13.3025 20.2008 13.4121 20.3927 13.2915 20.5353C13.1544 20.7053 12.968 20.6285 12.5512 20.2337C12.3319 20.0253 12.0797 19.8389 11.9974 19.817C11.8494 19.7786 11.4655 19.8279 10.8349 19.9595C10.495 20.0363 10.2372 20.2337 10.1769 20.4695C10.1221 20.6833 10.2043 21.4181 10.3085 21.6155C10.3524 21.6978 10.4675 21.8074 10.5663 21.8568C10.9062 22.0322 11.1091 22.2242 11.2407 22.5038C11.5039 23.0631 11.3997 23.2605 10.7966 23.3318C10.4237 23.3757 10.1934 23.4744 10.1111 23.6279C10.0837 23.6882 10.0563 23.8966 10.0563 24.094C10.0563 24.3737 10.0727 24.4559 10.1331 24.4559C10.1769 24.4559 10.2318 24.4066 10.2482 24.3462C10.303 24.1653 10.5498 23.9076 10.7746 23.7979C10.9391 23.7102 11.0981 23.6882 11.4929 23.6882H12.0029L12.1784 22.5312C12.2771 21.8952 12.3867 21.3359 12.4196 21.2975C12.5019 21.1988 12.7103 21.1988 12.798 21.303C12.8473 21.3633 12.8528 21.4839 12.8199 21.7526C12.7706 22.2242 12.7706 22.2351 12.9954 22.9151C13.4834 24.3956 14.3498 25.6842 15.2655 26.3038C16.0277 26.8192 17.6398 27.0057 18.6433 26.6986C19.1752 26.5341 19.3616 26.4299 20.2115 25.8158C21.2753 25.0481 21.6153 24.6478 21.8072 23.9624C21.8894 23.6663 21.9607 22.8109 21.9004 22.8109C21.8511 22.8109 21.0998 23.595 20.9737 23.7814C20.7982 24.0392 20.6502 24.5107 20.6063 24.9439C20.5734 25.3003 20.5515 25.3442 20.3431 25.5526C19.6796 26.2106 18.5994 26.5451 17.4424 26.4573C16.5431 26.3915 15.9509 26.1283 15.43 25.5745C14.8159 24.911 14.5527 24.1598 14.5527 23.0522C14.5527 20.9849 14.1853 19.1864 13.6424 18.5393C13.456 18.3145 13.4889 18.1939 13.8234 17.8429C14.9584 16.664 16.7296 16.1541 18.7529 16.4282L18.9832 16.4611L19.0216 16.2199C19.0929 15.8086 19.411 14.8984 19.6687 14.3884C20.4638 12.8147 21.7688 11.7235 23.3261 11.3287L23.836 11.1971L23.9347 10.7145C24.187 9.47529 24.9327 8.66923 26.0952 8.36217C26.2762 8.3183 26.5503 8.27991 26.7093 8.27991C26.8848 8.27991 27 8.25798 27 8.2196C27 8.1867 26.8903 7.98929 26.7477 7.78093C26.0184 6.67877 24.6421 5.98786 22.6845 5.73014C21.9004 5.62596 19.9264 5.63144 19.049 5.73562ZM19.0436 6.35525C19.1807 6.49233 19.1587 6.68425 18.9065 7.44644C18.4075 8.95985 17.2505 10.6597 15.1668 12.9243C14.7885 13.3411 14.6733 13.4343 14.5417 13.4343C14.4266 13.4343 14.3662 13.3959 14.3224 13.2972C14.2511 13.1382 14.2511 13.1382 15.1229 12.1896C17.0421 10.1168 18.3856 7.97284 18.5884 6.64587C18.6104 6.49781 18.6707 6.38266 18.742 6.33331C18.89 6.22913 18.9174 6.22913 19.0436 6.35525ZM20.0251 7.56707C20.9244 7.78093 21.6756 8.2196 22.3171 8.89954C22.7613 9.36562 23.0958 9.89203 23.2767 10.4239C23.4248 10.8516 23.3754 10.9832 23.0848 10.9558C22.9368 10.9394 22.9094 10.9065 22.7942 10.5939C22.6078 10.062 22.3062 9.60689 21.8236 9.12984C21.4617 8.77342 21.2808 8.63633 20.8586 8.42797C20.5734 8.29088 20.1348 8.12638 19.888 8.06606C19.6413 8.00575 19.411 7.94543 19.3781 7.92349C19.2848 7.86866 19.3123 7.57804 19.4219 7.51772C19.5426 7.44644 19.4987 7.44096 20.0251 7.56707ZM18.5226 10.6104C18.6268 10.72 18.8626 11.4548 18.9394 11.9099C19.071 12.7434 18.9778 14.1636 18.72 15.1999C18.5939 15.7044 18.4678 15.8689 18.2649 15.7976C18.0949 15.7318 18.0895 15.6057 18.2485 14.8984C18.561 13.522 18.561 12.2718 18.254 11.3177C18.1827 11.0819 18.1169 10.8352 18.1169 10.7694C18.1169 10.5446 18.3581 10.4513 18.5226 10.6104ZM3.05401 15.4138C3.20755 15.6551 2.91693 15.9347 2.65921 15.7922C2.52761 15.7264 2.50019 15.4741 2.60986 15.3644C2.70308 15.2712 2.98273 15.3041 3.05401 15.4138Z" fill="#AC0C14"/>
<path d="M10.3196 7.90155C10.1386 8.00574 10.2044 8.21959 10.5279 8.61439C11.016 9.21208 12.1346 10.1443 12.3649 10.1443C12.4965 10.1443 12.6555 9.90299 12.5952 9.7988C12.5732 9.75494 12.3484 9.5685 12.1017 9.38207C11.8494 9.19015 11.3943 8.76793 11.0872 8.43892C10.7747 8.10992 10.5005 7.84123 10.4676 7.84123C10.4402 7.84123 10.3689 7.86865 10.3196 7.90155Z" fill="#AC0C14"/>
<path d="M25.1083 13.0504C24.8999 13.1053 24.6148 13.193 24.4777 13.2424C23.902 13.4453 22.8985 14.0868 22.7724 14.3226C22.7066 14.4432 22.8382 14.6955 22.9698 14.6955C23.0082 14.6955 23.2385 14.5584 23.4743 14.3884C24.1487 13.9004 24.8287 13.6098 25.5579 13.4836C25.9802 13.4124 26.0679 13.363 26.0679 13.193C26.0679 12.9188 25.7718 12.875 25.1083 13.0504Z" fill="#AC0C14"/>
<path d="M21.9334 15.2219C21.7086 15.518 21.6976 15.5893 21.8402 15.7319C21.9937 15.8854 22.1472 15.8196 22.3501 15.529C22.4872 15.3261 22.5091 15.2603 22.4708 15.1396C22.4379 15.0409 22.3721 14.9916 22.2734 14.9806C22.1582 14.9642 22.0924 15.0135 21.9334 15.2219Z" fill="#AC0C14"/>
<path d="M21.0505 16.9382C20.9683 17.1082 20.7325 17.9636 20.6667 18.3474C20.6283 18.5996 20.7215 18.7532 20.9135 18.7532C21.0615 18.7532 21.1602 18.5667 21.237 18.1774C21.2699 17.9965 21.3576 17.651 21.4289 17.4152C21.5879 16.9162 21.555 16.7792 21.2973 16.7792C21.1767 16.7792 21.1163 16.8175 21.0505 16.9382Z" fill="#AC0C14"/>
<path d="M9.21734 20.3324C9.04735 20.8369 8.90479 21.2865 8.90479 21.3358C8.90479 21.3907 9.04187 21.599 9.20637 21.8129C9.49151 22.1803 9.51344 22.1967 9.79309 22.2296C10.0453 22.2625 10.1166 22.3064 10.3469 22.5422C10.5334 22.7396 10.6485 22.8109 10.7308 22.7999C10.8459 22.7835 10.8404 22.7725 10.6595 22.597C10.5553 22.4983 10.3579 22.3393 10.2208 22.2406C9.89179 22.0048 9.74923 21.7361 9.67246 21.1768C9.58473 20.5901 9.62311 20.3434 9.83696 20.0034C10.0234 19.7018 10.0234 19.7128 9.67246 19.5044L9.53537 19.4221L9.21734 20.3324Z" fill="#AC0C14"/>
<path d="M12.5568 23.5237C12.5458 23.6005 12.5074 23.7595 12.4855 23.8801C12.4471 24.0501 12.3978 24.1214 12.2662 24.1872L12.0907 24.2749L12.2771 24.5875C12.6884 25.2674 13.3245 25.8761 13.9989 26.2325C14.7063 26.6054 14.7282 26.5889 14.2457 26.0899C13.6096 25.4374 13.1051 24.6423 12.7103 23.6882C12.6007 23.4195 12.5842 23.4031 12.5568 23.5237Z" fill="#AC0C14"/>
<path d="M11.4601 24.593C11.4272 24.9001 11.4601 24.9988 11.6027 25.0042C11.7014 25.0042 11.7014 24.6698 11.6027 24.4778L11.4985 24.275L11.4601 24.593Z" fill="#AC0C14"/>
</svg>
