<svg width="22" height="22" viewBox="0 0 22 22" fill="none" xmlns="http://www.w3.org/2000/svg">
<path d="M14.3 20C13.9883 20 13.7273 19.892 13.5168 19.676C13.3063 19.46 13.2007 19.193 13.2 18.875C13.1993 18.557 13.3049 18.29 13.5168 18.074C13.7287 17.858 13.9898 17.75 14.3 17.75H16.5C16.8117 17.75 17.0731 17.642 17.2843 17.426C17.4955 17.21 17.6007 16.943 17.6 16.625V14.375C17.6 13.6625 17.8017 13.0156 18.205 12.4344C18.6083 11.8531 19.14 11.4406 19.8 11.1969V10.8031C19.14 10.5594 18.6083 10.1469 18.205 9.56562C17.8017 8.98437 17.6 8.33749 17.6 7.625V5.375C17.6 5.05625 17.4944 4.78925 17.2832 4.574C17.072 4.35875 16.8109 4.25075 16.5 4.25H14.3C13.9883 4.25 13.7273 4.142 13.5168 3.926C13.3063 3.71 13.2007 3.443 13.2 3.125C13.1993 2.807 13.3049 2.54 13.5168 2.324C13.7287 2.108 13.9898 2 14.3 2H16.5C17.4167 2 18.1958 2.32812 18.8375 2.98437C19.4792 3.64062 19.8 4.4375 19.8 5.375V7.625C19.8 7.94374 19.9056 8.21112 20.1168 8.42712C20.328 8.64312 20.5891 8.75074 20.9 8.74999C21.2109 8.74924 21.4724 8.85724 21.6843 9.07399C21.8962 9.29074 22.0015 9.55774 22 9.87499V12.125C22 12.4437 21.8944 12.7111 21.6832 12.9271C21.472 13.1431 21.2109 13.2507 20.9 13.25C20.5891 13.2492 20.328 13.3572 20.1168 13.574C19.9056 13.7907 19.8 14.0577 19.8 14.375V16.625C19.8 17.5625 19.4792 18.3594 18.8375 19.0156C18.1958 19.6719 17.4167 20 16.5 20H14.3ZM5.5 20C4.58333 20 3.80416 19.6719 3.1625 19.0156C2.52083 18.3594 2.2 17.5625 2.2 16.625V14.375C2.2 14.0562 2.0944 13.7892 1.8832 13.574C1.672 13.3587 1.41093 13.2507 1.1 13.25C0.789066 13.2492 0.528 13.1412 0.3168 12.926C0.1056 12.7107 0 12.4437 0 12.125V9.87499C0 9.55624 0.1056 9.28924 0.3168 9.07399C0.528 8.85874 0.789066 8.75074 1.1 8.74999C1.41093 8.74924 1.67237 8.64124 1.8843 8.42599C2.09623 8.21074 2.20147 7.94374 2.2 7.625V5.375C2.2 4.4375 2.52083 3.64062 3.1625 2.98437C3.80416 2.32812 4.58333 2 5.5 2H7.7C8.01166 2 8.2731 2.108 8.48429 2.324C8.69549 2.54 8.80073 2.807 8.79999 3.125C8.79926 3.443 8.69366 3.71037 8.48319 3.92712C8.27273 4.14387 8.01166 4.2515 7.7 4.25H5.5C5.18833 4.25 4.92726 4.358 4.7168 4.574C4.50633 4.79 4.40073 5.057 4.4 5.375V7.625C4.4 8.33749 4.19833 8.98437 3.795 9.56562C3.39166 10.1469 2.86 10.5594 2.2 10.8031V11.1969C2.86 11.4406 3.39166 11.8531 3.795 12.4344C4.19833 13.0156 4.4 13.6625 4.4 14.375V16.625C4.4 16.9437 4.5056 17.2111 4.7168 17.4271C4.928 17.6431 5.18906 17.7507 5.5 17.75H7.7C8.01166 17.75 8.2731 17.858 8.48429 18.074C8.69549 18.29 8.80073 18.557 8.79999 18.875C8.79926 19.193 8.69366 19.4604 8.48319 19.6771C8.27273 19.8939 8.01166 20.0015 7.7 20H5.5Z" fill="white"/>
</svg>
