<svg width="22" height="22" viewBox="0 0 22 22" fill="none" xmlns="http://www.w3.org/2000/svg">
<path d="M20.3084 11.0395C20.2842 11.519 20.0705 11.9885 19.7143 12.3447C19.3582 12.7009 18.8887 12.9145 18.4092 12.9387L12.3766 12.8399L12.4744 18.8715C12.4643 19.1101 12.407 19.349 12.3059 19.5747C12.2048 19.8003 12.0618 20.008 11.8851 20.186C11.7085 20.3639 11.5017 20.5085 11.2768 20.6114C11.0518 20.7143 10.8131 20.7734 10.5744 20.7855C10.3357 20.7975 10.1018 20.7621 9.88606 20.6815C9.67035 20.6008 9.47715 20.4763 9.3176 20.3153C9.15804 20.1543 9.0353 19.96 8.95644 19.7434C8.87759 19.5269 8.84418 19.2925 8.85815 19.0537L8.75766 12.7799L2.48075 12.6785C2.24197 12.6925 2.00755 12.6591 1.79101 12.5802C1.57447 12.5014 1.3801 12.3786 1.2191 12.2191C1.0581 12.0595 0.933671 11.8663 0.852982 11.6506C0.772292 11.4349 0.73694 11.201 0.748967 10.9623C0.760994 10.7236 0.820161 10.4849 0.923055 10.2599C1.02595 10.0349 1.17053 9.82818 1.34847 9.65155C1.5264 9.47492 1.73417 9.33192 1.95978 9.23078C2.18539 9.12965 2.42438 9.07239 2.66296 9.06231L8.6977 9.16102L8.59786 3.12741C8.60794 2.88883 8.6652 2.64984 8.76633 2.42423C8.86747 2.19862 9.01047 1.99085 9.1871 1.81292C9.36373 1.63498 9.57049 1.4904 9.79545 1.3875C10.0204 1.28461 10.2591 1.22544 10.4978 1.21341C10.7365 1.20139 10.9705 1.23674 11.1862 1.31743C11.4019 1.39812 11.5951 1.52255 11.7546 1.68355C11.9142 1.84454 12.0369 2.03892 12.1158 2.25546C12.1946 2.472 12.228 2.70642 12.2141 2.9452L12.3166 9.22099L18.5904 9.32148C18.828 9.30938 19.0609 9.34423 19.2759 9.42404C19.4909 9.50385 19.6837 9.62705 19.8432 9.78661C20.0028 9.94617 20.126 10.1389 20.2058 10.3539C20.2856 10.5689 20.3205 10.8019 20.3084 11.0395Z" fill="white"/>
</svg>
