<svg width="22" height="22" viewBox="0 0 22 22" fill="none" xmlns="http://www.w3.org/2000/svg">
<path d="M18.875 0C19.1733 0 19.4595 0.115893 19.6705 0.322182C19.8814 0.528473 20 0.808262 20 1.1V20.9C20 21.1917 19.8814 21.4716 19.6705 21.6778C19.4595 21.8841 19.1733 22 18.875 22H3.125C2.82663 22 2.54048 21.8841 2.3295 21.6778C2.11853 21.4716 2 21.1917 2 20.9V1.1C2 0.808262 2.11853 0.528473 2.3295 0.322182C2.54048 0.115893 2.82663 0 3.125 0H18.875ZM11 5.5C10.2163 5.50084 9.44148 5.66177 8.72513 5.97249C8.00878 6.28321 7.36673 6.73686 6.84017 7.30436C6.31359 7.87186 5.9141 8.54069 5.66731 9.26796C5.42052 9.99524 5.33187 10.7649 5.40705 11.5277C5.48222 12.2903 5.71958 13.0293 6.10388 13.6971C6.48818 14.3649 7.01094 14.9468 7.63867 15.4055C8.2664 15.8643 8.98524 16.1897 9.74909 16.361C10.5129 16.5321 11.305 16.5454 12.0744 16.3999L11 14.3C10.1049 14.3 9.24645 13.9523 8.61352 13.3334C7.98058 12.7146 7.625 11.8752 7.625 11C7.625 10.1248 7.98058 9.28542 8.61352 8.66655C9.24645 8.04768 10.1049 7.7 11 7.7C12.7978 7.7 14.375 9.174 14.375 11H11.5625L13.9565 15.6794C14.9979 15.0505 15.801 14.1066 16.2442 12.991C16.6872 11.8753 16.7461 10.6488 16.4117 9.49749C16.0772 8.34621 15.3679 7.33297 14.3913 6.61155C13.4147 5.89013 12.224 5.49987 11 5.5Z" fill="white"/>
</svg>
