<svg width="118" height="71" viewBox="0 0 118 71" fill="none" xmlns="http://www.w3.org/2000/svg">
<g clip-path="url(#clip0_1310_498)">
<path fill-rule="evenodd" clip-rule="evenodd" d="M101.153 1.89477L105.937 13.3722L106.398 13.1827C106.766 13.0316 107.186 13.2059 107.338 13.5719L109.051 17.7021C109.203 18.0681 109.028 18.4873 108.661 18.6384L108.21 18.824L113.635 31.8368C114.092 32.934 113.57 34.1926 112.468 34.6477L103.165 38.4935C102.064 38.9487 100.8 38.4281 100.342 37.3308L95.9844 26.8757C95.6836 26.9539 95.3893 27.0638 95.1123 27.2023L88.6051 30.4551C88.1669 27.5289 87.2603 24.7482 85.9601 22.186L90.8276 20.0604C91.0938 19.9443 91.3507 19.8078 91.5953 19.6524L92.6854 18.9612L87.8611 7.38881C87.4035 6.29152 87.9258 5.03299 89.0267 4.57781L98.3307 0.732104C99.4315 0.276927 100.695 0.797466 101.153 1.89477ZM33.0579 22.9222L27.1465 20.3415C26.9562 20.2585 26.7707 20.165 26.5908 20.0617C26.7095 19.4172 26.6803 18.7471 26.4958 18.1031L25.5337 14.7456C25.4776 14.5496 25.4076 14.358 25.3242 14.172L24.154 11.5616C23.9154 11.029 23.5704 10.5504 23.1404 10.1548L20.8551 8.05255C20.5546 7.77608 20.2162 7.54357 19.85 7.36205L18.0726 6.48075C17.863 6.37683 17.6452 6.29006 17.4215 6.22132L15.8424 5.73615C15.5232 5.63808 15.1936 5.57727 14.8603 5.55493L13.4535 5.46065C13.1298 5.43896 12.8047 5.4537 12.4843 5.50462L10.2623 5.85769C9.9751 5.90333 9.6932 5.97779 9.42101 6.07993L7.98284 6.61956C7.47415 6.81041 7.05999 7.19108 6.82793 7.68091L6.60843 8.1442C6.50664 8.35907 6.49668 8.60592 6.58082 8.82824C6.65631 9.02769 6.80208 9.19285 6.9909 9.29297L11.4911 11.6786L13.6325 12.7156C14.5234 13.1471 15.1653 13.9636 15.3725 14.9291C15.536 15.6911 15.4155 16.4864 15.0336 17.1664L13.5828 19.749C13.2036 20.4241 12.5752 20.9253 11.8312 21.1461C11.1424 21.3506 10.4027 21.3002 9.74817 21.0044L2.64413 17.7937C2.50428 17.7304 2.3447 17.7264 2.20182 17.7825C2.07477 17.8324 1.97002 17.9263 1.9068 18.0469L1.41786 18.98C1.21317 19.3707 1.16449 19.824 1.28161 20.249C1.32599 20.41 1.39334 20.5638 1.48161 20.7058L3.38077 23.7593C3.62488 24.1518 3.93078 24.5026 4.28674 24.7981L7.28535 27.2882C7.62683 27.5717 8.01026 27.801 8.42196 27.968L10.7694 28.9198C11.2109 29.0987 11.6789 29.2036 12.1546 29.2302L15.1008 29.3946C15.5182 29.418 15.9366 29.3807 16.3432 29.2842L18.5046 28.7707C18.7436 28.7139 18.9876 28.6817 19.2313 28.6496L19.2369 28.6489C20.366 28.5 21.4099 27.9967 22.2229 27.2246C22.4419 27.2944 22.6558 27.3811 22.8606 27.4834L30.651 31.3765C30.9937 28.3927 31.8219 25.5497 33.0579 22.9222ZM32.7598 45.4178L6.47719 56.895C5.70727 57.2312 4.97746 57.6519 4.30137 58.1497L2.78411 59.2664C1.32585 60.3397 0.360307 61.9502 0.103493 63.7376L0.0547688 64.0768C-0.0745752 64.977 0.0260553 65.8952 0.34735 66.7466L0.382494 66.8396C0.934553 68.3023 2.11776 69.44 3.60487 69.9384C4.4619 70.2256 5.3792 70.2861 6.26689 70.1143L9.02211 69.5809C10.4409 69.3063 11.8153 68.8394 13.1071 68.1938L39.632 54.935C36.7049 52.2754 34.3489 49.0403 32.7598 45.4178ZM79.0384 55.5569L104.889 68.4749C106.181 69.1205 107.556 69.5874 108.975 69.8619L111.732 70.3954C112.619 70.5671 113.537 70.5067 114.394 70.2194C115.882 69.7211 117.065 68.5831 117.617 67.1205L117.652 67.0277C117.974 66.1764 118.075 65.2581 117.945 64.3578L117.896 64.0186C117.64 62.2311 116.674 60.6209 115.215 59.5478L113.697 58.4308C113.021 57.9331 112.291 57.5123 111.521 57.1762L86.2803 46.1571C84.5686 49.7641 82.0877 52.9621 79.0384 55.5569Z" fill="#D2D2D2"/>
<path d="M76.6417 48.6116C76.4439 48.3364 76.2928 48.0294 76.2043 47.697L75.3754 44.5355C75.1804 43.7862 75.0365 42.6415 74.9451 41.8449C74.812 40.6504 74.4609 39.5135 73.9306 38.4854L73.8256 38.2934H46.1859L46.0962 38.4558C45.5502 39.5121 45.2008 40.6504 45.0658 41.8449C44.9761 42.6415 44.8321 43.7874 44.6356 44.5355L43.8072 47.697C43.7199 48.0294 43.5669 48.3364 43.3704 48.6116C42.8219 49.3799 41.9102 49.8903 40.9558 49.8903H40.1761C45.0325 54.2013 52.1635 56.7424 59.8085 56.7424C67.4532 56.7424 74.5832 54.2013 79.4406 49.8903H79.0564C78.1024 49.8903 77.1907 49.3799 76.6417 48.6116Z" fill="#E74343"/>
<path d="M70.4156 31.1912C67.636 28.4293 63.9782 26.9093 60.1124 26.9093H60.0864C56.1977 26.9162 52.471 28.459 49.7238 31.1991C46.9767 33.9392 45.4338 37.6529 45.4338 41.5245V48.5984C45.4295 49.7232 45.7657 50.8232 46.3988 51.755C47.032 52.6867 47.9325 53.4068 48.9829 53.8211L50.656 54.483C50.8307 54.5521 50.9854 54.6634 51.1053 54.8074C51.2256 54.9513 51.3077 55.123 51.3441 55.3065L52.0499 58.8291C52.1531 59.3381 52.4298 59.7959 52.8331 60.1253C53.2366 60.4547 53.7418 60.6355 54.2635 60.6369H55.0313C55.1812 60.6369 55.3246 60.5776 55.4304 60.4722C55.5363 60.3668 55.5959 60.2237 55.5959 60.0748V57.2959C55.5959 56.6908 56.063 56.1716 56.6708 56.1413C56.8232 56.134 56.976 56.1576 57.1191 56.2107C57.2625 56.2639 57.3934 56.3453 57.5041 56.4505C57.6147 56.5553 57.7028 56.6815 57.763 56.8215C57.823 56.9614 57.8541 57.1121 57.8541 57.2641V60.0748C57.8541 60.2237 57.9137 60.3668 58.0195 60.4722C58.1254 60.5776 58.2691 60.6369 58.4186 60.6369C58.5686 60.6369 58.712 60.5776 58.8178 60.4722C58.9237 60.3668 58.9832 60.2237 58.9832 60.0748V57.2959C58.9832 56.6908 59.4504 56.1716 60.0581 56.1413C60.2106 56.134 60.3633 56.1576 60.5064 56.2107C60.6498 56.2639 60.7808 56.3453 60.8915 56.4505C61.0021 56.5553 61.0902 56.6815 61.1503 56.8215C61.2104 56.9614 61.2415 57.1121 61.2415 57.2641V60.0748C61.2415 60.2237 61.301 60.3668 61.4069 60.4722C61.5128 60.5776 61.6565 60.6369 61.806 60.6369C61.9559 60.6369 62.0993 60.5776 62.2052 60.4722C62.3111 60.3668 62.3706 60.2237 62.3706 60.0748V57.2959C62.3706 56.6908 62.8377 56.1716 63.4455 56.1413C63.598 56.134 63.7507 56.1576 63.8938 56.2107C64.0372 56.2639 64.1682 56.3453 64.2788 56.4505C64.3894 56.5553 64.4775 56.6815 64.5377 56.8215C64.5978 56.9614 64.6288 57.1121 64.6288 57.2641V60.0748C64.6288 60.2237 64.6884 60.3668 64.7942 60.4722C64.9001 60.5776 65.0438 60.6369 65.1934 60.6369H65.9612C66.4829 60.6357 66.9882 60.4553 67.3918 60.1259C67.7952 59.7968 68.0721 59.3387 68.1757 58.8297L68.8814 55.3065C68.9181 55.1233 69.0002 54.9518 69.1202 54.8082C69.2405 54.6643 69.3946 54.5524 69.5688 54.483L71.2422 53.8211C72.2923 53.4068 73.1931 52.6867 73.8256 51.755C74.4587 50.8232 74.7955 49.7232 74.7911 48.5984V41.6421C74.7911 37.7072 73.2384 33.9963 70.4156 31.1912ZM54.1604 49.3859C53.3585 49.4382 52.5597 49.246 51.8703 48.8345C51.181 48.423 50.6342 47.8123 50.3026 47.0834C49.9709 46.3543 49.8703 45.5424 50.014 44.7551C50.158 43.9679 50.5393 43.243 51.1079 42.677C51.6761 42.1112 52.4041 41.7314 53.1948 41.5881C53.9854 41.4447 54.8009 41.5451 55.5332 41.8753C56.2651 42.2056 56.8785 42.75 57.2918 43.4364C57.705 44.1227 57.8982 44.9181 57.8456 45.7166C57.783 46.6692 57.3745 47.5669 56.6968 48.2417C56.0187 48.9168 55.1174 49.3235 54.1604 49.3859ZM61.8766 53.6982C61.6824 53.827 61.4538 53.8945 61.2203 53.8914H59.0044C58.7715 53.8942 58.5434 53.8267 58.3495 53.6982C58.1604 53.5704 58.0144 53.3886 57.9312 53.1766C57.8481 52.9644 57.8315 52.7323 57.8838 52.5108L59.0066 49.1662C59.1949 48.6917 59.495 48.3403 59.9712 48.2794C60.5542 48.2091 60.9592 48.4809 61.2141 49.138L62.3432 52.5108C62.3952 52.7323 62.3785 52.9647 62.2952 53.1766C62.212 53.3886 62.066 53.5704 61.8766 53.6982ZM66.5822 49.3859C65.7803 49.4382 64.9814 49.246 64.2921 48.8345C63.6027 48.423 63.056 47.8123 62.7243 47.0834C62.3927 46.3543 62.2921 45.5424 62.4358 44.7551C62.5798 43.9679 62.9611 43.243 63.5296 42.677C64.0979 42.1112 64.8259 41.7314 65.6166 41.5881C66.4072 41.4447 67.2227 41.5451 67.955 41.8753C68.687 42.2056 69.3003 42.75 69.7135 43.4364C70.1268 44.1227 70.3199 44.9181 70.2674 45.7166C70.2048 46.6695 69.7963 47.5671 69.1179 48.2423C68.4397 48.9174 67.5377 49.3238 66.5808 49.3859H66.5822Z" fill="#D2D2D2"/>
<path d="M88.6073 22.7908C86.271 21.5042 85.0227 20.9441 82.3986 20.0348C81.3754 19.6806 80.1084 19.9478 79.6292 20.5937C78.5981 21.989 77.7808 23.1898 77.08 24.3331L81.492 33.8953C83.5311 30.1661 85.2925 28.0227 89.1383 24.6541C89.7261 24.1375 89.521 23.2922 88.6073 22.7908ZM85.3846 24.3664C84.7888 25.0109 83.5455 25.1772 82.5295 24.7743C81.515 24.3715 81.0682 23.5121 81.6122 22.8126C82.1561 22.113 83.5289 21.8815 84.5953 22.3394C85.6652 22.7972 85.9832 23.7218 85.3846 24.3664Z" fill="#E74343"/>
<path d="M74.5357 37.0146C74.5429 37.0287 74.5537 37.0413 74.5624 37.0568C74.6897 37.2538 74.8192 37.4469 74.9336 37.654H75.6567H81.8057L81.5114 37.0146L81.2207 36.3738L80.7185 35.2855L76.2928 25.6914L75.7841 24.5915C75.5668 24.1196 75.3308 23.6682 75.0826 23.2296C73.0212 26.0418 70.1505 28.1571 66.7315 29.2685C64.7522 29.9116 62.3361 30.2635 59.9291 30.2635C59.4103 30.2635 58.8977 30.2469 58.4046 30.2134C53.8177 29.9015 48.9256 27.6225 45.6375 24.2347C45.3612 23.9496 45.1043 23.6516 44.859 23.3447C44.6368 23.7475 44.4249 24.1619 44.2273 24.5915L43.6875 25.7617L39.2653 35.3442L38.7889 36.3763L38.4936 37.0157L38.198 37.6552H44.3467H45.071C45.193 37.4329 45.333 37.2257 45.4679 37.0157C45.6104 36.7934 45.7606 36.5809 45.9176 36.3763C46.295 35.8814 46.7034 35.4224 47.1582 35.0272C47.1658 35.0196 47.1737 35.0143 47.18 35.0081C47.4473 34.778 47.7247 34.5629 48.0135 34.3712C48.0533 34.3442 48.097 34.3251 48.1368 34.2995C48.3977 34.1331 48.6622 33.9747 48.9382 33.8431C49.0283 33.7982 49.1259 33.77 49.2171 33.7293C49.4509 33.6281 49.6821 33.5258 49.9248 33.448C50.0917 33.3954 50.2678 33.3684 50.4386 33.3251C50.6144 33.2841 50.788 33.2304 50.9678 33.2023C51.3249 33.1447 51.6882 33.118 52.0583 33.118H67.9439C68.3138 33.118 68.6773 33.1472 69.0355 33.2023C69.2167 33.229 69.3889 33.2829 69.5648 33.3251C69.7356 33.3673 69.9117 33.3954 70.0774 33.448C70.3187 33.5258 70.5525 33.6281 70.7862 33.7293C70.8774 33.7689 70.9739 33.7982 71.0651 33.8431C71.3398 33.976 71.602 34.1331 71.86 34.297C71.9024 34.3237 71.9475 34.3442 71.9908 34.3712C72.2829 34.5643 72.56 34.7805 72.8283 35.0118C72.8334 35.0171 72.8399 35.0222 72.8463 35.0272C73.3011 35.4224 73.7097 35.8814 74.0875 36.3763C74.2436 36.5798 74.3933 36.792 74.5357 37.0146Z" fill="#E74343"/>
<path d="M42.565 47.3761L43.3935 44.2135V44.2121C43.5719 43.5292 43.7094 42.4026 43.789 41.7005C43.7915 41.6735 43.7981 41.6494 43.802 41.6224C43.8135 41.5302 43.8327 41.4408 43.8468 41.3475C43.8943 41.0226 43.9535 40.7028 44.0281 40.3897C44.0589 40.2592 44.0936 40.1313 44.1294 40.002C44.2065 39.7207 44.2951 39.4459 44.3928 39.176C44.4225 39.0939 44.4507 39.011 44.4825 38.9304H44.4738H43.7994H38.2018H37.6099L35.2618 44.0176C35.2054 44.1405 35.1591 44.2607 35.1038 44.3822C35.7152 45.6419 36.4847 46.8454 37.403 47.9719C37.5777 48.1869 37.7485 48.4016 37.9348 48.6116H40.9558C41.6646 48.6116 42.3852 48.0576 42.565 47.3761Z" fill="#E74343"/>
<path d="M81.8121 38.9329L76.2157 38.9318H75.5401H75.5308C75.5631 39.0121 75.5912 39.0953 75.6207 39.1772C75.7186 39.447 75.8071 39.7221 75.884 40.0035C75.9186 40.1325 75.9546 40.2592 75.9841 40.3897C76.0603 40.703 76.1179 41.024 76.1668 41.3501C76.1798 41.442 76.1999 41.5316 76.2107 41.6238C76.2129 41.6506 76.2193 41.6761 76.2229 41.703C76.3028 42.4052 76.4402 43.5317 76.6201 44.2161L77.0353 45.7954L77.4497 47.3761C77.631 48.0591 78.3477 48.6127 79.0592 48.6127H81.6848C81.8711 48.4056 82.038 48.1881 82.2136 47.9734C83.2389 46.7201 84.085 45.376 84.7233 43.9578L82.4035 38.9329H81.8121Z" fill="#E74343"/>
<path d="M42.9041 24.3984C42.195 23.2359 41.3654 22.0158 40.3122 20.5937C39.8343 19.9478 38.5665 19.6806 37.543 20.0348C34.92 20.9428 33.6715 21.5042 31.334 22.7908C30.4222 23.2922 30.2153 24.1375 30.8049 24.6554C34.6748 28.0419 36.4331 30.1931 38.4895 33.9644L42.9041 24.3984ZM37.4118 24.7743C36.3958 25.1772 35.1538 25.0097 34.5568 24.3664C33.9606 23.7218 34.2767 22.7972 35.3452 22.3394C36.4139 21.8815 37.7858 22.113 38.3303 22.8126C38.8737 23.5121 38.4279 24.3715 37.4118 24.7743Z" fill="#E74343"/>
<path d="M55.8539 20.9365C55.9477 21.0081 55.9939 21.0439 56.0877 21.1168C58.4216 22.9251 59.3836 23.4507 59.7519 23.6017C59.9346 23.5134 60.1155 23.4265 60.3145 23.3459C63.342 21.6654 66.3271 19.6499 68.0482 16.3377C65.545 15.028 62.7758 14.3733 60.0063 14.3733C57.2309 14.3733 54.4563 15.0319 51.9506 16.3466C51.9852 16.4195 52.0096 16.5 52.0457 16.5717C52.8818 18.183 54.1622 19.6499 55.8539 20.9365Z" fill="#E74343"/>
<path d="M43.0419 8.88432C42.42 12.8028 42.8593 17.4285 44.8578 20.9646C44.9749 21.1705 45.0853 21.3802 45.2124 21.5785C45.3346 21.769 45.4616 21.9532 45.594 22.1348C45.8983 22.553 46.2116 22.9635 46.5712 23.3344C49.5872 26.4446 54.1121 28.6366 58.4959 28.9359C58.9595 28.9677 59.4399 28.9832 59.9294 28.9832C62.069 28.9832 64.39 28.6802 66.3219 28.0509C69.6717 26.9587 72.4333 24.8141 74.3407 22.0223C74.4673 21.8368 74.6076 21.6616 74.7271 21.4698C74.853 21.2677 74.9559 21.0516 75.0739 20.8432C75.5581 19.9799 75.9848 19.077 76.3078 18.1191C77.1036 15.757 77.4799 13.551 77.0849 11.0495C76.6611 8.36128 76.3611 5.60274 78.2268 3.84556C78.6139 3.48234 79.0931 3.16137 79.6823 2.89407C79.6823 2.89407 79.0686 2.56412 77.7929 2.4567C77.1712 2.46181 76.3503 2.46053 75.4423 2.8557C74.5515 3.21764 73.4852 3.93508 72.8362 5.10396C71.0317 8.3587 71.1153 12.3757 69.7126 15.8312C69.6819 15.9079 69.6601 15.9872 69.6254 16.0639C69.5726 16.1893 69.5046 16.298 69.4467 16.4208C69.3595 16.6126 69.2619 16.7967 69.1656 16.9809C67.3545 20.4364 64.2937 22.6067 60.8668 24.5007C60.556 24.6222 60.298 24.7629 60.0039 24.8959C59.9576 24.9176 59.9012 24.9266 59.8357 24.9266C58.8081 24.9266 55.6739 22.4136 55.069 21.9532C53.3596 20.6538 51.8928 19.0757 50.9023 17.1677C50.8741 17.1126 50.8563 17.0487 50.8292 16.9924C50.738 16.8057 50.6649 16.6049 50.5853 16.4092C50.5029 16.2097 50.4066 16.0192 50.3347 15.812C49.1378 12.3348 49.3238 7.88939 47.1725 5.10526C46.5253 3.93763 45.4577 3.2189 44.5665 2.85698C43.6635 2.46437 42.8477 2.46309 42.2261 2.45797C42.1903 2.45797 42.1542 2.45797 42.1183 2.45925C41.521 2.4746 40.8814 2.6626 40.3278 2.88128C42.8364 4.22665 43.4812 6.11428 43.0419 8.88432Z" fill="#E74343"/>
</g>
<defs>
<clipPath id="clip0_1310_498">
<rect width="118" height="71" fill="white"/>
</clipPath>
</defs>
</svg>
