<svg width="22" height="22" viewBox="0 0 22 22" fill="none" xmlns="http://www.w3.org/2000/svg">
<path fill-rule="evenodd" clip-rule="evenodd" d="M5.75 2C5.28587 2 4.84075 2.18964 4.51256 2.52721C4.18437 2.86477 4 3.32261 4 3.8V18.2C4 18.6774 4.18437 19.1352 4.51256 19.4728C4.84075 19.8104 5.28587 20 5.75 20H16.25C16.7141 20 17.1592 19.8104 17.4874 19.4728C17.8156 19.1352 18 18.6774 18 18.2V5.9726C17.9999 5.49525 17.8155 5.03749 17.4872 4.7L15.375 2.5274C15.0469 2.18981 14.6018 2.0001 14.1378 2H5.75ZM14.7083 9.9137C14.7918 9.83068 14.8585 9.73137 14.9043 9.62156C14.9502 9.51176 14.9743 9.39366 14.9753 9.27416C14.9764 9.15466 14.9542 9.03615 14.9102 8.92554C14.8662 8.81493 14.8013 8.71445 14.7191 8.62994C14.6369 8.54544 14.5392 8.47861 14.4317 8.43336C14.3242 8.38811 14.209 8.36534 14.0928 8.36637C13.9766 8.36741 13.8618 8.39224 13.755 8.43941C13.6483 8.48658 13.5517 8.55514 13.471 8.6411L9.75925 12.4598L8.52112 11.1863C8.3561 11.0224 8.13507 10.9316 7.90565 10.9337C7.67623 10.9357 7.45677 11.0304 7.29453 11.1973C7.1323 11.3641 7.04028 11.5899 7.03829 11.8258C7.03629 12.0618 7.12449 12.2892 7.28387 12.4589L9.07763 14.3048C9.16701 14.3968 9.27313 14.4697 9.38994 14.5195C9.50674 14.5693 9.63194 14.5949 9.75838 14.5949C9.88481 14.5949 10.01 14.5693 10.1268 14.5195C10.2436 14.4697 10.3497 14.3968 10.4391 14.3048L14.7083 9.9137Z" fill="white"/>
</svg>
