<svg width="22" height="22" viewBox="0 0 22 22" fill="none" xmlns="http://www.w3.org/2000/svg">
<path d="M9.40516 3.10021C7.73327 3.10021 6.12986 3.7644 4.94765 4.94668C3.76545 6.12895 3.10129 7.73246 3.10129 9.40444C3.10129 11.0764 3.76545 12.6799 4.94765 13.8622C6.12986 15.0445 7.73327 15.7087 9.40516 15.7087C11.0771 15.7087 12.6805 15.0445 13.8627 13.8622C15.0449 12.6799 15.709 11.0764 15.709 9.40444C15.709 7.73246 15.0449 6.12895 13.8627 4.94668C12.6805 3.7644 11.0771 3.10021 9.40516 3.10021ZM1 9.40444C1.00019 8.06675 1.31963 6.74842 1.93175 5.55901C2.54388 4.3696 3.43103 3.34348 4.51946 2.56591C5.60789 1.78834 6.86617 1.28179 8.18973 1.08835C9.51329 0.894912 10.8639 1.02017 12.1293 1.45373C13.3947 1.88728 14.5384 2.6166 15.4653 3.58108C16.3922 4.54556 17.0755 5.71734 17.4585 6.99904C17.8414 8.28073 17.913 9.63533 17.6672 10.9502C17.4214 12.2652 16.8653 13.5024 16.0452 14.5592L21.7051 20.2194C21.8965 20.4175 22.0024 20.6829 22 20.9584C21.9976 21.2339 21.8871 21.4974 21.6923 21.6923C21.4975 21.8871 21.234 21.9976 20.9585 22C20.683 22.0024 20.4176 21.8964 20.2195 21.7051L14.5596 16.0449C13.3172 17.0096 11.829 17.6062 10.2643 17.767C8.69966 17.9278 7.12126 17.6463 5.70862 16.9545C4.29598 16.2627 3.1058 15.1883 2.27341 13.8536C1.44102 12.519 0.999825 10.9775 1 9.40444Z" fill="white"/>
</svg>
