<svg width="23" height="22" viewBox="0 0 23 22" fill="none" xmlns="http://www.w3.org/2000/svg">
<path fill-rule="evenodd" clip-rule="evenodd" d="M6.75 4C6.02065 4 5.32118 4.28973 4.80546 4.80546C4.28973 5.32118 4 6.02065 4 6.75V8H4.75C5.18434 8.00001 5.6094 8.12573 5.97386 8.362C6.33832 8.59826 6.6266 8.93497 6.80392 9.33146C6.98123 9.72796 7.04 10.1673 6.97311 10.5965C6.90623 11.0256 6.71656 11.4263 6.427 11.75C6.71656 12.0737 6.90623 12.4744 6.97311 12.9035C7.04 13.3327 6.98123 13.772 6.80392 14.1685C6.6266 14.565 6.33832 14.9017 5.97386 15.138C5.6094 15.3743 5.18434 15.5 4.75 15.5H4V16.75C4 17.4793 4.28973 18.1788 4.80546 18.6945C5.32118 19.2103 6.02065 19.5 6.75 19.5H19.75C20.4793 19.5 21.1788 19.2103 21.6945 18.6945C22.2103 18.1788 22.5 17.4793 22.5 16.75V6.75C22.5 6.02065 22.2103 5.32118 21.6945 4.80546C21.1788 4.28973 20.4793 4 19.75 4H6.75ZM9.166 8.126C9.00049 8.01827 8.79917 7.98016 8.60573 8.01996C8.4123 8.05975 8.24237 8.17423 8.13282 8.33855C8.02328 8.50287 7.98296 8.70376 8.02063 8.89762C8.05829 9.09148 8.1709 9.26266 8.334 9.374L12.834 12.374C12.9572 12.4561 13.1019 12.4999 13.25 12.4999C13.3981 12.4999 13.5428 12.4561 13.666 12.374L18.166 9.374C18.3291 9.26266 18.4417 9.09148 18.4794 8.89762C18.517 8.70376 18.4767 8.50287 18.3672 8.33855C18.2576 8.17423 18.0877 8.05975 17.8943 8.01996C17.7008 7.98016 17.4995 8.01827 17.334 8.126L13.25 10.849L9.166 8.126Z" fill="white"/>
<path fill-rule="evenodd" clip-rule="evenodd" d="M5.5 13.25C5.5 13.4489 5.42098 13.6397 5.28033 13.7803C5.13968 13.921 4.94891 14 4.75 14H2.75C2.55109 14 2.36032 13.921 2.21967 13.7803C2.07902 13.6397 2 13.4489 2 13.25C2 13.0511 2.07902 12.8603 2.21967 12.7197C2.36032 12.579 2.55109 12.5 2.75 12.5H4.75C4.94891 12.5 5.13968 12.579 5.28033 12.7197C5.42098 12.8603 5.5 13.0511 5.5 13.25ZM5.5 10.25C5.5 10.4489 5.42098 10.6397 5.28033 10.7803C5.13968 10.921 4.94891 11 4.75 11H0.75C0.551088 11 0.360322 10.921 0.21967 10.7803C0.0790176 10.6397 0 10.4489 0 10.25C0 10.0511 0.0790176 9.86032 0.21967 9.71967C0.360322 9.57902 0.551088 9.5 0.75 9.5H4.75C4.94891 9.5 5.13968 9.57902 5.28033 9.71967C5.42098 9.86032 5.5 10.0511 5.5 10.25Z" fill="white"/>
</svg>
