<svg width="22" height="22" viewBox="0 0 22 22" fill="none" xmlns="http://www.w3.org/2000/svg">
<path d="M2.86532 6.09956C2.74421 5.84344 2.70478 5.55569 2.75246 5.27599C2.80014 4.99629 2.93258 4.73842 3.13152 4.53793L4.41184 3.2451C4.61043 3.04456 4.86569 2.91112 5.1425 2.86314C5.4193 2.81517 5.70402 2.85502 5.95747 2.97721L7.29302 1.62861C7.63262 1.2858 8.09315 1.09322 8.57335 1.09322C9.05354 1.09322 9.51407 1.2858 9.85367 1.62861L12.4152 4.21518C12.7547 4.55809 12.9454 5.02312 12.9454 5.508C12.9454 5.99289 12.7547 6.45792 12.4152 6.80083L11.134 8.09366L11.0887 8.04794L7.88791 11.2809L7.93318 11.3266L6.65286 12.6195C6.48469 12.7893 6.28502 12.9241 6.06527 13.0161C5.84551 13.108 5.60996 13.1553 5.37209 13.1553C5.13421 13.1553 4.89867 13.108 4.67891 13.0161C4.45915 12.9241 4.25948 12.7893 4.09131 12.6195L1.53067 10.0338C1.36243 9.864 1.22897 9.66238 1.13792 9.44048C1.04687 9.21857 1 8.98073 1 8.74053C1 8.50033 1.04687 8.26248 1.13792 8.04058C1.22897 7.81867 1.36243 7.61706 1.53067 7.44724L2.86532 6.09956ZM9.16733 12.5728L12.369 9.34077L15.616 12.6195L12.4152 15.8524L9.16823 12.5738L9.16733 12.5728ZM13.6946 17.1444L16.8963 13.9123L18.4972 15.5288C18.9187 15.958 19.1547 16.5384 19.1534 17.1429C19.1522 17.7474 18.9139 18.3268 18.4907 18.7543C18.0674 19.1818 17.4937 19.4226 16.8951 19.424C16.2964 19.4254 15.7216 19.1873 15.2964 18.7618L13.6955 17.1453L13.6946 17.1444ZM16.2571 2.92144L20.0981 6.80083L16.622 10.3108C16.0669 10.8713 15.0429 10.7479 14.3357 10.0338L13.0554 8.74007C12.3482 8.02691 12.2251 6.99284 12.781 6.43145L16.2571 2.92144ZM17.5365 1.62861L17.8109 1.35157C18.3659 0.790191 19.39 0.914536 20.0972 1.62861L21.3775 2.92144C22.0846 3.63551 22.2078 4.66959 21.6518 5.23097L21.3775 5.508L17.5365 1.62861ZM6.0127 15.8524L7.93228 13.9123C8.01635 13.8273 8.11616 13.76 8.22602 13.714C8.33588 13.668 8.45364 13.6443 8.57257 13.6442C8.6915 13.6442 8.80928 13.6678 8.91917 13.7137C9.02907 13.7596 9.12893 13.8269 9.21305 13.9118C9.29718 13.9967 9.36392 14.0975 9.40948 14.2084C9.45503 14.3194 9.4785 14.4383 9.47854 14.5584C9.47858 14.6785 9.4552 14.7974 9.40972 14.9084C9.36425 15.0193 9.29757 15.1202 9.21351 15.2051L7.29302 17.1462C7.46277 17.3176 7.55813 17.5502 7.55813 17.7926C7.55813 18.035 7.46277 18.2676 7.29302 18.439L6.0127 19.7318C5.92861 19.8169 5.82874 19.8843 5.71882 19.9303C5.6089 19.9763 5.49108 20 5.37209 20C5.25309 20 5.13527 19.9763 5.02535 19.9303C4.91543 19.8843 4.81556 19.8169 4.73147 19.7318L3.45115 18.439C3.2814 18.2676 3.18604 18.035 3.18604 17.7926C3.18604 17.5502 3.2814 17.3176 3.45115 17.1462L4.73147 15.8534C4.81556 15.7684 4.91543 15.7009 5.02535 15.6549C5.13527 15.6089 5.25309 15.5852 5.37209 15.5852C5.49108 15.5852 5.6089 15.6089 5.71882 15.6549C5.82874 15.7009 5.92861 15.7684 6.0127 15.8534V15.8524Z" fill="white"/>
</svg>
