<svg width="22" height="22" viewBox="0 0 22 22" fill="none" xmlns="http://www.w3.org/2000/svg">
<path d="M16.8125 7.7H8.3125V5.5C8.3125 4.62 8.63125 3.85 9.26875 3.19C10.5437 1.87 12.5625 1.87 13.7313 3.19C14.1563 3.63 14.3687 4.18 14.5812 4.73C14.6875 5.28 15.325 5.61 15.8563 5.5C16.3875 5.39 16.8125 4.73 16.6 4.18C16.3875 3.19 15.8563 2.31 15.2188 1.65C14.2625 0.55 12.8812 0 11.5 0C8.525 0 6.1875 2.42 6.1875 5.5V7.7C4.38125 7.7 3 9.13 3 11V18.7C3 20.57 4.38125 22 6.1875 22H16.8125C18.6188 22 20 20.57 20 18.7V11C20 9.13 18.6188 7.7 16.8125 7.7Z" fill="white"/>
</svg>
