<svg width="22" height="22" viewBox="0 0 22 22" fill="none" xmlns="http://www.w3.org/2000/svg">
<path d="M2.86364 13.0909C3.09269 13.0909 3.31236 13.1819 3.47432 13.3439C3.63628 13.5058 3.72727 13.7255 3.72727 13.9545V18.2727H8.04545C8.27451 18.2727 8.49417 18.3637 8.65614 18.5257C8.8181 18.6876 8.90909 18.9073 8.90909 19.1364C8.90909 19.3654 8.8181 19.5851 8.65614 19.747C8.49417 19.909 8.27451 20 8.04545 20H2.86364C2.63459 20 2.41492 19.909 2.25295 19.747C2.09099 19.5851 2 19.3654 2 19.1364V13.9545C2 13.7255 2.09099 13.5058 2.25295 13.3439C2.41492 13.1819 2.63459 13.0909 2.86364 13.0909ZM20.1364 13.0909C20.3654 13.0909 20.5851 13.1819 20.747 13.3439C20.909 13.5058 21 13.7255 21 13.9545V19.1364C21 19.3654 20.909 19.5851 20.747 19.747C20.5851 19.909 20.3654 20 20.1364 20H14.9545C14.7255 20 14.5058 19.909 14.3439 19.747C14.1819 19.5851 14.0909 19.3654 14.0909 19.1364C14.0909 18.9073 14.1819 18.6876 14.3439 18.5257C14.5058 18.3637 14.7255 18.2727 14.9545 18.2727H19.2727V13.9545C19.2727 13.7255 19.3637 13.5058 19.5257 13.3439C19.6876 13.1819 19.9073 13.0909 20.1364 13.0909ZM8.04545 1C8.27451 1 8.49417 1.09099 8.65614 1.25295C8.8181 1.41492 8.90909 1.63459 8.90909 1.86364C8.90909 2.09269 8.8181 2.31236 8.65614 2.47432C8.49417 2.63628 8.27451 2.72727 8.04545 2.72727H3.72727V7.04545C3.72727 7.27451 3.63628 7.49417 3.47432 7.65614C3.31236 7.8181 3.09269 7.90909 2.86364 7.90909C2.63459 7.90909 2.41492 7.8181 2.25295 7.65614C2.09099 7.49417 2 7.27451 2 7.04545V1.86364L2.01727 1.69091C2.05709 1.49584 2.16309 1.32051 2.31732 1.19461C2.47155 1.06871 2.66454 0.999959 2.86364 1H8.04545ZM20.3091 1.01727C20.5042 1.05709 20.6795 1.16309 20.8054 1.31732C20.9313 1.47155 21 1.66454 21 1.86364V7.04545C21 7.27451 20.909 7.49417 20.747 7.65614C20.5851 7.8181 20.3654 7.90909 20.1364 7.90909C19.9073 7.90909 19.6876 7.8181 19.5257 7.65614C19.3637 7.49417 19.2727 7.27451 19.2727 7.04545V2.72727H14.9545C14.7255 2.72727 14.5058 2.63628 14.3439 2.47432C14.1819 2.31236 14.0909 2.09269 14.0909 1.86364C14.0909 1.63459 14.1819 1.41492 14.3439 1.25295C14.5058 1.09099 14.7255 1 14.9545 1H20.1364L20.3091 1.01727Z" fill="white"/>
</svg>
