<svg width="22" height="22" viewBox="0 0 22 22" fill="none" xmlns="http://www.w3.org/2000/svg">
<path d="M17.7493 6.61711L14.3833 3.05411C13.4253 2.03911 12.9468 1.53111 12.3577 1.26611L12.3501 4.00011C12.3501 6.35711 12.3501 7.53611 12.9723 8.26811C13.5945 9.00011 14.5966 9.00011 16.6001 9.00011H19.6431C19.3354 8.29611 18.7829 7.71211 17.7493 6.61711Z" fill="white"/>
<path fill-rule="evenodd" clip-rule="evenodd" d="M9.8 21H13.2C16.4054 21 18.0084 21 19.0038 19.828C19.9991 18.656 20 16.771 20 13V12.563C20 11.69 20 11.034 19.9635 10.5H16.5193C15.5868 10.5 14.7623 10.5 14.0985 10.395C13.3785 10.281 12.6586 10.02 12.0712 9.329C11.483 8.637 11.2611 7.79 11.1642 6.943C11.075 6.162 11.075 5.193 11.075 4.095L11.0835 1.261C11.0835 1.17833 11.0892 1.097 11.1005 1.017C10.7528 1 10.3406 1 9.8255 1C6.60315 1 4.99155 1 3.9962 2.172C3 3.343 3 5.229 3 9V13C3 16.771 3 18.657 3.9962 19.828C4.9924 20.999 6.59465 21 9.8 21ZM8.96105 11.953C8.84289 11.8227 8.68698 11.7501 8.525 11.7501C8.36302 11.7501 8.20711 11.8227 8.08895 11.953L6.38895 13.828C6.26851 13.9649 6.19868 14.152 6.19454 14.3489C6.19041 14.5459 6.2523 14.7368 6.36685 14.8805C6.4814 15.0242 6.6394 15.1091 6.80672 15.1169C6.97404 15.1246 7.13724 15.0546 7.26105 14.922L7.8875 14.232V17.5C7.8875 17.6989 7.95467 17.8897 8.07422 18.0303C8.19377 18.171 8.35592 18.25 8.525 18.25C8.69408 18.25 8.85623 18.171 8.97578 18.0303C9.09533 17.8897 9.1625 17.6989 9.1625 17.5V14.231L9.78895 14.922C9.91276 15.0546 10.076 15.1246 10.2433 15.1169C10.4106 15.1091 10.5686 15.0242 10.6832 14.8805C10.7977 14.7368 10.8596 14.5459 10.8555 14.3489C10.8513 14.152 10.7815 13.9649 10.661 13.828L8.96105 11.953Z" fill="white"/>
</svg>
