<svg width="22" height="22" viewBox="0 0 22 22" fill="none" xmlns="http://www.w3.org/2000/svg">
<path d="M10.5 12.075V16.269C10.5 16.4117 10.5477 16.5307 10.643 16.626C10.7383 16.7213 10.8573 16.769 11 16.769C11.1427 16.769 11.2617 16.7213 11.357 16.626C11.4523 16.5307 11.5 16.4117 11.5 16.269V12.075L13.246 13.821C13.2947 13.8697 13.3493 13.9063 13.41 13.931C13.4713 13.955 13.5323 13.9663 13.593 13.965C13.6537 13.963 13.717 13.9497 13.783 13.925C13.8483 13.901 13.905 13.8643 13.953 13.815C14.0597 13.705 14.114 13.5873 14.116 13.462C14.118 13.336 14.064 13.218 13.954 13.108L11.565 10.719C11.4783 10.6323 11.3893 10.5713 11.298 10.536C11.2073 10.5007 11.108 10.483 11 10.483C10.892 10.483 10.7927 10.5007 10.702 10.536C10.6113 10.5713 10.5223 10.6323 10.435 10.719L8.046 13.108C7.94867 13.2053 7.89767 13.32 7.893 13.452C7.88833 13.584 7.94133 13.7053 8.052 13.816C8.162 13.922 8.28 13.976 8.406 13.978C8.532 13.98 8.64967 13.926 8.759 13.816L10.5 12.075ZM5.616 20C5.15533 20 4.771 19.846 4.463 19.538C4.155 19.23 4.00067 18.8457 4 18.385V3.615C4 3.155 4.15433 2.771 4.463 2.463C4.77167 2.155 5.156 2.00067 5.616 2H12.829C13.0443 2 13.2537 2.04333 13.457 2.13C13.6603 2.21667 13.8343 2.333 13.979 2.479L17.52 6.02C17.6647 6.16533 17.7807 6.33933 17.868 6.542C17.9553 6.74467 17.999 6.954 17.999 7.17V18.384C17.999 18.844 17.8447 19.2283 17.536 19.537C17.2273 19.8457 16.8437 20 16.385 20H5.616ZM13 6.192C13 6.42467 13.0767 6.61733 13.23 6.77C13.3833 6.92267 13.576 6.99933 13.808 7H17L13 3V6.192Z" fill="white"/>
</svg>
