<svg width="22" height="22" viewBox="0 0 22 22" fill="none" xmlns="http://www.w3.org/2000/svg">
<path d="M17.6169 6.61711L14.0529 3.05411C13.0386 2.03911 12.5319 1.53111 11.9082 1.26611L11.9001 4.00011C11.9001 6.35711 11.9001 7.53611 12.5589 8.26811C13.2177 9.00011 14.2788 9.00011 16.4001 9.00011H19.6221C19.2963 8.29611 18.7113 7.71211 17.6169 6.61711Z" fill="white"/>
<path fill-rule="evenodd" clip-rule="evenodd" d="M9.2 21H12.8C16.1939 21 17.8913 21 18.9452 19.828C19.9991 18.656 20 16.771 20 13V12.563C20 11.69 20 11.034 19.9613 10.5H16.3145C15.3272 10.5 14.4542 10.5 13.7513 10.395C12.989 10.281 12.2267 10.02 11.6048 9.329C10.982 8.637 10.7471 7.79 10.6445 6.943C10.55 6.162 10.55 5.193 10.55 4.095L10.559 1.261C10.559 1.17833 10.565 1.097 10.577 1.017C10.2089 1 9.7724 1 9.227 1C5.8151 1 4.1087 1 3.0548 2.172C2 3.343 2 5.229 2 9V13C2 16.771 2 18.657 3.0548 19.828C4.1096 20.999 5.8061 21 9.2 21ZM8.3117 11.953C8.18659 11.8227 8.02151 11.7501 7.85 11.7501C7.67849 11.7501 7.51341 11.8227 7.3883 11.953L5.5883 13.828C5.46078 13.9649 5.38684 14.152 5.38246 14.3489C5.37808 14.5459 5.44361 14.7368 5.5649 14.8805C5.68618 15.0242 5.85348 15.1091 6.03064 15.1169C6.20781 15.1246 6.3806 15.0546 6.5117 14.922L7.175 14.232V17.5C7.175 17.6989 7.24612 17.8897 7.3727 18.0303C7.49929 18.171 7.67098 18.25 7.85 18.25C8.02902 18.25 8.20071 18.171 8.3273 18.0303C8.45388 17.8897 8.525 17.6989 8.525 17.5V14.231L9.1883 14.922C9.3194 15.0546 9.49219 15.1246 9.66936 15.1169C9.84652 15.1091 10.0138 15.0242 10.1351 14.8805C10.2564 14.7368 10.3219 14.5459 10.3175 14.3489C10.3132 14.152 10.2392 13.9649 10.1117 13.828L8.3117 11.953Z" fill="white"/>
</svg>
