<svg width="22" height="22" viewBox="0 0 22 22" fill="none" xmlns="http://www.w3.org/2000/svg">
<path d="M16.9167 6.58824C16.9167 5.04476 16.31 3.64771 15.3307 2.63735C14.3503 1.62588 12.9961 1 11.5 1C10.0039 1 8.64975 1.62588 7.66933 2.63735C6.69 3.64771 6.08333 5.04476 6.08333 6.58824C6.08333 8.13171 6.69 9.52876 7.66933 10.5391C8.64975 11.5506 10.0039 12.1765 11.5 12.1765C12.9961 12.1765 14.3503 11.5506 15.3307 10.5391C15.8345 10.021 16.2339 9.40514 16.5061 8.72709C16.7783 8.04903 16.9178 7.32214 16.9167 6.58824ZM5 17.7647C5 18.8824 7.4375 20 11.5 20C15.3112 20 18 18.8824 18 17.7647C18 15.5294 15.4498 13.2941 11.5 13.2941C7.4375 13.2941 5 15.5294 5 17.7647Z" fill="white"/>
</svg>
