<svg width="22" height="22" viewBox="0 0 22 22" fill="none" xmlns="http://www.w3.org/2000/svg">
<path d="M1 11.004C1.92119 9.19702 3.32405 7.67991 5.05352 6.62034C6.783 5.56077 8.77176 5 10.8 5C12.8282 5 14.817 5.56077 16.5465 6.62034C18.276 7.67991 19.6788 9.19702 20.6 11.004C19.6788 12.811 18.276 14.3281 16.5465 15.3877C14.817 16.4472 12.8282 17.008 10.8 17.008C8.77176 17.008 6.783 16.4472 5.05352 15.3877C3.32405 14.3281 1.92119 12.811 1 11.004ZM10.8 15.004C11.8609 15.004 12.8783 14.5826 13.6284 13.8324C14.3786 13.0823 14.8 12.0649 14.8 11.004C14.8 9.94314 14.3786 8.92572 13.6284 8.17557C12.8783 7.42543 11.8609 7.004 10.8 7.004C9.73913 7.004 8.72172 7.42543 7.97157 8.17557C7.22143 8.92572 6.8 9.94314 6.8 11.004C6.8 12.0649 7.22143 13.0823 7.97157 13.8324C8.72172 14.5826 9.73913 15.004 10.8 15.004ZM10.8 13.004C10.2696 13.004 9.76086 12.7933 9.38579 12.4182C9.01071 12.0431 8.8 11.5344 8.8 11.004C8.8 10.4736 9.01071 9.96486 9.38579 9.58979C9.76086 9.21472 10.2696 9.004 10.8 9.004C11.3304 9.004 11.8391 9.21472 12.2142 9.58979C12.5893 9.96486 12.8 10.4736 12.8 11.004C12.8 11.5344 12.5893 12.0431 12.2142 12.4182C11.8391 12.7933 11.3304 13.004 10.8 13.004Z" fill="white"/>
</svg>
