<svg xmlns="http://www.w3.org/2000/svg" version="1.1" xmlns:xlink="http://www.w3.org/1999/xlink" width="46" height="48"><svg width="46" height="48" viewBox="0 0 46 48" fill="none" xmlns="http://www.w3.org/2000/svg">
<path d="M15.35 2.09006C11.83 3.23006 8.89998 4.18006 8.83998 4.20006C8.71998 4.25006 0.609976 15.2001 0.599976 15.3101C0.599976 15.3501 7.18998 17.3301 11.26 18.5001L11.87 18.6801L15.26 16.1801C17.12 14.8101 19.43 13.1201 20.38 12.4301L22.1 11.1601V5.58006C22.1 0.330055 22.09 5.53131e-05 21.93 0.0100555C21.83 0.0200558 18.87 0.950056 15.35 2.09006ZM13.91 5.87006C15.32 6.59006 15.71 8.23005 14.8 9.66006C14.69 9.85005 14.69 9.91006 14.87 10.1601C16.02 11.8201 14.79 14.1001 12.75 14.1001C10.81 14.1001 9.59998 12.0301 10.55 10.3301L10.81 9.86005L10.55 9.38005C9.60998 7.65005 10.8 5.60006 12.75 5.60006C13.22 5.60006 13.49 5.66006 13.91 5.87006Z" fill="#9F0712"></path>
<path d="M12.22 7.50004C11.76 7.93004 11.85 8.57004 12.41 8.89004C12.92 9.18004 13.6 8.75004 13.6 8.13004C13.6 7.43004 12.73 7.03004 12.22 7.50004Z" fill="#9F0712"></path>
<path d="M12.19 10.99C12.02 11.17 11.9 11.39 11.9 11.55C11.9 11.92 12.4 12.4 12.78 12.4C13.38 12.4 13.83 11.56 13.47 11.09C13.12 10.63 12.59 10.59 12.19 10.99Z" fill="#9F0712"></path>
<path d="M23.9 5.58001V11.16L29.07 14.95C31.91 17.04 34.29 18.76 34.35 18.78C34.48 18.81 45.26 15.47 45.36 15.37C45.4 15.34 45.2 15 44.93 14.63C44.43 13.95 37.3 4.27001 37.25 4.22001C37.21 4.18001 24.12 1.14441e-05 24.01 1.14441e-05C23.93 1.14441e-05 23.9 1.68001 23.9 5.58001ZM34.38 5.86001C35.69 6.51001 36.16 8.07001 35.45 9.38001L35.19 9.86001L35.45 10.31C36.4 12.02 35.19 14.1 33.26 14.1C32.23 14.09 31.41 13.59 30.96 12.68C30.71 12.18 30.62 11.52 30.76 11.15C30.84 10.96 31.31 10.7 31.6 10.7C31.93 10.7 32.4 11.23 32.4 11.6C32.4 12 32.81 12.4 33.22 12.4C33.6 12.4 34.1 11.92 34.1 11.55C34.1 11.23 33.6 10.7 33.3 10.7C32.51 10.7 32.1 9.77001 32.66 9.25001C32.82 9.10001 33.05 9.00001 33.22 9.00001C33.57 9.00001 34.1 8.52001 34.1 8.20001C34.1 7.70001 33.72 7.31001 33.22 7.30001C32.79 7.30001 32.4 7.68001 32.4 8.10001C32.4 8.47001 31.93 9.00001 31.6 9.00001C31.34 9.00001 30.99 8.82001 30.83 8.61001C30.51 8.19001 30.81 6.97001 31.38 6.36001C32.1 5.60001 33.41 5.38001 34.38 5.86001Z" fill="#9F0712"></path>
<path d="M17.95 16.3101C15.2 18.3401 12.95 20.0301 12.95 20.0801C12.95 20.1201 13.81 22.8201 14.85 26.0801L16.75 32.0001H23H29.25L31.14 26.1201C32.18 22.8901 33.04 20.2001 33.07 20.1401C33.09 20.0701 32.56 19.6201 31.88 19.1301C31.2 18.6301 28.93 16.9601 26.82 15.4201C24.72 13.8701 22.98 12.6001 22.97 12.6101C22.96 12.6101 20.7 14.2801 17.95 16.3101ZM24.58 18.8001C25.31 19.1901 25.73 19.6301 26.09 20.4001L26.35 20.9501L26.38 24.5301L26.41 28.1001L26.16 28.3501C25.88 28.6201 25.37 28.6801 25.09 28.4701C24.75 28.2101 24.7 27.9201 24.7 26.3501C24.7 25.1401 24.67 24.8001 24.58 24.8401C23.95 25.1001 23.3 25.2201 22.74 25.1701C21.02 25.0401 19.73 23.7101 19.62 21.9601C19.55 20.7201 20.15 19.5501 21.2 18.9201C21.95 18.4701 22.23 18.4001 23.15 18.4301C23.84 18.4601 24.04 18.5101 24.58 18.8001Z" fill="#383838"></path>
<path d="M22.16 20.33C21.7 20.59 21.3 21.26 21.3 21.78C21.3 22.64 22.01 23.39 22.88 23.47C23.82 23.56 24.7 22.75 24.7 21.8C24.7 20.9 23.9 20.1 23 20.1C22.72 20.1 22.4 20.19 22.16 20.33Z" fill="#383838"></path>
<path d="M0 23.9601V30.9201L4.08 36.4601C6.32 39.5001 8.18 41.9901 8.21 42.0001C8.26 42.0001 14.91 33.2001 15.13 32.8401C15.2 32.7201 11.3 20.4601 11.14 20.3001C11.06 20.2301 0.23 17.0001 0.06 17.0001C0.03 17.0001 0 20.1301 0 23.9601ZM9.07 24.6201C9.5 25.0201 9.42 25.2701 7.51 29.0801C6.06 31.9801 5.67 32.6801 5.46 32.7801C5.07 32.9601 4.84 32.9301 4.56 32.6701C4.06 32.2301 4.08 32.1601 5.64 29.0201L7.1 26.1001H6.11C4.94 26.1001 4.55 25.9801 4.34 25.5801C4.16 25.2301 4.22 24.8801 4.5 24.6001C4.69 24.4101 4.84 24.4001 6.77 24.4001C8.75 24.4001 8.85 24.4101 9.07 24.6201Z" fill="#9F0712"></path>
<path d="M40.3999 18.7401C37.3999 19.6801 34.8999 20.4801 34.8299 20.5001C34.6799 20.5701 30.7799 32.6901 30.8699 32.8401C31.0899 33.2001 37.7399 42.0001 37.7899 42.0001C37.8199 41.9901 39.6799 39.5101 41.9199 36.4701L45.9899 30.9501L45.9999 23.9701C45.9999 20.1401 45.9699 17.0001 45.9299 17.0101C45.8799 17.0201 43.3999 17.7901 40.3999 18.7401ZM40.6899 24.6601C40.8899 24.9101 40.8999 25.0501 40.8999 27.2101C40.8999 29.4001 40.9099 29.5001 41.0899 29.5001C41.1999 29.5001 41.3999 29.6401 41.5499 29.8201C41.7599 30.0701 41.7999 30.2001 41.7599 30.4401C41.6799 30.8101 41.4599 31.0601 41.1399 31.1401C40.9199 31.2001 40.8999 31.2501 40.8999 31.7801C40.8899 32.3801 40.7899 32.5901 40.4299 32.7801C40.0799 32.9701 39.7999 32.9201 39.4899 32.6101C39.2399 32.3501 39.1999 32.2401 39.1999 31.7601V31.2001H37.7899H36.3799L36.0899 30.9101C35.9099 30.7201 35.7999 30.5101 35.7999 30.3301C35.7999 30.1401 36.3399 29.2401 37.6199 27.3201C38.6199 25.8201 39.5099 24.5501 39.5899 24.5001C39.6799 24.4501 39.9199 24.4001 40.1199 24.4001C40.3999 24.4001 40.5299 24.4601 40.6899 24.6601Z" fill="#383838"></path>
<path d="M38.7499 28.7201C38.5299 29.0601 38.3399 29.3701 38.3199 29.4201C38.2999 29.4601 38.4899 29.5001 38.7399 29.5001H39.1999V28.8001C39.1999 28.4101 39.1899 28.1001 39.1799 28.1001C39.1599 28.1001 38.9699 28.3801 38.7499 28.7201Z" fill="#383838"></path>
<path d="M13.35 38.07C11.54 40.48 9.95998 42.59 9.83998 42.76L9.59998 43.06L16.23 45.18C19.87 46.35 22.92 47.3 23 47.3C23.08 47.3 26.13 46.35 29.77 45.18L36.4 43.07L36.17 42.76C36.04 42.59 34.46 40.48 32.65 38.07L29.38 33.7H23H16.62L13.35 38.07ZM25.25 36.53C25.46 36.7 25.52 36.85 25.52 37.15C25.52 37.45 25.46 37.6 25.25 37.77C25.02 37.98 24.89 38 23.99 38H23V38.45C23 38.89 23.01 38.9 23.33 38.9C24.05 38.91 25.01 39.64 25.36 40.45C25.46 40.68 25.53 41.1 25.53 41.46C25.52 43.5 23.16 44.69 21.5 43.49C20.56 42.81 20.44 41.81 21.26 41.49C21.57 41.38 22.14 41.59 22.29 41.88C22.46 42.2 22.94 42.35 23.3 42.2C23.67 42.05 23.8 41.83 23.8 41.37C23.8 40.84 23.53 40.66 22.57 40.59C21.86 40.54 21.74 40.5 21.53 40.26C21.31 40 21.3 39.92 21.3 38.5C21.3 36.93 21.37 36.59 21.74 36.42C21.85 36.36 22.63 36.31 23.47 36.31C24.91 36.3 25 36.31 25.25 36.53Z" fill="#9F0712"></path>
</svg><style>@media (prefers-color-scheme: light) { :root { filter: none; } }
@media (prefers-color-scheme: dark) { :root { filter: none; } }
</style></svg>