<svg width="22" height="22" viewBox="0 0 22 22" fill="none" xmlns="http://www.w3.org/2000/svg">
<path d="M11.5 2C16.1945 2 20 5.80395 20 10.4966C20.0018 12.7274 19.1258 14.8694 17.5613 16.4601C15.9967 18.0509 13.8691 18.9627 11.6377 18.9989C9.40636 19.035 7.25029 18.1925 5.635 16.6533C4.01971 15.1141 3.07479 13.0016 3.00425 10.7719L3 10.4966L3.0034 10.2587C3.1292 5.6765 6.8845 2 11.5 2ZM11.5 9.64698H10.65L10.5505 9.65292C10.344 9.67749 10.1536 9.77694 10.0154 9.93243C9.87725 10.0879 9.80095 10.2887 9.80095 10.4966C9.80095 10.7046 9.87725 10.9053 10.0154 11.0608C10.1536 11.2163 10.344 11.3158 10.5505 11.3404L10.65 11.3463V13.8953L10.6559 13.9947C10.6783 14.1844 10.764 14.361 10.8991 14.496C11.0342 14.631 11.2108 14.7166 11.4005 14.739L11.5 14.745H12.35L12.4494 14.739C12.6392 14.7166 12.8158 14.631 12.9509 14.496C13.086 14.361 13.1717 14.1844 13.194 13.9947L13.2 13.8953L13.194 13.7959C13.1737 13.6225 13.1005 13.4596 12.9843 13.3294C12.8681 13.1991 12.7146 13.1077 12.5446 13.0677L12.4494 13.0507L12.35 13.0456V10.4966L12.344 10.3972C12.3217 10.2076 12.236 10.031 12.1009 9.89594C11.9658 9.7609 11.7892 9.67529 11.5994 9.65292L11.5 9.64698ZM11.5085 7.09798L11.4005 7.10393C11.194 7.12849 11.0036 7.22794 10.8654 7.38344C10.7272 7.53894 10.6509 7.73968 10.6509 7.94765C10.6509 8.15561 10.7272 8.35636 10.8654 8.51185C11.0036 8.66735 11.194 8.7668 11.4005 8.79136L11.5 8.79731L11.6079 8.79136C11.8145 8.7668 12.0049 8.66735 12.1431 8.51185C12.2812 8.35636 12.3576 8.15561 12.3576 7.94765C12.3576 7.73968 12.2812 7.53894 12.1431 7.38344C12.0049 7.22794 11.8145 7.12849 11.6079 7.10393L11.5085 7.09798Z" fill="#AC0C14"/>
</svg>
