<svg width="22" height="22" viewBox="0 0 22 22" fill="none" xmlns="http://www.w3.org/2000/svg">
<path d="M10.0374 1C9.44378 1 8.76236 1.14553 7.96807 1.48565C11.1954 1.83721 10.723 5.22204 8.55751 5.82706C5.82348 6.59151 3.06812 4.85821 4.44643 1.77181C2.78803 2.54647 2.68352 5.07487 3.90589 6.32988C6.81425 9.30591 3.28593 11.3949 2.46446 8.19398C0.826592 13.3244 3.42974 20 11.7221 20C22.2026 20 23.5111 4.68243 17.1233 3.03335C18.2311 4.79281 16.5757 5.93334 16.0824 6.02328C13.9378 6.42799 13.6535 0.999591 10.0374 1ZM11.6051 5.82706C11.7932 5.82706 11.9981 5.87203 12.1402 5.94561L16.9854 8.68863C17.2947 8.85623 17.2947 9.13421 16.9854 9.31L12.1402 12.0448C11.8392 12.2206 11.3668 12.2206 11.0658 12.0448L6.20808 9.31C5.90291 9.13421 5.90291 8.85623 6.20808 8.68863L11.0658 5.94561C11.2079 5.87203 11.3961 5.82706 11.6051 5.82706ZM7.88446 8.38612C6.98147 8.36977 6.50072 8.99931 7.12361 9.37949C7.52494 9.57571 8.11438 9.55936 8.49063 9.34679C8.85851 9.13013 8.88777 8.78674 8.55333 8.55372C8.37357 8.45153 8.13529 8.39021 7.88446 8.38612ZM15.3508 8.39021C14.4813 8.40656 14.0423 9.02384 14.6694 9.39176C15.0707 9.59206 15.6685 9.5798 16.0489 9.36314C16.421 9.14648 16.4461 8.79491 16.0991 8.5619C15.9235 8.46379 15.6852 8.39838 15.4344 8.39021H15.3508ZM11.6302 8.39021C11.3543 8.38612 11.0867 8.45153 10.8902 8.5619C10.4638 8.79083 10.4555 9.17918 10.8651 9.41628C11.279 9.65338 11.9437 9.64521 12.3325 9.39176C12.9596 9.02384 12.5248 8.39838 11.6302 8.39021ZM5.73569 10.0663C5.7984 10.0704 5.87783 10.0867 5.9698 10.1317L10.631 12.7684C10.932 12.936 11.1703 13.3489 11.1703 13.6882V18.5815C11.1703 18.9208 10.932 19.0598 10.631 18.8922L5.97398 16.2595C5.66462 16.0837 5.42215 15.679 5.42215 15.3356V10.4424C5.42215 10.1889 5.54757 10.0663 5.73569 10.0663ZM17.4954 10.0663C17.671 10.0663 17.7964 10.1889 17.7964 10.4424V15.3356C17.7964 15.679 17.5455 16.0837 17.2529 16.2595L12.5917 18.8922C12.2907 19.0598 12.0524 18.9208 12.0524 18.5815V13.6882C12.0524 13.3489 12.2907 12.936 12.5917 12.7684L17.2529 10.1317C17.3407 10.0867 17.4285 10.0704 17.4954 10.0663ZM9.76149 12.7439H9.71551C9.49394 12.7602 9.36017 12.9401 9.36017 13.2181C9.33508 13.6432 9.66116 14.2033 10.0667 14.4363C10.4764 14.6652 10.8024 14.4813 10.7857 14.0316C10.7941 13.4511 10.2297 12.7602 9.76149 12.7439ZM15.2337 13.6351C14.7655 13.6391 14.197 14.3382 14.2012 14.9187C14.2053 15.3438 14.5231 15.5073 14.9202 15.2825C15.3132 15.0577 15.6309 14.5344 15.6351 14.1052C15.6351 13.8313 15.4971 13.6514 15.2797 13.6351H15.2337ZM6.16628 14.5548C5.94053 14.5671 5.80258 14.747 5.80258 15.029C5.78168 15.4583 6.10775 16.0142 6.51326 16.2473C6.92295 16.4721 7.24902 16.2881 7.2323 15.8344C7.2323 15.2416 6.64285 14.5344 6.16628 14.5548Z" fill="white"/>
</svg>
