<svg width="22" height="22" viewBox="0 0 22 22" fill="none" xmlns="http://www.w3.org/2000/svg">
<path d="M4.75 3.71429C4.75 2.21719 5.8711 1 7.25 1H18.5C19.879 1 21 2.21719 21 3.71429V17.2857C21 18.7829 19.879 20 18.5 20H4.125C2.39844 20 1 18.4817 1 16.6071V5.07142C1 4.32075 1.55859 3.71429 2.25 3.71429C2.94141 3.71429 3.5 4.32075 3.5 5.07142V16.6071C3.5 16.9804 3.78125 17.2857 4.125 17.2857C4.46875 17.2857 4.75 16.9804 4.75 16.6071V3.71429ZM7.25 4.73214V8.125C7.25 8.68907 7.66797 9.14286 8.1875 9.14286H12.5625C13.082 9.14286 13.5 8.68907 13.5 8.125V4.73214C13.5 4.16808 13.082 3.71429 12.5625 3.71429H8.1875C7.66797 3.71429 7.25 4.16808 7.25 4.73214ZM15.375 4.39286C15.375 4.76607 15.6563 5.07142 16 5.07142H17.875C18.2188 5.07142 18.5 4.76607 18.5 4.39286C18.5 4.01963 18.2188 3.71429 17.875 3.71429H16C15.6563 3.71429 15.375 4.01963 15.375 4.39286ZM15.375 8.46429C15.375 8.8375 15.6563 9.14286 16 9.14286H17.875C18.2188 9.14286 18.5 8.8375 18.5 8.46429C18.5 8.09107 18.2188 7.78572 17.875 7.78572H16C15.6563 7.78572 15.375 8.09107 15.375 8.46429ZM7.25 12.5357C7.25 12.9089 7.53125 13.2143 7.875 13.2143H17.875C18.2188 13.2143 18.5 12.9089 18.5 12.5357C18.5 12.1625 18.2188 11.8571 17.875 11.8571H7.875C7.53125 11.8571 7.25 12.1625 7.25 12.5357ZM7.25 16.6071C7.25 16.9804 7.53125 17.2857 7.875 17.2857H17.875C18.2188 17.2857 18.5 16.9804 18.5 16.6071C18.5 16.2339 18.2188 15.9286 17.875 15.9286H7.875C7.53125 15.9286 7.25 16.2339 7.25 16.6071Z" fill="white"/>
</svg>
